<?xml version="1.0" encoding="UTF-8" standalone="no"?>
<svg
   width="285.93594"
   height="151.03455"
   viewBox="0 0 285.93594 151.03455"
   version="1.1"
   id="svg1"
   xmlns="http://www.w3.org/2000/svg"
   xmlns:svg="http://www.w3.org/2000/svg">
  <defs
     id="defs1" />
  <g
     id="Qode_Mike_Banner"
     data-name="Qode Mike Banner"
     transform="translate(-2.348,0.03254952)">
    <g
       id="Group_92"
       data-name="Group 92"
       transform="translate(98.5)">
      <path
         id="Path_80"
         data-name="Path 80"
         d="M 609.682,16.057 A 15.362,15.362 0 0 0 607.209,7.72 18.533,18.533 0 0 0 595.753,0.148 2.3,2.3 0 0 0 592.965,1 c -4.238,5.41 -8.571,10.763 -12.873,16.128 -0.283,0.353 -0.566,0.7 -0.854,1.055 l 9.852,12.2 c 1.274,-1.589 2.6,-3.205 4.01,-4.941 l 0.074,-0.087 c 0.144,-0.181 0.293,-0.362 0.442,-0.546 v 17.33 c -0.174,-0.176 -0.323,-0.325 -0.449,-0.457 a 4.924,4.924 0 0 1 -0.452,-0.489 q -0.964,-1.24 -1.917,-2.48 c -1.154,-1.495 -2.3,-2.992 -3.426,-4.5 a 1.753,1.753 0 0 1 -0.144,-0.236 L 576.842,21.112 a 0.066,0.066 0 0 0 -0.01,0.012 c -0.869,-1.08 -1.74,-2.153 -2.6,-3.223 -3.593,-4.449 -7.135,-8.836 -10.745,-13.3 -3.655,4.506 -7.225,8.9 -10.822,13.335 l 9.775,12.205 c 0.328,-0.4 0.655,-0.807 0.993,-1.229 0.444,0.519 0.785,0.9 1.1,1.289 q 6.227,7.739 12.456,15.478 8.025,9.977 16.029,19.969 a 2.276,2.276 0 0 0 2.768,0.852 18.676,18.676 0 0 0 11.284,-7.356 15.467,15.467 0 0 0 2.614,-8.575 q 0.2,-17.254 0,-34.508 z"
         transform="translate(-517.166,-0.008)"
         fill="#1bfef4" />
      <path
         id="Path_81"
         data-name="Path 81"
         d="m 466.376,49.21 c -3.357,4.258 -6.79,8.466 -10.348,12.866 l -7.5,-9.4 c -7.5,-9.39 -14.993,-18.777 -22.605,-28.318 v 0 17.386 0 c 1.554,-1.922 2.9,-3.583 4.347,-5.368 0.313,0.325 0.561,0.551 0.767,0.807 2.83,3.5 5.638,7.016 8.5,10.5 a 1.1,1.1 0 0 1 0.037,1.673 q -6.7,8.268 -13.285,16.595 a 2.393,2.393 0 0 1 -0.365,0.375 l -0.06,0.05 A 2.118,2.118 0 0 1 424,66.56 18.314,18.314 0 0 1 412.14,58.717 15.535,15.535 0 0 1 409.791,50.554 q -0.19,-17.254 0,-34.508 a 15.319,15.319 0 0 1 2.657,-8.573 18.776,18.776 0 0 1 11.317,-7.317 2.144,2.144 0 0 1 2.158,0.36 3.639,3.639 0 0 1 0.467,0.5 c 5.08,6.4 10.224,12.751 15.353,19.12 0.226,0.281 0.457,0.554 0.849,1.028 L 453.8,35.153 c 0.678,0.862 1.405,1.738 2.187,2.711 0.464,-0.531 0.8,-0.914 1.266,-1.447 1.217,1.529 2.359,2.974 3.516,4.409 1.85,2.3 3.742,4.568 5.529,6.9 a 1.488,1.488 0 0 1 0.074,1.49 z"
         transform="translate(-409.696,-0.026)"
         fill="#1bfef4" />
      <line
         id="Line_49"
         data-name="Line 49"
         x2="7.5"
         y2="9.3970003"
         transform="translate(38.831,52.65)"
         fill="#1bfef4"
         x1="0"
         y1="0" />
      <line
         id="Line_50"
         data-name="Line 50"
         x1="2.3659999"
         y1="2.9719999"
         transform="translate(73.632,38.699)"
         fill="#1bfef4"
         x2="0"
         y2="0" />
    </g>
    <path
       d="m 31.472,6.72 -5.04,-6.776 q -2.24,0.448 -4.368,0.448 -5.544,0 -10.192,-2.576 Q 7.28,-4.76 4.536,-9.352 1.848,-14 1.848,-19.768 q 0,-5.768 2.688,-10.36 2.744,-4.592 7.336,-7.168 4.648,-2.576 10.192,-2.576 5.544,0 10.136,2.576 4.648,2.576 7.28,7.168 2.688,4.592 2.688,10.36 0,5.04 -2.072,9.24 -2.016,4.144 -5.656,6.888 L 43.064,6.72 Z M 11.648,-19.768 q 0,5.208 2.8,8.344 2.856,3.08 7.616,3.08 4.704,0 7.504,-3.136 2.856,-3.136 2.856,-8.288 0,-5.208 -2.856,-8.288 -2.8,-3.136 -7.504,-3.136 -4.76,0 -7.616,3.08 -2.8,3.08 -2.8,8.344 z M 61.824006,0.448 q -4.592,0 -8.288,-1.96 -3.64,-1.96 -5.768,-5.6 -2.072,-3.64 -2.072,-8.512 0,-4.816 2.128,-8.456 2.128,-3.696 5.824,-5.656 3.696,-1.96 8.288,-1.96 4.592,0 8.288,1.96 3.696,1.96 5.824,5.656 2.128,3.64 2.128,8.456 0,4.816 -2.184,8.512 -2.128,3.64 -5.88,5.6 -3.696,1.96 -8.288,1.96 z m 0,-8.288 q 2.744,0 4.648,-2.016 1.96,-2.016 1.96,-5.768 0,-3.752 -1.904,-5.768 -1.848,-2.016 -4.592,-2.016 -2.8,0 -4.648,2.016 -1.848,1.96 -1.848,5.768 0,3.752 1.792,5.768 1.848,2.016 4.592,2.016 z m 19.543951,-7.84 q 0,-4.816 1.792,-8.456 1.848,-3.64 4.984,-5.6 3.136,-1.96 7,-1.96 3.08,0 5.600003,1.288 2.576,1.288 4.032,3.472 V -41.44 h 9.576 V 0 h -9.576 v -4.48 q -1.344,2.24 -3.864,3.584 -2.464003,1.344 -5.768003,1.344 -3.864,0 -7,-1.96 -3.136,-2.016 -4.984,-5.656 -1.792,-3.696 -1.792,-8.512 z m 23.408003,0.056 q 0,-3.584 -2.016,-5.656 -1.96,-2.072 -4.816003,-2.072 -2.856,0 -4.872,2.072 -1.96,2.016 -1.96,5.6 0,3.584 1.96,5.712 2.016,2.072 4.872,2.072 2.856003,0 4.816003,-2.072 2.016,-2.072 2.016,-5.656 z m 45.97605,-0.504 q 0,1.344 -0.168,2.8 h -21.672 q 0.224,2.912 1.848,4.48 1.68,1.512 4.088,1.512 3.584,0 4.984,-3.024 h 10.192 q -0.784,3.08 -2.856,5.544 -2.016,2.464 -5.096,3.864 -3.08,1.4 -6.888,1.4 -4.592,0 -8.176,-1.96 -3.584,-1.96 -5.6,-5.6 -2.016,-3.64 -2.016,-8.512 0,-4.872 1.96,-8.512 2.016,-3.64 5.6,-5.6 3.584,-1.96 8.232,-1.96 4.536,0 8.064,1.904 3.528,1.904 5.488,5.432 2.016,3.528 2.016,8.232 z m -9.8,-2.52 q 0,-2.464 -1.68,-3.92 -1.68,-1.456 -4.2,-1.456 -2.408,0 -4.088,1.4 -1.624,1.4 -2.016,3.976 z m 59.35995,-20.664 V 0 h -9.576 V -23.576 L 181.94396,0 h -7.728 l -8.848,-23.632 V 0 h -9.576 v -39.312 h 11.312 l 11.032,27.216 10.92,-27.216 z m 11.70396,4.816 q -2.52,0 -4.144,-1.456 -1.568,-1.512 -1.568,-3.696 0,-2.24 1.568,-3.696 1.624,-1.512 4.144,-1.512 2.464,0 4.032,1.512 1.624,1.456 1.624,3.696 0,2.184 -1.624,3.696 -1.568,1.456 -4.032,1.456 z m 4.76,3.248 V 0 h -9.576 v -31.248 z m 26.04,31.248 -9.52,-13.104 V 0 h -9.576 v -41.44 h 9.576 v 22.904 l 9.464,-12.712 h 11.816 l -12.992,15.68 13.104,15.568 z m 44.96801,-16.128 q 0,1.344 -0.168,2.8 h -21.672 q 0.224,2.912 1.848,4.48 1.68,1.512 4.088,1.512 3.584,0 4.984,-3.024 h 10.192 q -0.784,3.08 -2.856,5.544 -2.016,2.464 -5.096,3.864 -3.08,1.4 -6.888,1.4 -4.592,0 -8.176,-1.96 -3.584,-1.96 -5.6,-5.6 -2.016,-3.64 -2.016,-8.512 0,-4.872 1.96,-8.512 2.016,-3.64 5.6,-5.6 3.584,-1.96 8.232,-1.96 4.536,0 8.064,1.904 3.528,1.904 5.488,5.432 2.016,3.528 2.016,8.232 z m -9.8,-2.52 q 0,-2.464 -1.68,-3.92 -1.68,-1.456 -4.2,-1.456 -2.408,0 -4.088,1.4 -1.624,1.4 -2.016,3.976 z"
       id="QodeMike"
       style="font-weight:700;font-size:56px;font-family:Poppins-Bold, Poppins;fill:#1bfef4"
       transform="translate(0.5,144.282)"
       aria-label="QodeMike" />
  </g>
</svg>
