<svg xmlns="http://www.w3.org/2000/svg" width="18" height="186.899" viewBox="0 0 18 186.899">
  <g id="Group_160" data-name="Group 160" transform="translate(-1296 -242.101)">
    <text id="Qodemike_gmail.com" data-name="Qodemike@gmail.com" transform="translate(1300 277) rotate(90)" fill="#8892b0" font-size="14" font-family="JetBrainsMono-Regular, JetBrains Mono"><tspan x="0" y="0">Qodemike@gmail.com</tspan></text>
    <path id="gmail-M" d="M7.884,6.413,14.5,11.237l6.756-4.99a3.2,3.2,0,0,1,3.437-.412A3.6,3.6,0,0,1,26.53,9.227V19.743A4.092,4.092,0,0,1,26,21.914,2.925,2.925,0,0,1,23.342,23.2H20.7a.632.632,0,0,1-.632-.632V15.239L14.877,19.1a.632.632,0,0,1-.756,0L8.964,15.243v4.445a.632.632,0,1,1-1.265,0V13.981a.632.632,0,0,1,1.011-.507L14.5,17.8l5.82-4.328a.632.632,0,0,1,1.01.507v7.953h2.011a1.679,1.679,0,0,0,1.589-.7,2.862,2.862,0,0,0,.334-1.5V9.227a2.352,2.352,0,0,0-1.143-2.262,1.938,1.938,0,0,0-2.091.279l-.018.014L14.876,12.53a.632.632,0,0,1-.748,0l-7-5.1a3.314,3.314,0,0,0-2.266-.642,1.206,1.206,0,0,0-.772.393,1.728,1.728,0,0,0-.328,1.153v11.9a1.62,1.62,0,0,0,.585,1.439,1.548,1.548,0,0,0,.989.265l.056,0H7.067a.632.632,0,1,1,0,1.265H5.42a2.812,2.812,0,0,1-1.808-.5A2.867,2.867,0,0,1,2.5,20.233V8.334a2.97,2.97,0,0,1,.627-1.97,2.465,2.465,0,0,1,1.548-.827A4.566,4.566,0,0,1,7.884,6.413Z" transform="translate(1319.206 239.601) rotate(90)" fill="#a8b2d1" fill-rule="evenodd"/>
  </g>
</svg>
