<svg id="Layer_1" data-name="Layer 1" xmlns="http://www.w3.org/2000/svg" width="280" height="163.973" viewBox="0 0 280 163.973">
  <g id="Group_83" data-name="Group 83" transform="translate(91)">
    <path id="Path_64" data-name="Path 64" d="M677.183,8.584,662.393,28.173l-.076.1c-2.287,2.966-4.36,5.62-6.346,8.326a.412.412,0,0,0-.064.164,2.033,2.033,0,0,0,.375,1.245c1.184,1.681,2.392,3.346,3.61,5l-4.353-5.765-13.1-17.353q1.368,1.783,2.745,3.578c1.184-1.532,2.319-2.978,3.431-4.439,4.534-5.963,9.1-11.907,13.561-17.919A2.356,2.356,0,0,1,665.114.17a19.515,19.515,0,0,1,12.069,8.414Z" transform="translate(-582.336 -0.014)" fill="#18192c"/>
    <path id="Path_65" data-name="Path 65" d="M481.32,179.179q-7.051,9.184-14,18.439a2.472,2.472,0,0,1-.385.417V170.723c1.637-2.135,3.054-3.98,4.578-5.963.326.36.591.613.809.9,2.98,3.89,5.939,7.8,8.953,11.662A1.264,1.264,0,0,1,481.32,179.179Z" transform="translate(-449.851 -124.381)" fill="#18192c"/>
    <path id="Path_66" data-name="Path 66" d="M456.916,54.662c-3.537,4.73-7.152,9.407-10.9,14.294l-7.9-10.441c-7.9-10.434-15.792-20.863-23.809-31.463h0V46.366h0V73.677s0,0,0,0c-.022.02-.042.037-.064.054a2.126,2.126,0,0,1-1.956.2,19.283,19.283,0,0,1-12.493-8.713,17.965,17.965,0,0,1-2.473-9.071q-.2-19.169,0-38.341a17.631,17.631,0,0,1,2.8-9.525A19.739,19.739,0,0,1,412.036.157a2.169,2.169,0,0,1,2.272.4,4.148,4.148,0,0,1,.493.551c5.351,7.108,10.772,14.167,16.172,21.243.238.311.48.615.895,1.142L443.676,39.04c.713.958,1.48,1.931,2.3,3.012.493-.591.843-1.015,1.333-1.608,1.282,1.7,2.485,3.3,3.7,4.9,1.949,2.554,3.941,5.076,5.824,7.669a1.733,1.733,0,0,1,.078,1.654Z" transform="translate(-397.216 -0.019)" fill="#18192c"/>
    <path id="Path_67" data-name="Path 67" d="M607.044,81.418a19.64,19.64,0,0,1-11.885,8.174,2.336,2.336,0,0,1-2.919-.946q-8.423-11.107-16.883-22.189-6.559-8.6-13.123-17.2c-.336-.436-.694-.855-1.162-1.431-.353.468-.7.919-1.044,1.365l-10.3-13.559c3.789-4.924,7.549-9.811,11.4-14.816,3.8,4.963,7.534,9.836,11.319,14.779l13.1,17.353,4.353,5.765q1,1.382,2.02,2.757a4.979,4.979,0,0,0,.473.544l14.645,19.4Z" transform="translate(-512.349 -15.721)" fill="#18192c"/>
    <line id="Line_43" data-name="Line 43" x2="7.9" y2="10.441" transform="translate(40.901 58.497)" fill="#1bfef4"/>
    <path id="Path_68" data-name="Path 68" d="M702.743,114.9l-.076.1-6.409,8.49-.368.485" transform="translate(-622.685 -86.742)" fill="#18192c"/>
    <path id="Path_69" data-name="Path 69" d="M741.217,82.581a17.843,17.843,0,0,1-2.752,9.527l-14.645-19.4c.135.147.294.311.473.51V53.963l-.466.605L738.617,34.98a17.77,17.77,0,0,1,2.6,9.26q.2,19.169,0,38.341Z" transform="translate(-643.77 -26.41)" fill="#18192c"/>
    <line id="Line_44" data-name="Line 44" x1="2.493" y1="3.301" transform="translate(77.558 42.997)" fill="#1bfef4"/>
  </g>
  <text id="QodeMike" transform="translate(0 144.973)" fill="#18192c" font-size="54" font-family="Poppins-Bold, Poppins" font-weight="700"><tspan x="0" y="0">QodeMike</tspan></text>
</svg>
