<svg xmlns="http://www.w3.org/2000/svg" xmlns:xlink="http://www.w3.org/1999/xlink" width="289" height="166.412" viewBox="0 0 289 166.412">
  <defs>
    <linearGradient id="linear-gradient" x1="0.113" y1="0.085" x2="0.769" y2="1.106" gradientUnits="objectBoundingBox">
      <stop offset="0" stop-color="#149c94"/>
      <stop offset="0.03" stop-color="#12a19a"/>
      <stop offset="0.22" stop-color="#0cc3be"/>
      <stop offset="0.42" stop-color="#06ddda"/>
      <stop offset="0.61" stop-color="#03f0ee"/>
      <stop offset="0.81" stop-color="#00fbfa"/>
      <stop offset="1" stop-color="aqua"/>
    </linearGradient>
    <linearGradient id="linear-gradient-2" x1="0.325" y1="-0.007" x2="0.742" y2="1.004" gradientUnits="objectBoundingBox">
      <stop offset="0" stop-color="#292927"/>
      <stop offset="0.04" stop-color="#2c2c2a"/>
      <stop offset="0.4" stop-color="#444442"/>
      <stop offset="0.73" stop-color="#525251"/>
      <stop offset="1" stop-color="#585857"/>
    </linearGradient>
    <linearGradient id="linear-gradient-3" x1="0.856" y1="1.023" x2="0.045" y2="0.099" gradientUnits="objectBoundingBox">
      <stop offset="0" stop-color="#149c94"/>
      <stop offset="0" stop-color="#12a19a"/>
      <stop offset="0.31" stop-color="#0cc3be"/>
      <stop offset="0.539" stop-color="#06ddda"/>
      <stop offset="0.729" stop-color="#03f0ee"/>
      <stop offset="0.929" stop-color="#00fbfa"/>
      <stop offset="1" stop-color="aqua"/>
    </linearGradient>
    <linearGradient id="linear-gradient-4" x1="0.766" y1="0.993" x2="0.308" y2="-0.003" xlink:href="#linear-gradient-2"/>
  </defs>
  <g id="Group_186" data-name="Group 186" transform="translate(-865 -4349)">
    <g id="g15" transform="translate(962.516 4349)">
      <path id="path12" d="M143.47,83.1l-3.016,3.012a4.567,4.567,0,0,1-6.462,0l-3.843-3.843,0,0a19.771,19.771,0,0,1-27.219-.088c-.109-.107-.218-.211-.325-.32L82.029,61.287l-6.641-6.641c-.107-.107-.211-.214-.32-.325A19.771,19.771,0,0,1,74.981,27.1c.135-.139.269-.279.406-.418l5.833-5.833L87.467,14.6l6.938,6.938-6.246,6.246-2.271,2.271c-.307.307-.6.625-.871.952a14.447,14.447,0,0,0-2.31,3.815,14.594,14.594,0,0,0,3.184,15.89l3.355,3.355,6.966,6.964L103.173,68l3.107,3.1a14.588,14.588,0,0,0,20.655,0l2.271-2.269L143.47,83.1Z" transform="translate(-69.595 6.319)" fill="url(#linear-gradient)"/>
      <path id="path13" d="M151.993,60.524c-.139.151-.281.3-.427.441l-12.46,12.46-7.1-7.1-.091-.091,9.346-9.349a14.6,14.6,0,0,0,0-20.655l-3.1-3.107L131.2,26.165,124.233,19.2l-3.355-3.355a14.586,14.586,0,0,0-19.719-.857c-.323.267-.634.555-.936.857l-9.349,9.349-6.938-6.938L96.4,5.793c.072-.072.144-.144.221-.218s.146-.139.223-.209a19.759,19.759,0,0,1,27.2.107c.109.107.218.211.325.32l27.212,27.212c.107.107.211.214.32.325A19.768,19.768,0,0,1,152,60.524Z" transform="translate(-63.39 0)" fill="url(#linear-gradient-2)"/>
      <path id="path14" d="M142.852,77.979,139.841,81,125.576,66.731,123.305,69a14.583,14.583,0,0,1-20.655,0l-3.107-3.1-6.962-6.964-6.966-6.964-3.355-3.355a14.59,14.59,0,0,1-.873-19.7l3.184-3.184,6.246-6.246L97.5,26.158,91.252,32.4l0,0a9.117,9.117,0,0,0,.2,12.688l7.482,7.482,6.964,6.964.471.471a9.113,9.113,0,0,0,12.688.2l.049.051,6.246-6.246,6.469,6.469.091.091,7.1,7.1,3.843,3.843a4.567,4.567,0,0,1,0,6.462Z" transform="translate(-65.966 8.428)" fill="url(#linear-gradient-3)"/>
      <path id="path15" d="M142.089,49.224a14.559,14.559,0,0,1-2.923,4.173l-9.346,9.349L123.3,56.23l6.448-6.451a9.117,9.117,0,0,0,0-12.892l-.471-.471-6.964-6.964-6.964-6.964-.515-.518-.167-.165a9.115,9.115,0,0,0-12.723.165L95.5,28.421h0l-6.713-6.734L98.86,11.62A16.323,16.323,0,0,1,102.3,9.429a14.589,14.589,0,0,1,16.482,2.921l3.355,3.355,7,6.948q5,5.068,10.083,10.053a14.857,14.857,0,0,1,2.871,16.515Z" transform="translate(-61.293 3.493)" fill="url(#linear-gradient-4)"/>
    </g>
    <g id="g23" transform="translate(865 4472.061)">
      <path id="path16" d="M12.089,124.731a21.139,21.139,0,0,1-7.716-7.449,19.654,19.654,0,0,1-.026-20.311,20.411,20.411,0,0,1,7.691-7.449,21.037,21.037,0,0,1,10.556-2.733,21.386,21.386,0,0,1,10.584,2.705,20.89,20.89,0,0,1,7.744,7.421,19.585,19.585,0,0,1,2.84,10.182,19.167,19.167,0,0,1-1.259,6.887,21.554,21.554,0,0,1-3.564,6.081l2.357,2.41a1.885,1.885,0,0,1,.536,1.126,1.7,1.7,0,0,1-.59,1.18L37.6,128.318a1.639,1.639,0,0,1-1.18.536,1.474,1.474,0,0,1-1.126-.536l-3-3.109a21.611,21.611,0,0,1-9.7,2.25,20.933,20.933,0,0,1-10.5-2.733Zm12.219-8.306a1.7,1.7,0,0,1,.59-1.18l3.7-3.536a1.587,1.587,0,0,1,1.126-.536,1.7,1.7,0,0,1,1.18.59l2.2,2.3A12.484,12.484,0,0,0,35.24,107.1a12.123,12.123,0,0,0-1.688-6.216,13.169,13.169,0,0,0-4.581-4.663A12.665,12.665,0,0,0,22.594,94.5a12.071,12.071,0,0,0-6.27,1.716,13.246,13.246,0,0,0-4.663,4.663,12.182,12.182,0,0,0,0,12.46,13.284,13.284,0,0,0,4.609,4.688,11.913,11.913,0,0,0,6.323,1.769,13.837,13.837,0,0,0,3.859-.59l-1.607-1.66a1.885,1.885,0,0,1-.536-1.126Z" transform="translate(-1.533 -85.504)" fill="aqua"/>
      <path id="path17" d="M42.48,122.353a15.605,15.605,0,0,1-5.814-5.6,14.865,14.865,0,0,1,0-15.379,15.783,15.783,0,0,1,5.84-5.626,16.46,16.46,0,0,1,21.92,5.629A14.689,14.689,0,0,1,64.4,116.7a16.454,16.454,0,0,1-21.918,5.654Zm3.938-20.525a7.961,7.961,0,0,0-2.947,2.975,9.153,9.153,0,0,0-.028,8.547,7.544,7.544,0,0,0,2.921,2.975,7.993,7.993,0,0,0,11.146-3,8.861,8.861,0,0,0,1.073-4.287,8.6,8.6,0,0,0-1.045-4.208,7.917,7.917,0,0,0-2.921-3.028,8.169,8.169,0,0,0-4.126-1.073,7.832,7.832,0,0,0-4.073,1.1Z" transform="translate(12.743 -82.509)" fill="aqua"/>
      <path id="path18" d="M84.646,126.462a1.593,1.593,0,0,1-.43-1.18v-1.34a8.512,8.512,0,0,1-3.59,2.519,13.528,13.528,0,0,1-5.359,1.073,15.1,15.1,0,0,1-7.876-2.009,13.1,13.1,0,0,1-5.143-5.6,17.944,17.944,0,0,1,.026-15.593,13.727,13.727,0,0,1,5.118-5.52,14.772,14.772,0,0,1,7.876-2.036,13.273,13.273,0,0,1,5.306,1.017,8.977,8.977,0,0,1,3.643,2.68V87.988a1.486,1.486,0,0,1,1.609-1.609h4.716a1.486,1.486,0,0,1,1.609,1.609v37.3a1.486,1.486,0,0,1-1.609,1.609H85.826a1.584,1.584,0,0,1-1.18-.43ZM82.315,106.1a8.658,8.658,0,0,0-11.761,0,8.412,8.412,0,0,0-2.2,6.056,8.132,8.132,0,0,0,2.25,5.975,7.759,7.759,0,0,0,5.84,2.331,8.057,8.057,0,0,0,5.921-2.225,8.336,8.336,0,0,0,2.171-6.081,8.249,8.249,0,0,0-2.225-6.056Z" transform="translate(23.975 -85.682)" fill="aqua"/>
      <path id="path19" d="M95.827,122.9a14.914,14.914,0,0,1-6.056-4.823,14.408,14.408,0,0,1-2.626-9,15.176,15.176,0,0,1,2.118-8.039,14.412,14.412,0,0,1,5.761-5.385,17.332,17.332,0,0,1,8.146-1.9,16.263,16.263,0,0,1,7.421,1.742,14.692,14.692,0,0,1,5.654,5.011,12.012,12.012,0,0,1,1.876,4.18,23.393,23.393,0,0,1,.43,4.769,2.951,2.951,0,0,1-.59,1.876,1.99,1.99,0,0,1-1.66.75H95.133a5.749,5.749,0,0,0,2.947,4.073,10.472,10.472,0,0,0,5.09,1.286,9.776,9.776,0,0,0,3.75-.643,8.958,8.958,0,0,0,2.786-1.823,2.071,2.071,0,0,1,1.286-.59,1.73,1.73,0,0,1,.964.32l3.483,2.036a1.384,1.384,0,0,1,.857,1.18,1.84,1.84,0,0,1-.43,1.017,16.251,16.251,0,0,1-12.7,5.52,18.326,18.326,0,0,1-7.342-1.553Zm1.9-20.525a5.7,5.7,0,0,0-2.385,4.019H110.08a5.772,5.772,0,0,0-1.073-2.733,6.907,6.907,0,0,0-2.41-2.09,7.262,7.262,0,0,0-3.483-.8,8.654,8.654,0,0,0-5.385,1.607Z" transform="translate(35.515 -82.493)" fill="aqua"/>
      <path id="path20" d="M154.067,87.576a.753.753,0,0,1,.669.376,1.872,1.872,0,0,1,.242,1.017v35.8a1.486,1.486,0,0,1-1.609,1.609h-5.306a1.486,1.486,0,0,1-1.609-1.609V107.671l-10.879,12.592a1.387,1.387,0,0,1-1.126.643,1.614,1.614,0,0,1-1.126-.643l-10.879-12.592v17.095a1.486,1.486,0,0,1-1.609,1.609h-5.306a1.486,1.486,0,0,1-1.609-1.609v-35.8a1.862,1.862,0,0,1,.241-1.017.753.753,0,0,1,.669-.376,1.462,1.462,0,0,1,1.073.643l18.542,20.9,18.542-20.9a1.589,1.589,0,0,1,1.073-.643Z" transform="translate(47.101 -85.164)" fill="aqua"/>
      <path id="path21" d="M156.057,93.26a4.276,4.276,0,0,1-3.107,1.259,4.5,4.5,0,0,1-3.188-1.259,4.1,4.1,0,0,1-1.312-3.081,3.992,3.992,0,0,1,1.312-3.028,4.439,4.439,0,0,1,3.188-1.259,4.222,4.222,0,0,1,3.107,1.259,4.089,4.089,0,0,1,1.286,3.028A4.2,4.2,0,0,1,156.057,93.26Zm-6.7,33.412a1.594,1.594,0,0,1-.43-1.18v-26.2a1.486,1.486,0,0,1,1.609-1.609h4.823a1.486,1.486,0,0,1,1.609,1.609v26.2a1.486,1.486,0,0,1-1.609,1.609h-4.823a1.584,1.584,0,0,1-1.18-.43Z" transform="translate(62.044 -85.892)" fill="aqua"/>
      <path id="path22" d="M160.4,86.808a1.593,1.593,0,0,1,1.18-.43H166.4a1.486,1.486,0,0,1,1.609,1.609v21.971l9.27-11.469a2.3,2.3,0,0,1,1.93-.91h6a1.714,1.714,0,0,1,1.045.267.839.839,0,0,1,.348.7,1.726,1.726,0,0,1-.483,1.017L175.992,111.3l10.772,13.612a1.853,1.853,0,0,1,.43,1.017.823.823,0,0,1-.376.7,1.721,1.721,0,0,1-1.017.267h-5.949a2.387,2.387,0,0,1-1.983-.964l-6.966-8.682-2.893,3.323v4.716a1.486,1.486,0,0,1-1.609,1.609h-4.823a1.486,1.486,0,0,1-1.609-1.609v-37.3a1.592,1.592,0,0,1,.43-1.18Z" transform="translate(67.029 -85.682)" fill="aqua"/>
      <path id="path23" d="M190.006,122.9a14.914,14.914,0,0,1-6.056-4.823,14.408,14.408,0,0,1-2.626-9,15.176,15.176,0,0,1,2.118-8.039A14.412,14.412,0,0,1,189.2,95.65a17.332,17.332,0,0,1,8.146-1.9,16.263,16.263,0,0,1,7.421,1.742,14.692,14.692,0,0,1,5.654,5.011,12.012,12.012,0,0,1,1.876,4.18,23.392,23.392,0,0,1,.43,4.769,2.951,2.951,0,0,1-.59,1.876,1.99,1.99,0,0,1-1.66.75H189.312a5.749,5.749,0,0,0,2.947,4.073,10.471,10.471,0,0,0,5.09,1.286,9.776,9.776,0,0,0,3.75-.643,8.958,8.958,0,0,0,2.786-1.823,2.071,2.071,0,0,1,1.286-.59,1.73,1.73,0,0,1,.964.32l3.483,2.036a1.384,1.384,0,0,1,.857,1.18,1.84,1.84,0,0,1-.43,1.017,16.252,16.252,0,0,1-12.7,5.52A18.326,18.326,0,0,1,190,122.9Zm1.9-20.525a5.7,5.7,0,0,0-2.385,4.019h14.736a5.772,5.772,0,0,0-1.073-2.733,6.894,6.894,0,0,0-2.413-2.09,7.262,7.262,0,0,0-3.483-.8,8.654,8.654,0,0,0-5.385,1.607Z" transform="translate(76.27 -82.493)" fill="aqua"/>
    </g>
  </g>
</svg>
