<svg xmlns="http://www.w3.org/2000/svg" width="43.426" height="29.51" viewBox="0 0 43.426 29.51">
  <g id="Layer_1" data-name="Layer 1" transform="translate(0.007 -0.002)">
    <g id="Group_91" data-name="Group 91" transform="translate(-0.008 0.002)">
      <path id="Path_78" data-name="Path 78" d="M180.948,7.117a6.534,6.534,0,0,0-1.159-3.69A8.729,8.729,0,0,0,174.418.074,1.117,1.117,0,0,0,173.11.45c-1.987,2.4-4.019,4.764-6.037,7.141-.133.156-.265.311-.4.467l4.62,5.4c.6-.7,1.218-1.419,1.88-2.188l.035-.039c.068-.08.137-.16.207-.241v7.672c-.081-.078-.151-.144-.21-.2a2.132,2.132,0,0,1-.212-.217q-.452-.549-.9-1.1c-.542-.661-1.08-1.325-1.607-1.994a.819.819,0,0,1-.068-.1l-4.869-5.693,0,.005q-.612-.717-1.222-1.426c-1.685-1.97-3.346-3.912-5.039-5.889-1.714,2-3.388,3.942-5.074,5.9l4.583,5.4c.153-.177.308-.358.465-.544.208.229.368.4.517.571q2.92,3.427,5.841,6.852,3.764,4.417,7.517,8.841a1.1,1.1,0,0,0,1.3.377,8.806,8.806,0,0,0,5.291-3.256,6.583,6.583,0,0,0,1.226-3.8q.092-7.639,0-15.278Z" transform="translate(-137.567 -0.011)" fill="#1bfef4"/>
      <path id="Path_79" data-name="Path 79" d="M26.57,21.777c-1.575,1.885-3.184,3.749-4.852,5.7L18.2,23.312C14.686,19.155,11.171,15,7.6,10.775h0v7.7h0c.728-.851,1.36-1.586,2.039-2.376.147.144.263.245.36.358,1.326,1.55,2.644,3.107,3.985,4.647.239.274.263.455.017.742q-3.139,3.659-6.23,7.347a1.082,1.082,0,0,1-.172.166,0,0,0,0,1,0,0l-.028.021a1.044,1.044,0,0,1-.871.08,8.621,8.621,0,0,1-5.561-3.472,6.623,6.623,0,0,1-1.1-3.617Q-.051,14.73.04,7.091A6.512,6.512,0,0,1,1.286,3.3,8.856,8.856,0,0,1,6.59.057,1.052,1.052,0,0,1,7.6.216a1.66,1.66,0,0,1,.219.22C10.2,3.268,12.615,6.081,15.02,8.9c.106.124.214.246.4.455l5.257,6.195c.317.382.659.769,1.025,1.2l.594-.641c.571.677,1.106,1.316,1.649,1.952.868,1.018,1.755,2.023,2.592,3.056a.627.627,0,0,1,.035.659Z" transform="translate(0.008 -0.002)" fill="#1bfef4"/>
      <line id="Line_47" data-name="Line 47" x2="3.517" y2="4.16" transform="translate(18.208 23.31)" fill="#1bfef4"/>
      <line id="Line_48" data-name="Line 48" x1="1.109" y1="1.316" transform="translate(34.527 17.134)" fill="#1bfef4"/>
    </g>
  </g>
</svg>
