<svg id="Group_183" data-name="Group 183" xmlns="http://www.w3.org/2000/svg" width="43.426" height="31.255" viewBox="0 0 43.426 31.255">
  <path id="Path_80" data-name="Path 80" d="M579.4,7.534a7.2,7.2,0,0,0-1.16-3.909A8.69,8.69,0,0,0,572.867.074a1.08,1.08,0,0,0-1.307.4c-1.987,2.537-4.019,5.047-6.036,7.563-.133.165-.265.329-.4.495l4.619,5.721c.6-.745,1.219-1.5,1.88-2.317l.035-.041c.068-.085.137-.17.207-.256v8.126c-.081-.083-.151-.153-.211-.214a2.318,2.318,0,0,1-.212-.229q-.452-.582-.9-1.163c-.541-.7-1.08-1.4-1.607-2.112a.813.813,0,0,1-.068-.111L564,9.9l0,.006c-.407-.506-.816-1.009-1.221-1.511-1.685-2.086-3.346-4.143-5.039-6.238-1.714,2.113-3.388,4.175-5.075,6.253l4.583,5.723c.154-.187.307-.378.466-.576.208.243.368.42.517.6l5.841,7.258q3.763,4.678,7.516,9.364a1.067,1.067,0,0,0,1.3.4,8.758,8.758,0,0,0,5.291-3.449,7.252,7.252,0,0,0,1.226-4.021q.093-8.09,0-16.181Z" transform="translate(-536.017 -0.008)" fill="#1bfef4"/>
  <path id="Path_81" data-name="Path 81" d="M436.274,23.092c-1.574,2-3.184,3.97-4.852,6.033L427.9,24.718c-3.517-4.4-7.03-8.8-10.6-13.279h0v8.152h0c.729-.9,1.36-1.68,2.039-2.517.147.153.263.258.36.378,1.327,1.641,2.644,3.29,3.985,4.922a.515.515,0,0,1,.017.785q-3.14,3.877-6.23,7.781a1.121,1.121,0,0,1-.171.176,0,0,0,0,1,0,0l-.028.023a.993.993,0,0,1-.871.085,8.588,8.588,0,0,1-5.561-3.678,7.284,7.284,0,0,1-1.1-3.828q-.089-8.09,0-16.181a7.183,7.183,0,0,1,1.246-4.02,8.8,8.8,0,0,1,5.3-3.431A1,1,0,0,1,417.3.259a1.7,1.7,0,0,1,.219.233c2.382,3,4.794,5.979,7.2,8.965.106.132.214.26.4.482l5.256,6.561c.318.4.659.815,1.026,1.271.218-.249.374-.428.594-.679.57.717,1.106,1.395,1.648,2.068.867,1.078,1.754,2.142,2.593,3.236a.7.7,0,0,1,.035.7Z" transform="translate(-409.696 -0.029)" fill="#1bfef4"/>
  <line id="Line_49" data-name="Line 49" x2="3.517" y2="4.406" transform="translate(18.208 24.688)" fill="#1bfef4"/>
  <line id="Line_50" data-name="Line 50" x1="1.109" y1="1.394" transform="translate(34.527 18.146)" fill="#1bfef4"/>
</svg>
