<svg id="g15" xmlns="http://www.w3.org/2000/svg" xmlns:xlink="http://www.w3.org/1999/xlink" width="43.491" height="43.488" viewBox="0 0 43.491 43.488">
  <defs>
    <linearGradient id="linear-gradient" x1="0.113" y1="0.085" x2="0.769" y2="1.106" gradientUnits="objectBoundingBox">
      <stop offset="0" stop-color="#149c94"/>
      <stop offset="0.03" stop-color="#12a19a"/>
      <stop offset="0.22" stop-color="#0cc3be"/>
      <stop offset="0.42" stop-color="#06ddda"/>
      <stop offset="0.61" stop-color="#03f0ee"/>
      <stop offset="0.81" stop-color="#00fbfa"/>
      <stop offset="1" stop-color="aqua"/>
    </linearGradient>
    <linearGradient id="linear-gradient-2" x1="0.325" y1="-0.007" x2="0.742" y2="1.004" gradientUnits="objectBoundingBox">
      <stop offset="0" stop-color="#292927"/>
      <stop offset="0.04" stop-color="#2c2c2a"/>
      <stop offset="0.4" stop-color="#444442"/>
      <stop offset="0.73" stop-color="#525251"/>
      <stop offset="1" stop-color="#585857"/>
    </linearGradient>
    <linearGradient id="linear-gradient-3" x1="0.856" y1="1.023" x2="0.045" y2="0.099" gradientUnits="objectBoundingBox">
      <stop offset="0" stop-color="#149c94"/>
      <stop offset="0" stop-color="#12a19a"/>
      <stop offset="0.31" stop-color="#0cc3be"/>
      <stop offset="0.539" stop-color="#06ddda"/>
      <stop offset="0.729" stop-color="#03f0ee"/>
      <stop offset="0.929" stop-color="#00fbfa"/>
      <stop offset="1" stop-color="aqua"/>
    </linearGradient>
    <linearGradient id="linear-gradient-4" x1="0.766" y1="0.993" x2="0.308" y2="-0.003" xlink:href="#linear-gradient-2"/>
  </defs>
  <path id="path12" d="M103.784,46.3l-1.4,1.394a2.114,2.114,0,0,1-2.991,0l-1.779-1.779,0,0a9.15,9.15,0,0,1-12.6-.041c-.051-.049-.1-.1-.15-.148l-9.52-9.52-3.073-3.073-.148-.15a9.15,9.15,0,0,1-.04-12.6l.188-.193,2.7-2.7L77.866,14.6l3.211,3.211L78.186,20.7l-1.051,1.051c-.142.142-.277.289-.4.441a6.686,6.686,0,0,0-1.069,1.766,6.754,6.754,0,0,0,1.473,7.354l1.553,1.553,3.224,3.223,3.222,3.223,1.438,1.437a6.751,6.751,0,0,0,9.559,0l1.051-1.05,6.6,6.6Z" transform="translate(-69.595 -4.92)" fill="url(#linear-gradient)"/>
  <path id="path13" d="M115.432,28.01c-.064.07-.13.138-.2.2l-5.766,5.766L106.183,30.7l-.042-.042,4.325-4.326a6.756,6.756,0,0,0,0-9.559l-1.437-1.438-3.223-3.222-3.223-3.224-1.553-1.553a6.75,6.75,0,0,0-9.126-.4c-.149.124-.293.257-.433.4l-4.326,4.326L83.936,8.448,89.7,2.681l.1-.1q.05-.048.1-.1a9.144,9.144,0,0,1,12.586.049c.051.049.1.1.15.148l12.594,12.594.148.15a9.148,9.148,0,0,1,.05,12.585Z" transform="translate(-74.427 0)" fill="url(#linear-gradient-2)"/>
  <path id="path14" d="M108,46.552l-1.394,1.4-6.6-6.6L98.958,42.4a6.749,6.749,0,0,1-9.559,0l-1.438-1.437-3.222-3.223-3.224-3.223-1.553-1.553a6.752,6.752,0,0,1-.4-9.119l1.473-1.473,2.891-2.891,3.092,3.092L84.123,25.46l0,0a4.219,4.219,0,0,0,.091,5.872L87.679,34.8,90.9,38.019l.218.218a4.217,4.217,0,0,0,5.872.091l.023.024,2.891-2.891,2.994,2.994.042.042,3.285,3.285L108,43.561a2.114,2.114,0,0,1,0,2.991Z" transform="translate(-72.421 -6.563)" fill="url(#linear-gradient-3)"/>
  <path id="path15" d="M113.452,27.117a6.738,6.738,0,0,1-1.353,1.931l-4.325,4.326-3.015-3.015,2.984-2.985a4.219,4.219,0,0,0,0-5.966l-.218-.218L104.3,17.966l-3.223-3.223-.239-.24-.077-.076a4.218,4.218,0,0,0-5.888.076L91.89,17.489h0l-3.107-3.117,4.664-4.659A7.554,7.554,0,0,1,95.036,8.7a6.752,6.752,0,0,1,7.628,1.352l1.553,1.553,3.239,3.216q2.314,2.345,4.666,4.652a6.875,6.875,0,0,1,1.329,7.643Z" transform="translate(-76.06 -2.72)" fill="url(#linear-gradient-4)"/>
</svg>
