<svg xmlns="http://www.w3.org/2000/svg" width="46.228" height="35.094" viewBox="0 0 46.228 35.094">
  <g id="Group_84" data-name="Group 84" transform="translate(-397.216 -0.014)">
    <path id="Path_64" data-name="Path 64" d="M658.9,4.076,651.9,13.358l-.036.046c-1.084,1.405-2.066,2.663-3.007,3.946a.2.2,0,0,0-.03.078.964.964,0,0,0,.178.59c.561.8,1.134,1.585,1.711,2.372l-2.063-2.732L642.44,9.435q.648.845,1.3,1.7c.561-.726,1.1-1.411,1.626-2.1,2.149-2.826,4.312-5.643,6.427-8.492a1.117,1.117,0,0,1,1.391-.447A9.248,9.248,0,0,1,658.9,4.076Z" transform="translate(-216.741 0)" fill="#1bfef4"/>
    <path id="Path_65" data-name="Path 65" d="M473.755,171.593q-3.342,4.352-6.632,8.738a1.169,1.169,0,0,1-.182.2V167.586c.776-1.012,1.447-1.886,2.17-2.826.154.171.28.29.383.425,1.412,1.843,2.814,3.695,4.243,5.526a.6.6,0,0,1,.019.882Z" transform="translate(-61.625 -145.611)" fill="#1bfef4"/>
    <path id="Path_66" data-name="Path 66" d="M425.507,25.914c-1.676,2.242-3.389,4.458-5.165,6.774L416.6,27.74c-3.742-4.945-7.484-9.887-11.283-14.91h0v9.153h0V34.925s0,0,0,0l-.03.026a1.008,1.008,0,0,1-.927.1,9.138,9.138,0,0,1-5.92-4.129,8.514,8.514,0,0,1-1.172-4.3q-.094-9.084,0-18.169a8.355,8.355,0,0,1,1.326-4.514A9.354,9.354,0,0,1,404.239.085a1.028,1.028,0,0,1,1.077.189,1.966,1.966,0,0,1,.233.261c2.536,3.368,5.1,6.713,7.664,10.067.113.148.228.292.424.541l5.6,7.367c.338.454.7.915,1.092,1.427.233-.28.4-.481.632-.762.607.8,1.178,1.566,1.755,2.322.923,1.21,1.868,2.405,2.76,3.634a.821.821,0,0,1,.037.784Z" transform="translate(0 -0.005)" fill="#1bfef4"/>
    <path id="Path_67" data-name="Path 67" d="M576.891,49.537a9.307,9.307,0,0,1-5.632,3.874,1.107,1.107,0,0,1-1.383-.448q-3.992-5.263-8-10.515-3.108-4.075-6.219-8.149c-.159-.207-.329-.405-.551-.678-.167.222-.332.436-.495.647l-4.881-6.425,5.4-7.021c1.8,2.352,3.57,4.661,5.364,7l6.208,8.223,2.063,2.732q.476.655.957,1.307a2.358,2.358,0,0,0,.224.258l6.94,9.193Z" transform="translate(-134.799 -18.389)" fill="#1bfef4"/>
    <line id="Line_43" data-name="Line 43" x2="3.744" y2="4.948" transform="translate(416.599 27.735)" fill="#1bfef4"/>
    <path id="Path_68" data-name="Path 68" d="M699.138,114.9l-.036.046-3.037,4.023-.174.23" transform="translate(-263.983 -101.542)" fill="#1bfef4"/>
    <path id="Path_69" data-name="Path 69" d="M732.064,57.537a8.456,8.456,0,0,1-1.3,4.515l-6.94-9.193c.064.07.139.148.224.242V43.976l-.221.287,7.008-9.283a8.42,8.42,0,0,1,1.234,4.388q.092,9.084,0,18.169Z" transform="translate(-288.669 -30.904)" fill="#1bfef4"/>
    <line id="Line_44" data-name="Line 44" x1="1.181" y1="1.565" transform="translate(433.97 20.39)" fill="#1bfef4"/>
  </g>
</svg>
