<svg width="0" height="0" class="hidden">
  <symbol id="mongodb-fill" xmlns="http://www.w3.org/2000/svg" viewBox="0 0 256 256">
    <circle id="Ellipse_1" cx="128" cy="128" r="128" fill="#8892b0"></circle>
    <path id="Path_45" d="M445.755,266.072c-8.08-35.66-27.176-47.385-29.232-51.865A54.21,54.21,0,0,1,412,205.425c-.038-.095-.1-.262-.167-.425-.232,3.161-.352,4.38-3.34,7.568-4.627,3.618-28.367,23.538-30.3,64.053-1.8,37.786,27.3,60.3,31.231,63.173l.447.317v-.027c.025.19,1.249,8.994,2.109,18.324h3.083a181.542,181.542,0,0,1,3.248-19.62l.25-.162a51.089,51.089,0,0,0,5.024-4.11l.18-.162a72.49,72.49,0,0,0,23.256-54.1,86.716,86.716,0,0,0-1.262-14.181Zm-34.106,52.387s0-53,1.749-52.987c1.364,0,3.131,68.36,3.131,68.36C414.1,333.54,411.648,322.582,411.648,318.459Z" transform="translate(-283.641 -153.782)" fill="#06071c"></path>
  </symbol>
  <symbol xmlns="http://www.w3.org/2000/svg" viewBox="0 0 349.9 242.521" id="mysql-fill">
    <g id="mysql-logo-svgrepo-com" transform="translate(18.458 -6.58)">
      <path id="Path_58" d="M-18.458,6.58h349.9V249.1h-349.9Z" fill="none"></path>
      <path id="Path_59" d="M66.832,139.261H57.36q-.5-23.984-2.766-45.107h-.084L40.087,139.261H32.875L18.538,94.154h-.082q-1.6,20.285-2.012,45.107H7.81q.835-30.184,4.19-56.6H23.741l13.665,41.587h.084L51.238,82.664H62.472q3.69,30.939,4.36,56.6M107.914,97.5q-5.785,31.395-15.261,45.63Q85.273,154.1,76.472,154.1a15.905,15.905,0,0,1-5.784-1.409v-5.047a27.86,27.86,0,0,0,3.939.253,9.521,9.521,0,0,0,6.626-2.266,8.267,8.267,0,0,0,3.015-6.2q0-2.356-2.347-9.643L71.526,97.5h9.306l7.461,24.144q2.515,8.223,2.1,11.49A157.712,157.712,0,0,0,98.943,97.5h8.971v0Z" transform="translate(21.815 63.187)" fill="#8892b0"></path>
      <path id="Path_60" d="M185.889,139.643H158.98v-56.6h9.052v49.63h17.856Zm-33.952,1.367-10.4-5.135a19.335,19.335,0,0,0,2.6-2.528q6.634-7.792,6.628-23.053,0-28.086-22.048-28.091-10.813,0-16.853,7.13-6.628,7.8-6.625,22.974,0,14.923,5.867,21.876,5.368,6.29,16.187,6.293a26.08,26.08,0,0,0,7.41-.994l13.546,7.886Zm-33.7-12.693q-3.438-5.53-3.438-17.769,0-21.376,13-21.384,6.8,0,9.974,5.111,3.432,5.538,3.439,17.607,0,21.551-12.995,21.552-6.8,0-9.978-5.118m-16.943-4.362a15.015,15.015,0,0,1-5.279,11.821q-5.283,4.607-14.162,4.611a28.362,28.362,0,0,1-16.1-5.286l2.433-4.86a27.537,27.537,0,0,0,12.151,3.352q5.115,0,8.008-2.255a7.688,7.688,0,0,0,3.083-6.284c0-3.363-2.345-6.236-6.646-8.644-3.967-2.178-11.9-6.733-11.9-6.733-4.3-3.134-6.452-6.5-6.452-12.041a14.06,14.06,0,0,1,4.818-11.107q4.824-4.242,12.453-4.238a25.819,25.819,0,0,1,14.331,4.194l-2.182,4.862A27.709,27.709,0,0,0,84.952,89c-2.9,0-5.142.7-6.7,2.1a7.012,7.012,0,0,0-2.539,5.369c0,3.346,2.394,6.257,6.813,8.711C86.546,107.362,94.677,112,94.677,112c4.41,3.128,6.612,6.462,6.612,11.96" transform="translate(69.934 62.805)" fill="#8892b0"></path>
      <path id="Path_61" d="M179.605,106.941c-5.473-.139-9.711.412-13.267,1.917-1.027.41-2.66.41-2.8,1.708.555.549.619,1.435,1.1,2.193a15.889,15.889,0,0,0,3.555,4.166c1.433,1.1,2.872,2.186,4.38,3.143,2.66,1.646,5.675,2.6,8.267,4.243,1.51.954,3.011,2.187,4.523,3.214.743.547,1.219,1.435,2.184,1.777v-.209c-.483-.615-.621-1.5-1.095-2.189l-2.054-1.981a32.546,32.546,0,0,0-7.11-6.9c-2.189-1.508-6.978-3.558-7.866-6.081l-.139-.139A27.241,27.241,0,0,0,174,110.7c2.327-.613,4.448-.474,6.835-1.087,1.1-.275,2.187-.619,3.289-.957v-.617c-1.237-1.232-2.12-2.868-3.421-4.033a91.048,91.048,0,0,0-11.283-8.411c-2.123-1.371-4.854-2.253-7.115-3.419-.815-.412-2.187-.615-2.667-1.3a27.86,27.86,0,0,1-2.806-5.266c-1.977-3.758-3.9-7.928-5.6-11.9-1.234-2.665-1.984-5.327-3.489-7.792-7.047-11.624-14.7-18.664-26.463-25.574-2.528-1.439-5.535-2.052-8.748-2.806L107.4,37.26c-1.095-.48-2.191-1.781-3.147-2.4-3.9-2.46-13.95-7.792-16.82-.752-1.849,4.45,2.735,8.825,4.309,11.082a31.431,31.431,0,0,1,3.482,5.129c.481,1.162.617,2.4,1.1,3.624a81.911,81.911,0,0,0,3.557,9.165,32.63,32.63,0,0,0,2.528,4.232c.549.758,1.5,1.093,1.713,2.328-.954,1.362-1.029,3.418-1.576,5.127-2.46,7.726-1.5,17.3,1.988,22.976,1.091,1.71,3.694,5.473,7.176,4.031,3.083-1.23,2.4-5.127,3.286-8.545.2-.826.07-1.367.48-1.909v.134c.954,1.913,1.917,3.756,2.8,5.675a38.99,38.99,0,0,0,8.893,9.156c1.638,1.237,2.936,3.353,4.988,4.109v-.205h-.135a7.661,7.661,0,0,0-1.569-1.364,33.2,33.2,0,0,1-3.557-4.1,88.08,88.08,0,0,1-7.655-12.449c-1.1-2.123-2.052-4.444-2.94-6.564-.414-.818-.414-2.052-1.1-2.464-1.029,1.5-2.528,2.8-3.278,4.646-1.3,2.945-1.437,6.568-1.92,10.335l-.269.132c-2.178-.547-2.936-2.8-3.763-4.714-2.048-4.858-2.392-12.656-.615-18.261.476-1.433,2.535-5.947,1.713-7.313-.412-1.309-1.781-2.054-2.532-3.084a27.8,27.8,0,0,1-2.464-4.375c-1.64-3.828-2.466-8.069-4.232-11.895a36.838,36.838,0,0,0-3.419-5.27c-1.3-1.845-2.737-3.145-3.767-5.332-.34-.752-.818-1.982-.271-2.8a1.089,1.089,0,0,1,.957-.891c.886-.749,3.418.2,4.305.615a34.647,34.647,0,0,1,6.771,3.418c.957.686,1.984,1.986,3.213,2.328h1.439c2.184.476,4.646.132,6.7.751a44.021,44.021,0,0,1,9.848,4.715,60.675,60.675,0,0,1,21.329,23.39c.818,1.571,1.166,3.009,1.913,4.648,1.441,3.353,3.222,6.773,4.651,10.055,1.437,3.213,2.806,6.493,4.858,9.162,1.023,1.435,5.135,2.187,6.978,2.94a48.239,48.239,0,0,1,4.717,1.911c2.327,1.433,4.644,3.079,6.831,4.655,1.089.82,4.512,2.53,4.715,3.9M109.853,47.516a10.653,10.653,0,0,0-2.8.344V48h.132a22.311,22.311,0,0,0,2.191,2.8c.551,1.1,1.029,2.184,1.569,3.278l.132-.135a3.843,3.843,0,0,0,1.444-3.419,15.631,15.631,0,0,1-.826-1.435c-.4-.685-1.291-1.025-1.843-1.574" transform="translate(87.581 19.953)" fill="#8892b0"></path>
      <path id="Path_62" d="M147.254,116.725h1.417v-6.934h-2.125l-1.733,4.732-1.884-4.732h-2.046v6.934h1.338v-5.275h.075l1.973,5.275h1.02l1.966-5.275v5.275Zm-11.413,0h1.5v-5.759H139.3v-1.177H133.8v1.177h2.041l0,5.759Z" transform="translate(126.445 85.714)" fill="#8892b0"></path>
    </g>
  </symbol>
  <symbol id="nodejs-fill" xmlns="http://www.w3.org/2000/svg" viewBox="0 0 256 288.464">
    <path id="Path_26" d="M128,288.464a23.239,23.239,0,0,1-11.13-2.915L81.623,264.613c-5.3-2.915-2.65-3.975-1.06-4.505,7.155-2.385,8.48-2.915,15.9-7.156a2.438,2.438,0,0,1,2.65.265l27.031,16.166a3.368,3.368,0,0,0,3.18,0l105.739-61.217a3.044,3.044,0,0,0,1.59-2.915V83.081a3.045,3.045,0,0,0-1.59-2.915L129.325,19.213a3.367,3.367,0,0,0-3.18,0L20.406,80.166a3.325,3.325,0,0,0-1.59,2.915v122.17a3.325,3.325,0,0,0,1.59,2.915l28.886,16.695c15.636,7.951,25.441-1.325,25.441-10.6V93.681a3.223,3.223,0,0,1,3.18-3.18H91.429a3.223,3.223,0,0,1,3.18,3.18v120.58c0,20.936-11.4,33.126-31.271,33.126-6.1,0-10.866,0-24.381-6.625l-27.826-15.9A22.365,22.365,0,0,1,0,205.516V83.346A22.366,22.366,0,0,1,11.13,64L116.87,2.783a23.65,23.65,0,0,1,22.26,0L244.87,64A22.366,22.366,0,0,1,256,83.346v122.17a22.365,22.365,0,0,1-11.13,19.345L139.13,286.079A27.123,27.123,0,0,1,128,288.464Zm32.6-84.009c-46.377,0-55.917-21.2-55.917-39.221a3.222,3.222,0,0,1,3.18-3.18H121.64a2.724,2.724,0,0,1,2.915,2.65c2.12,14.045,8.215,20.936,36.306,20.936,22.261,0,31.8-5.035,31.8-16.961,0-6.89-2.651-11.925-37.367-15.371-28.886-2.915-46.907-9.275-46.907-32.331,0-21.466,18.021-34.186,48.232-34.186,33.921,0,50.617,11.66,52.737,37.1a4.274,4.274,0,0,1-.795,2.385,3.271,3.271,0,0,1-2.12,1.06h-13.78a3.105,3.105,0,0,1-2.916-2.385c-3.18-14.575-11.395-19.345-33.126-19.345-24.381,0-27.3,8.48-27.3,14.84,0,7.686,3.445,10.071,36.306,14.311,32.6,4.24,47.967,10.335,47.967,33.126-.265,23.321-19.345,36.571-53,36.571Z" fill="#8892b0"></path>
  </symbol>
  <symbol id="php-fill" xmlns="http://www.w3.org/2000/svg" viewBox="0 0 256 134.6">
    <ellipse id="Ellipse_2" cx="128" cy="67.3" rx="128" ry="67.3" transform="translate(0 0)" fill="#8892b0"></ellipse>
    <g id="Group_36" transform="translate(39 19.6)">
      <path id="Path_55" d="M74.8,48.2c5.6,0,9.3,1,11.2,3.1s2.3,5.6,1.3,10.6c-1,5.2-3,9-5.9,11.2s-7.3,3.3-13.2,3.3H59.3l5.5-28.2ZM39,105H53.7l3.5-17.9H69.8a43.729,43.729,0,0,0,13.7-1.8,26.263,26.263,0,0,0,9.8-5.9,30.009,30.009,0,0,0,6-7.5,29.177,29.177,0,0,0,3.2-9c1.6-8,.4-14.2-3.5-18.7s-10.1-6.7-18.6-6.7H52.1Z" transform="translate(-39 -19.6)" fill="#06071c"></path>
      <path id="Path_56" d="M113.3,19.6h14.6l-3.5,17.9h13c8.2,0,13.8,1.4,16.9,4.3s4,7.5,2.8,13.9L151,87.1H136.2L142,57.2c.7-3.4.4-5.7-.7-6.9s-3.6-1.9-7.3-1.9H122.3l-7.5,38.7H100.2Z" transform="translate(-39 -19.6)" fill="#06071c"></path>
      <path id="Path_57" d="M189.5,48.2c5.6,0,9.3,1,11.2,3.1s2.3,5.6,1.3,10.6c-1,5.2-3,9-5.9,11.2s-7.3,3.3-13.2,3.3H174l5.5-28.2ZM153.7,105h14.7l3.5-17.9h12.6a43.728,43.728,0,0,0,13.7-1.8,26.264,26.264,0,0,0,9.8-5.9,30.008,30.008,0,0,0,6-7.5,29.176,29.176,0,0,0,3.2-9c1.6-8,.4-14.2-3.5-18.7s-10.1-6.7-18.6-6.7H166.8Z" transform="translate(-39 -19.6)" fill="#06071c"></path>
    </g>
  </symbol>
  <symbol xmlns="http://www.w3.org/2000/svg" viewBox="0 0 244.246 256" id="sql-fill">
    <path id="sql-database-sql-azure-svgrepo-com" d="M9.712,729.816A37.887,37.887,0,0,1-17.194,708.5a34.26,34.26,0,0,1-3.086-15.116c.044-16.617,10.493-30.493,26.726-35.5,2.99-.921,4.964-1.165,9.549-1.177a60.774,60.774,0,0,1,7.79.374l2.01.39,2.474-4.8a51.409,51.409,0,0,1,23.105-22.615c8.4-4.206,13.674-5.429,23.421-5.429,6.827,0,8.411.164,12.816,1.332a53.789,53.789,0,0,1,38.513,38.779c1.168,4.71,1.751,15.271,1.072,19.414l-.464,2.829,2.664.6a22.622,22.622,0,0,1,15.384,12.454,21.759,21.759,0,0,1-1.335,20.166,24,24,0,0,1-8.716,7.828c-1.59.761-3.284,1.59-3.764,1.842-1.078.566-118.4.515-121.253-.052Zm121.969-6.944a17.727,17.727,0,0,0,7.922-8.905,15.584,15.584,0,0,0-8.432-19.453c-1.892-.842-3.3-1.037-7.25-1-2.7.026-4.9-.144-4.9-.378s.5-2.421,1.113-4.861A53.085,53.085,0,0,0,120.1,666a47.867,47.867,0,0,0-24.949-30.79,40.635,40.635,0,0,0-17.7-4.26c-10.474-.427-17.786,1.223-25.844,5.833-9.4,5.376-17.5,15.118-20.635,24.82-.6,1.866-1.336,3.39-1.627,3.386a30.8,30.8,0,0,1-3.8-1.082c-5-1.645-13.523-1.545-18.512.217a30.961,30.961,0,0,0-12.4,7.8,30.129,30.129,0,0,0-8.776,21.466A30.558,30.558,0,0,0,3.423,721.348c6.254,2.974,4.09,2.885,67.6,2.786l58.3-.091,2.357-1.172Zm-168.206-23.5c-21.091-2.858-37.325-8.154-49.333-16.094-4.955-3.276-8.376-6.94-10.3-11.037l-1.437-3.052.132-82.636.132-82.636,1.2-2.251c3.033-5.691,8.947-10.547,18.363-15.078,11.905-5.729,25.635-9.31,44.766-11.678,7.879-.975,34.633-.8,42.719.275,29.775,3.97,52.88,13.7,60.246,25.365,2.9,4.6,2.827,2.931,2.827,63.005v55.155l-1.633.253c-.9.139-2.933.392-4.522.561-16.4,1.751-33.4,13.086-42.116,28.076l-1.785,3.069-7.01.331c-8.283.391-12.5,1.452-18.8,4.727a42.665,42.665,0,0,0-21.693,27.358,37.286,37.286,0,0,0-1.145,10.68l-.037,6.408-2.777-.059c-1.527-.033-5.038-.366-7.8-.74ZM6.352,623.2c-3.956-3.357-7.378-6.267-7.6-6.466s.6-.952,1.826-1.673a23.806,23.806,0,0,0,7.731-8.421,26.6,26.6,0,0,0-.212-23.685c-4.151-7.973-12.838-12.156-22.679-10.92-5.389.677-8.765,2.188-12.325,5.519-5.62,5.257-7.566,10.415-7.27,19.267.168,5.033.347,5.938,1.787,8.993,3.1,6.575,9.575,11.489,16.174,12.271,2.482.294,2.7.457,7.631,5.761l5.077,5.459H13.544l-7.193-6.1Zm-21.522-17.14c-3.456-1.754-4.769-4.758-4.769-10.918,0-4.008.194-5.178,1.179-7.182a8.017,8.017,0,0,1,7.8-4.776c3.032.342,4.608,1.568,6.211,4.833,1.217,2.478,1.393,3.417,1.378,7.363,0,4.868-.879,7.364-3.327,9.641-2.558,2.379-5.193,2.7-8.473,1.039ZM-49.947,617.73c9.088-2.1,14.024-9.707,11.407-17.587-1.318-3.968-4.1-6.446-10.905-9.7a40.146,40.146,0,0,1-6.243-3.418c-1.144-1.47-1.141-2.443,0-3.78,1.77-2.058,5.8-2.156,11.255-.275l4.162,1.435-.143-5.554-.143-5.554-2.764-.657c-4.18-.994-13.215-.945-16.77.09-7.128,2.076-10.884,6.735-10.86,13.47.037,6.932,3.147,10.218,14.144,14.884,4.653,1.974,5.185,5.664,1.027,7.108-1.925.668-2.473.656-5.518-.131a35.963,35.963,0,0,1-6.271-2.372l-2.89-1.5v12.026l2.89.8c1.589.443,3.116.883,3.392.979,1.149.4,12.228.192,14.219-.268Zm97.1-5.258V607.2H31.072V572.518H18v45.232H47.154v-5.277Zm-38.7-90.483c13.105-1.519,23.86-4.266,30.657-7.831,4.466-2.342,5.537-3.186,7.253-5.715,5.308-7.823-6.578-15.688-29.618-19.6C-4.9,485.171-33.423,486-51.68,490.838c-37.67,9.978-22.82,28.308,25.862,31.922a253.812,253.812,0,0,0,34.274-.771Z" transform="translate(97.599 -474.268)" fill="#8892b0"></path>
  </symbol>
  <symbol id="typescript-fill" xmlns="http://www.w3.org/2000/svg" viewBox="0 0 256 256">
    <path id="Path_50" d="M0-128V0H256V-256H0Z" transform="translate(0 256)" fill="#8892b0"></path>
    <path id="Path_51" d="M146.658,223.437l.081-10.484h-33.32V118.274H89.851v94.679H56.53v10.281a100.756,100.756,0,0,0,.284,10.565c.122.162,20.4.244,44.983.2l44.739-.122Z" transform="translate(203.269 352.286) rotate(180)" fill="#06071c"></path>
    <path id="Path_52" d="M206.567-234.272a31.862,31.862,0,0,1,16.01,9.224c2.357,2.519,5.851,7.111,6.136,8.208.081.325-11.053,7.8-17.8,11.988-.244.162-1.219-.894-2.317-2.52-3.291-4.8-6.745-6.867-12.028-7.233-7.761-.528-12.759,3.535-12.718,10.321a9.381,9.381,0,0,0,1.1,4.795c1.707,3.536,4.876,5.649,14.832,9.956,18.326,7.883,26.168,13.084,31.045,20.48,5.445,8.249,6.664,21.415,2.966,31.208-4.063,10.646-14.141,17.879-28.323,20.276-4.388.772-14.791.651-19.5-.2-10.281-1.828-20.033-6.908-26.047-13.572-2.357-2.6-6.949-9.387-6.664-9.874a19.076,19.076,0,0,1,2.356-1.5c1.138-.65,5.446-3.129,9.509-5.485l7.355-4.267,1.544,2.275c2.154,3.292,6.867,7.8,9.712,9.306,8.167,4.307,19.383,3.7,24.909-1.26a9.421,9.421,0,0,0,3.332-7.68,9.378,9.378,0,0,0-1.91-6.5c-1.991-2.845-6.054-5.242-17.6-10.24-13.206-5.689-18.9-9.224-24.1-14.832a33.754,33.754,0,0,1-7.03-12.8c-.975-3.617-1.219-12.678-.447-16.335,2.723-12.76,12.353-21.659,26.25-24.3C191.654-235.694,202.137-235.369,206.567-234.272Z" transform="translate(0 352.38)" fill="#06071c"></path>
  </symbol>
  <symbol xmlns="http://www.w3.org/2000/svg" viewBox="0 0 301.475 240.157" id="bootstrap-fill">
    <path id="bootstrap-fill-svgrepo-com" d="M62.617,2c-17.2,0-29.93,15.056-29.361,31.384.547,15.687-.164,36-5.278,52.572C22.848,102.572,14.172,113.1,0,114.45v15.257c14.172,1.352,22.848,11.878,27.978,28.5,5.115,16.567,5.825,36.884,5.278,52.571-.57,16.326,12.159,31.384,29.363,31.384H238.88c17.2,0,29.929-15.055,29.359-31.384-.546-15.687.163-36,5.278-52.571,5.133-16.618,13.786-27.144,27.958-28.5V114.45c-14.172-1.352-22.825-11.878-27.958-28.495-5.115-16.566-5.825-36.885-5.278-52.572C268.809,17.058,256.083,2,238.88,2H62.617ZM204.39,149.832c0,22.484-16.771,36.119-44.6,36.119H112.414a5.111,5.111,0,0,1-5.11-5.11V63.317a5.11,5.11,0,0,1,5.11-5.11h47.1c23.2,0,38.434,12.57,38.434,31.869,0,13.546-10.244,25.674-23.3,27.8v.708C192.425,120.531,204.39,132.835,204.39,149.832ZM154.624,74.405H127.611V112.56h22.751c17.587,0,27.286-7.082,27.286-19.742C177.648,80.956,169.308,74.405,154.624,74.405ZM127.611,127.7v42.048h28.007c18.311,0,28.011-7.348,28.011-21.157S173.657,127.7,154.439,127.7H127.611Z" transform="translate(0 -2)" fill="#8892b0" fill-rule="evenodd"></path>
  </symbol>
  <symbol id="react-colored" xmlns="http://www.w3.org/2000/svg" viewBox="0 0 256 227.767">
    <path id="Path_25" d="M210.483,73.824q-3.982-1.371-8.241-2.6.7-2.851,1.274-5.621c6.238-30.281,2.159-54.676-11.769-62.708-13.355-7.7-35.2.329-57.254,19.525q-3.182,2.769-6.375,5.849-2.124-2.033-4.241-3.917C100.759,3.829,77.587-4.822,63.673,3.233,50.33,10.957,46.379,33.89,51.994,62.588q.813,4.158,1.893,8.481c-3.28.931-6.446,1.923-9.475,2.979C17.309,83.5,0,98.307,0,113.668c0,15.865,18.582,31.778,46.812,41.427q3.342,1.143,6.922,2.165-1.16,4.67-2.01,9.138c-5.354,28.2-1.173,50.591,12.134,58.266,13.745,7.926,36.812-.221,59.273-19.855q2.664-2.328,5.342-4.923,3.471,3.342,6.921,6.314c21.757,18.722,43.245,26.282,56.539,18.586,13.731-7.949,18.194-32,12.4-61.268q-.663-3.353-1.535-6.842,2.43-.718,4.76-1.488C236.9,145.465,256,129.745,256,113.668c0-15.417-17.868-30.326-45.517-39.844Zm-6.365,70.984q-2.1.694-4.3,1.345a256.553,256.553,0,0,0-12.963-32.432,256.471,256.471,0,0,0,12.459-31.957q3.929,1.137,7.61,2.4c23.689,8.155,38.14,20.213,38.14,29.5,0,9.9-15.606,22.743-40.946,31.14ZM193.6,165.642c2.562,12.941,2.927,24.641,1.231,33.787-1.525,8.219-4.591,13.7-8.383,15.893-8.067,4.669-25.32-1.4-43.927-17.412q-3.2-2.754-6.437-5.87a256.786,256.786,0,0,0,21.459-27.246,255.239,255.239,0,0,0,34.671-5.345q.783,3.16,1.386,6.193ZM87.276,214.515c-7.882,2.783-14.16,2.863-17.955.675-8.075-4.657-11.432-22.636-6.853-46.752q.787-4.143,1.868-8.5a257.23,257.23,0,0,0,34.5,4.994,266.272,266.272,0,0,0,21.976,27.15q-2.449,2.364-4.877,4.492c-9.933,8.682-19.886,14.842-28.658,17.94ZM50.349,144.747c-12.483-4.267-22.792-9.812-29.858-15.863-6.349-5.437-9.555-10.836-9.555-15.216,0-9.322,13.9-21.212,37.077-29.293,2.812-.981,5.757-1.9,8.812-2.773A262.146,262.146,0,0,0,69.3,113.934a266.445,266.445,0,0,0-12.634,32.792q-3.267-.94-6.319-1.979ZM62.727,60.488C57.916,35.9,61.111,17.353,69.152,12.7c8.564-4.958,27.5,2.111,47.463,19.835q1.914,1.7,3.841,3.545A262.032,262.032,0,0,0,98.648,63.066a267.278,267.278,0,0,0-34.161,5.309q-1-4.02-1.76-7.887ZM173.154,87.755q-3.8-6.563-7.785-12.8c8.168,1.033,15.994,2.4,23.343,4.081a233.545,233.545,0,0,1-8.193,22.044q-3.484-6.613-7.365-13.322ZM128.122,43.894A233.909,233.909,0,0,1,143.187,62.08q-7.511-.355-15.187-.359-7.595,0-15.07.353C117.9,55.515,123,49.422,128.122,43.894ZM82.8,87.831q-3.8,6.582-7.227,13.238c-3.185-7.553-5.909-14.98-8.135-22.152,7.3-1.634,15.093-2.971,23.209-3.984q-4.033,6.29-7.848,12.9Zm8.081,65.352A232.746,232.746,0,0,1,67.29,149.39c2.261-7.3,5.046-14.885,8.3-22.6q3.437,6.639,7.258,13.246h0q3.89,6.719,8.038,13.147Zm37.542,31.03c-5.184-5.592-10.354-11.779-15.4-18.433q7.353.288,14.978.291,7.827,0,15.453-.344a232.663,232.663,0,0,1-15.028,18.486Zm52.2-57.817a231.876,231.876,0,0,1,8.6,22.52,232,232,0,0,1-23.88,4.071q3.987-6.316,7.859-13.026,3.91-6.784,7.425-13.565Zm-16.9,8.1c-4,6.939-8.111,13.562-12.281,19.815-7.6.543-15.445.823-23.444.823-7.967,0-15.716-.248-23.178-.732-4.339-6.335-8.537-12.978-12.513-19.846h0c-3.966-6.85-7.616-13.758-10.923-20.627,3.306-6.884,6.947-13.8,10.89-20.637h0c3.953-6.856,8.114-13.467,12.413-19.761,7.613-.576,15.421-.876,23.311-.876h0c7.926,0,15.743.3,23.354.883,4.233,6.249,8.366,12.838,12.335,19.695,4.014,6.934,7.7,13.8,11.036,20.54-3.325,6.853-7,13.792-11,20.722Zm22.56-122.124c8.572,4.944,11.906,24.881,6.52,51.026q-.516,2.5-1.151,5.089a261.978,261.978,0,0,0-34.229-5.407,256.828,256.828,0,0,0-21.64-27.008q2.95-2.839,5.888-5.4c18.9-16.448,36.564-22.941,44.612-18.3ZM128,90.808a22.86,22.86,0,1,1-22.86,22.86A22.86,22.86,0,0,1,128,90.808Z" fill="#8892b0"></path>
  </symbol>
  <symbol id="gmail" xmlns="http://www.w3.org/2000/svg" viewBox="0 0 21 221"><text id="Qodemike_gmail.com" transform="translate(5 48) rotate(90)" fill="#8892b0" font-size="16" font-family="JetBrainsMono-Regular, JetBrains Mono">
      <tspan x="0" y="0">Qodemike@gmail.com</tspan>
    </text>
    <path id="envelope-solid" d="M2.606,64a2.606,2.606,0,0,0-1.564,4.691l11.815,8.861a1.743,1.743,0,0,0,2.085,0l11.815-8.861A2.606,2.606,0,0,0,25.194,64ZM0,70.081V81.375A3.478,3.478,0,0,0,3.475,84.85h20.85A3.478,3.478,0,0,0,27.8,81.375V70.081L15.985,78.942a3.47,3.47,0,0,1-4.17,0Z" transform="translate(85) rotate(90)" fill="#8892b0"></path>
  </symbol>
  <symbol id="php" xmlns="http://www.w3.org/2000/svg" xmlns:xlink="http://www.w3.org/1999/xlink" viewBox="0 0 256 134.6">
    <defs>
      <radialGradient id="radial-gradient" cx="0.3" cy="0.176" r="1.249" gradientTransform="translate(0.002) scale(0.526 1)" gradientUnits="objectBoundingBox">
        <stop offset="0" stop-color="#fff"></stop>
        <stop offset="0.5" stop-color="#4c6b97"></stop>
        <stop offset="1" stop-color="#231f20"></stop>
      </radialGradient>
    </defs>
    <ellipse id="Ellipse_2" cx="128" cy="67.3" rx="128" ry="67.3" transform="translate(0 0)" fill="url(#radial-gradient)"></ellipse>
    <ellipse id="Ellipse_3" cx="123" cy="62.3" rx="123" ry="62.3" transform="translate(5 5)" fill="#6181b6"></ellipse>
    <g id="Group_35" transform="translate(36.964 17.6)">
      <path id="Path_53" d="M152.9,87.5,159,56.1c1.4-7.1.2-12.4-3.4-15.7-3.5-3.2-9.5-4.8-18.3-4.8H126.7l3-15.6a2.09,2.09,0,0,0-.4-1.7,1.8,1.8,0,0,0-1.5-.7H113.2a2.043,2.043,0,0,0-2,1.6l-6.5,33.3a17.792,17.792,0,0,0-4.4-9.6c-4.3-4.9-11-7.4-20.1-7.4H52.1a2.043,2.043,0,0,0-2,1.6L37,104.7a2.09,2.09,0,0,0,.4,1.7,1.8,1.8,0,0,0,1.5.7H53.6a2.043,2.043,0,0,0,2-1.6l3.2-16.3H69.7A47.91,47.91,0,0,0,84,87.4a28.355,28.355,0,0,0,10.5-6.3,32.293,32.293,0,0,0,6.2-7.7L98.1,86.9a2.09,2.09,0,0,0,.4,1.7,1.8,1.8,0,0,0,1.5.7h14.6a2.043,2.043,0,0,0,2-1.6l7.2-37h10c4.3,0,5.5.8,5.9,1.2.3.3.9,1.5.2,5.2L134.1,87a2.09,2.09,0,0,0,.4,1.7,1.8,1.8,0,0,0,1.5.7h15A2.789,2.789,0,0,0,152.9,87.5Zm-67.6-26c-.9,4.7-2.6,8.1-5.1,10s-6.6,2.9-12,2.9H61.7l4.7-24.2h8.4c6.2,0,8.7,1.3,9.7,2.4C85.8,54.2,86.1,57.3,85.3,61.5Z" transform="translate(-36.964 -17.6)" fill="#fff"></path>
      <path id="Path_54" d="M215.3,42.9c-4.3-4.9-11-7.4-20.1-7.4H166.9a2.043,2.043,0,0,0-2,1.6l-13.1,67.5a2.09,2.09,0,0,0,.4,1.7,1.8,1.8,0,0,0,1.5.7h14.7a2.043,2.043,0,0,0,2-1.6l3.2-16.3h10.9a47.909,47.909,0,0,0,14.3-1.8A28.355,28.355,0,0,0,209.3,81a32.2,32.2,0,0,0,6.4-8,33.3,33.3,0,0,0,3.5-9.6C220.9,54.7,219.6,47.9,215.3,42.9ZM200,61.5c-.9,4.7-2.6,8.1-5.1,10s-6.6,2.9-12,2.9h-6.5l4.7-24.2h8.4c6.2,0,8.7,1.3,9.7,2.4C200.6,54.2,200.9,57.3,200,61.5Z" transform="translate(-36.964 -17.6)" fill="#fff"></path>
    </g>
    <g id="Group_36" transform="translate(39 19.6)">
      <path id="Path_55" d="M74.8,48.2c5.6,0,9.3,1,11.2,3.1s2.3,5.6,1.3,10.6c-1,5.2-3,9-5.9,11.2s-7.3,3.3-13.2,3.3H59.3l5.5-28.2ZM39,105H53.7l3.5-17.9H69.8a43.729,43.729,0,0,0,13.7-1.8,26.263,26.263,0,0,0,9.8-5.9,30.009,30.009,0,0,0,6-7.5,29.177,29.177,0,0,0,3.2-9c1.6-8,.4-14.2-3.5-18.7s-10.1-6.7-18.6-6.7H52.1Z" transform="translate(-39 -19.6)" fill="#000004"></path>
      <path id="Path_56" d="M113.3,19.6h14.6l-3.5,17.9h13c8.2,0,13.8,1.4,16.9,4.3s4,7.5,2.8,13.9L151,87.1H136.2L142,57.2c.7-3.4.4-5.7-.7-6.9s-3.6-1.9-7.3-1.9H122.3l-7.5,38.7H100.2Z" transform="translate(-39 -19.6)" fill="#000004"></path>
      <path id="Path_57" d="M189.5,48.2c5.6,0,9.3,1,11.2,3.1s2.3,5.6,1.3,10.6c-1,5.2-3,9-5.9,11.2s-7.3,3.3-13.2,3.3H174l5.5-28.2ZM153.7,105h14.7l3.5-17.9h12.6a43.728,43.728,0,0,0,13.7-1.8,26.264,26.264,0,0,0,9.8-5.9,30.008,30.008,0,0,0,6-7.5,29.176,29.176,0,0,0,3.2-9c1.6-8,.4-14.2-3.5-18.7s-10.1-6.7-18.6-6.7H166.8Z" transform="translate(-39 -19.6)" fill="#000004"></path>
    </g>
  </symbol>
  <symbol xmlns="http://www.w3.org/2000/svg" viewBox="0 0 240.157 240.157" id="adobe-illustrator">
    <g id="adobe-illustrator-svgrepo-com" transform="translate(-2 -2)">
      <path id="Path_30" d="M2,88.914C2,58.491,2,43.28,7.921,31.66A54.322,54.322,0,0,1,31.66,7.921C43.28,2,58.491,2,88.914,2h66.33c30.423,0,45.634,0,57.254,5.921a54.322,54.322,0,0,1,23.74,23.739c5.921,11.62,5.921,26.831,5.921,57.254v66.33c0,30.423,0,45.634-5.921,57.254a54.322,54.322,0,0,1-23.74,23.74c-11.619,5.921-26.831,5.921-57.254,5.921H88.914c-30.423,0-45.634,0-57.254-5.921A54.322,54.322,0,0,1,7.921,212.5C2,200.878,2,185.666,2,155.244Z" fill="#300"></path>
      <path id="Path_31" d="M74.589,92.591H37.374L29.8,116.716a1.92,1.92,0,0,1-1.933,1.486H9.019q-1.612,0-1.128-1.817L40.112,21.208q.484-1.487.967-3.387a36.266,36.266,0,0,0,.645-6.692,1.025,1.025,0,0,1,1.127-1.157H68.467q1.126,0,1.288.826L106.327,116.55q.482,1.653-.967,1.652H84.416a1.506,1.506,0,0,1-1.611-1.156ZM43.173,71.771H68.628c-4.182-14.291-8.9-28.394-12.727-42.8C51.774,43.4,47.271,57.77,43.173,71.771Z" transform="translate(43.79 60.333)" fill="#ff9a00"></path>
      <path id="Path_32" d="M32.631,34.781a11.431,11.431,0,0,1-4.809-.847,11.669,11.669,0,0,1-4.052-2.788,13.143,13.143,0,0,1-2.608-4.363,13.379,13.379,0,0,1-.775-5.055,12.408,12.408,0,0,1,.859-4.982,12.154,12.154,0,0,1,2.767-4.189,12.405,12.405,0,0,1,4.124-2.695A12.168,12.168,0,0,1,32.953,9q5.8,0,9.1,3.553A12.818,12.818,0,0,1,44.6,16.8a13.052,13.052,0,0,1,.76,4.923,13.193,13.193,0,0,1-.8,5.07,12.955,12.955,0,0,1-2.664,4.349,12.34,12.34,0,0,1-4.26,2.812A12.085,12.085,0,0,1,32.631,34.781ZM21.514,123.843V44.861c0-.992.428-1.487,1.289-1.487H42.62q1.287,0,1.288,1.487v78.983q0,1.654-1.288,1.653H22.965Q21.515,125.5,21.514,123.843Z" transform="translate(139.233 53.039)" fill="#ff9a00"></path>
    </g>
  </symbol>
  <symbol xmlns="http://www.w3.org/2000/svg" viewBox="0 0 240.157 240.157" id="adobe-photoshop">
    <g id="adobe-photoshop-svgrepo-com" transform="translate(-2 -2)">
      <path id="Path_33" d="M2,88.914C2,58.491,2,43.28,7.921,31.66A54.322,54.322,0,0,1,31.66,7.921C43.28,2,58.491,2,88.914,2h66.33c30.423,0,45.634,0,57.254,5.921a54.322,54.322,0,0,1,23.74,23.739c5.921,11.62,5.921,26.831,5.921,57.254v66.33c0,30.423,0,45.634-5.921,57.254a54.322,54.322,0,0,1-23.74,23.74c-11.619,5.921-26.831,5.921-57.254,5.921H88.914c-30.423,0-45.634,0-57.254-5.921A54.322,54.322,0,0,1,7.921,212.5C2,200.878,2,185.666,2,155.244Z" fill="#001e36"></path>
      <path id="Path_34" d="M8,117.352V11.745c0-.718.3-1.129,1-1.129,10.341,0,20.677-.616,31.02-.616,16.784,0,34.957,5.739,41.328,23.3a40.187,40.187,0,0,1,2.3,13.342q0,13.24-6,21.86C66.465,84.554,47.086,84.3,29.715,84.3V117.25c.136.975-.7,1.437-1.5,1.437H9.2C8.4,118.687,8,118.276,8,117.352ZM29.814,30.424V64.908c6.888.5,14.1.559,20.714-1.642,7.307-2.108,11.308-8.432,11.308-16.011.2-6.458-3.316-12.654-9.306-14.984C45.991,29.552,36.872,29.389,29.814,30.424Z" transform="translate(45.462 60.616)" fill="#31a8ff"></path>
      <path id="Path_35" d="M69.93,36.047a37.015,37.015,0,0,0-9.587-3.47c-4.283-1.008-21.178-4.538-21.185,4.3.15,4.932,7.979,7.348,11.438,8.757,12.144,4.169,25.886,11.622,25.616,26.6.371,18.65-17.7,26.106-33.188,26.108-8.063.083-16.464-1.166-23.843-4.627a2.186,2.186,0,0,1-1.128-1.983V73.886c-.08-.715.689-1.341,1.289-.826a48.293,48.293,0,0,0,24.166,6.609c3.692,0,11.01-.358,10.955-5.784,0-5.206-8.755-7.6-12.245-8.923a58.667,58.667,0,0,1-14.258-7.435A23.192,23.192,0,0,1,18.053,38.36c-.036-17.561,16.6-25.443,31.577-25.446,7-.058,14.523.461,21.041,3.3.937.275,1.131,1.263,1.128,2.148V35.056A1.211,1.211,0,0,1,69.93,36.047Z" transform="translate(121.594 82.664)" fill="#31a8ff"></path>
    </g>
  </symbol>
  <symbol xmlns="http://www.w3.org/2000/svg" viewBox="0 0 240.157 240.157" id="adobe-xd">
    <g id="adobe-xd-svgrepo-com" transform="translate(-2 -2)">
      <path id="Path_36" d="M2,88.914C2,58.491,2,43.28,7.921,31.66A54.322,54.322,0,0,1,31.66,7.921C43.28,2,58.491,2,88.914,2h66.33c30.423,0,45.634,0,57.254,5.921a54.322,54.322,0,0,1,23.74,23.739c5.921,11.62,5.921,26.831,5.921,57.254v66.33c0,30.423,0,45.634-5.921,57.254a54.322,54.322,0,0,1-23.74,23.74c-11.619,5.921-26.831,5.921-57.254,5.921H88.914c-30.423,0-45.634,0-57.254-5.921A54.322,54.322,0,0,1,7.921,212.5C2,200.878,2,185.666,2,155.244Z" fill="#470137"></path>
      <path id="Path_37" d="M97.316,11.7,67.35,62.433,99.409,116.3c.666,1.221,0,1.492-.966,1.492H75.567c-1.612,0-2.74-.058-3.384-1.16q-3.225-6.444-6.445-12.806T58.892,90.853q-3.626-6.606-7.17-13.384c-2.149,4.407-4.54,8.813-6.847,13.219s-4.593,8.785-6.847,13.136S33.464,112.5,31.1,116.8c-.43.992-1.183,1.094-2.256,1.094H6.774c-.867,0-.972-.652-.483-1.424l31.093-52.38L7.1,11.539A.888.888,0,0,1,7.9,10.052H30.617a2.6,2.6,0,0,1,2.417,1.157q2.9,6.61,6.444,13.219t7.169,13.053c2.417,4.3,4.807,8.647,6.847,13.054q3.22-6.774,6.525-13.219t6.766-12.971q3.463-6.525,6.686-12.971A1.705,1.705,0,0,1,75.4,10.052h21.1C97.316,10.052,97.648,11.153,97.316,11.7Z" transform="translate(30.308 60.917)" fill="#ff61f6"></path>
      <path id="Path_38" d="M59.184,127.814c-14.208.222-29.09-5.628-36.571-18.589q-5.478-9.334-5.477-23.381A44.012,44.012,0,0,1,22.613,64.2c9.415-16.83,28.382-23.136,46.4-21.48V10.165c0-.769.323-1.157.967-1.157h20.3a.874.874,0,0,1,.967.991v97.655c0,4.029.4,8.044.645,12.062a1.748,1.748,0,0,1-.967,1.653A81.732,81.732,0,0,1,59.184,127.814Zm9.828-20.49V62.215c-14.715-4.088-29,7.12-29,22.637C39.664,100.9,53.493,111.979,69.012,107.324Z" transform="translate(114.675 53.039)" fill="#ff61f6"></path>
    </g>
  </symbol>
  <symbol xmlns="http://www.w3.org/2000/svg" viewBox="0 0 301.475 240.157" id="bootstrap">
    <path id="bootstrap-fill-svgrepo-com" d="M62.617,2c-17.2,0-29.93,15.056-29.361,31.384.547,15.687-.164,36-5.278,52.572C22.848,102.572,14.172,113.1,0,114.45v15.257c14.172,1.352,22.848,11.878,27.978,28.5,5.115,16.567,5.825,36.884,5.278,52.571-.57,16.326,12.159,31.384,29.363,31.384H238.88c17.2,0,29.929-15.055,29.359-31.384-.546-15.687.163-36,5.278-52.571,5.133-16.618,13.786-27.144,27.958-28.5V114.45c-14.172-1.352-22.825-11.878-27.958-28.495-5.115-16.566-5.825-36.885-5.278-52.572C268.809,17.058,256.083,2,238.88,2H62.617ZM204.39,149.832c0,22.484-16.771,36.119-44.6,36.119H112.414a5.111,5.111,0,0,1-5.11-5.11V63.317a5.11,5.11,0,0,1,5.11-5.11h47.1c23.2,0,38.434,12.57,38.434,31.869,0,13.546-10.244,25.674-23.3,27.8v.708C192.425,120.531,204.39,132.835,204.39,149.832ZM154.624,74.405H127.611V112.56h22.751c17.587,0,27.286-7.082,27.286-19.742C177.648,80.956,169.308,74.405,154.624,74.405ZM127.611,127.7v42.048h28.007c18.311,0,28.011-7.348,28.011-21.157S173.657,127.7,154.439,127.7H127.611Z" transform="translate(0 -2)" fill="#563d7c" fill-rule="evenodd"></path>
  </symbol>
  <symbol xmlns="http://www.w3.org/2000/svg" viewBox="0 0 256 256" id="chakra-ui">
    <path id="chakraui-svgrepo-com" d="M128,0A128,128,0,1,0,256,128,127.72,127.72,0,0,0,128,0Zm29.867,46.219a2,2,0,0,1,1.824,2.965L127.221,108.7a1.995,1.995,0,0,0,1.749,2.944h56.107a1.99,1.99,0,0,1,1.365,3.445L88.1,206.88a1.989,1.989,0,0,1-2.965-2.624l46.549-64.224a1.995,1.995,0,0,0-1.611-3.157H70.688a1.995,1.995,0,0,1-1.4-3.413l87.253-86.645a1.941,1.941,0,0,1,1.333-.6Z" fill="#2abfb3"></path>
  </symbol>
  <symbol xmlns="http://www.w3.org/2000/svg" viewBox="0 0 205.849 240.157" id="css-3">
    <g id="css-3-svgrepo-com" transform="translate(-4 -3)">
      <path id="Path_42" d="M21.154,217.426,4,3H209.849L192.7,217.426l-85.77,25.731Z" fill="#1172b8"></path>
      <path id="Path_43" d="M101.77,5H16V215.138L84.616,193.7Z" transform="translate(90.925 15.154)" fill="#3ad"></path>
      <path id="Path_44" d="M102.848,85.693H17.077l-4.289-30.02L81.4,34.231H12.789L8.5,8.5H141.444l-4.289,30.02L81.4,59.962h51.462l-8.577,81.482L72.828,158.6,21.366,141.444,17.077,98.559H42.808L47.1,120l25.731,8.577L98.559,120Z" transform="translate(34.097 41.674)" fill="#fff"></path>
    </g>
  </symbol>
  <symbol xmlns="http://www.w3.org/2000/svg" viewBox="0 0 205.849 240.157" id="html-5">
    <g id="html-5-svgrepo-com" transform="translate(-4 -3)">
      <path id="Path_39" d="M21.154,217.426,4,3H209.849L192.7,217.426l-85.77,25.731Z" fill="#e44d26"></path>
      <path id="Path_40" d="M101.77,5H16V215.138L84.616,193.7Z" transform="translate(90.925 15.154)" fill="#f16529"></path>
      <path id="Path_41" d="M17.077,89.482,8.5,8H141.444l-4.289,25.731H34.231l4.289,30.02h94.348l-8.577,81.482L72.828,162.387,21.366,145.233l-4.289-42.885H42.808L47.1,123.79l25.731,8.577,25.731-8.577,4.289-34.308Z" transform="translate(34.097 37.885)" fill="#fff"></path>
    </g>
  </symbol>
  <symbol id="javascript" xmlns="http://www.w3.org/2000/svg" viewBox="0 0 256 256">
    <path id="Path_27" d="M0,0H256V256H0Z" fill="#f7df1e"></path>
    <path id="Path_28" d="M67.312,213.932,86.9,202.076c3.779,6.7,7.217,12.371,15.464,12.371,7.905,0,12.889-3.092,12.889-15.12v-81.8h24.058v82.138c0,24.917-14.606,36.259-35.916,36.259-19.245,0-30.416-9.967-36.087-22"></path>
    <path id="Path_29" d="M152.381,211.354l19.588-11.341c5.157,8.421,11.859,14.607,23.715,14.607,9.969,0,16.325-4.984,16.325-11.858,0-8.248-6.53-11.17-17.528-15.98l-6.013-2.579c-17.357-7.388-28.871-16.668-28.871-36.258,0-18.044,13.748-31.792,35.229-31.792,15.294,0,26.292,5.328,34.2,19.247l-18.731,12.029c-4.125-7.389-8.591-10.31-15.465-10.31-7.046,0-11.514,4.468-11.514,10.31,0,7.217,4.468,10.139,14.778,14.608l6.014,2.577c20.449,8.765,31.963,17.7,31.963,37.8,0,21.654-17.012,33.51-39.867,33.51-22.339,0-36.774-10.654-43.819-24.574"></path>
  </symbol>
  <symbol xmlns="http://www.w3.org/2000/svg" viewBox="0 0 349.9 242.521" id="mysql">
    <g id="mysql-logo-svgrepo-com" transform="translate(18.458 -6.58)">
      <path id="Path_58" d="M-18.458,6.58h349.9V249.1h-349.9Z" fill="none"></path>
      <path id="Path_59" d="M66.832,139.261H57.36q-.5-23.984-2.766-45.107h-.084L40.087,139.261H32.875L18.538,94.154h-.082q-1.6,20.285-2.012,45.107H7.81q.835-30.184,4.19-56.6H23.741l13.665,41.587h.084L51.238,82.664H62.472q3.69,30.939,4.36,56.6M107.914,97.5q-5.785,31.395-15.261,45.63Q85.273,154.1,76.472,154.1a15.905,15.905,0,0,1-5.784-1.409v-5.047a27.86,27.86,0,0,0,3.939.253,9.521,9.521,0,0,0,6.626-2.266,8.267,8.267,0,0,0,3.015-6.2q0-2.356-2.347-9.643L71.526,97.5h9.306l7.461,24.144q2.515,8.223,2.1,11.49A157.712,157.712,0,0,0,98.943,97.5h8.971v0Z" transform="translate(21.815 63.187)" fill="#5d87a1"></path>
      <path id="Path_60" d="M185.889,139.643H158.98v-56.6h9.052v49.63h17.856Zm-33.952,1.367-10.4-5.135a19.335,19.335,0,0,0,2.6-2.528q6.634-7.792,6.628-23.053,0-28.086-22.048-28.091-10.813,0-16.853,7.13-6.628,7.8-6.625,22.974,0,14.923,5.867,21.876,5.368,6.29,16.187,6.293a26.08,26.08,0,0,0,7.41-.994l13.546,7.886Zm-33.7-12.693q-3.438-5.53-3.438-17.769,0-21.376,13-21.384,6.8,0,9.974,5.111,3.432,5.538,3.439,17.607,0,21.551-12.995,21.552-6.8,0-9.978-5.118m-16.943-4.362a15.015,15.015,0,0,1-5.279,11.821q-5.283,4.607-14.162,4.611a28.362,28.362,0,0,1-16.1-5.286l2.433-4.86a27.537,27.537,0,0,0,12.151,3.352q5.115,0,8.008-2.255a7.688,7.688,0,0,0,3.083-6.284c0-3.363-2.345-6.236-6.646-8.644-3.967-2.178-11.9-6.733-11.9-6.733-4.3-3.134-6.452-6.5-6.452-12.041a14.06,14.06,0,0,1,4.818-11.107q4.824-4.242,12.453-4.238a25.819,25.819,0,0,1,14.331,4.194l-2.182,4.862A27.709,27.709,0,0,0,84.952,89c-2.9,0-5.142.7-6.7,2.1a7.012,7.012,0,0,0-2.539,5.369c0,3.346,2.394,6.257,6.813,8.711C86.546,107.362,94.677,112,94.677,112c4.41,3.128,6.612,6.462,6.612,11.96" transform="translate(69.934 62.805)" fill="#f8981d"></path>
      <path id="Path_61" d="M179.605,106.941c-5.473-.139-9.711.412-13.267,1.917-1.027.41-2.66.41-2.8,1.708.555.549.619,1.435,1.1,2.193a15.889,15.889,0,0,0,3.555,4.166c1.433,1.1,2.872,2.186,4.38,3.143,2.66,1.646,5.675,2.6,8.267,4.243,1.51.954,3.011,2.187,4.523,3.214.743.547,1.219,1.435,2.184,1.777v-.209c-.483-.615-.621-1.5-1.095-2.189l-2.054-1.981a32.546,32.546,0,0,0-7.11-6.9c-2.189-1.508-6.978-3.558-7.866-6.081l-.139-.139A27.241,27.241,0,0,0,174,110.7c2.327-.613,4.448-.474,6.835-1.087,1.1-.275,2.187-.619,3.289-.957v-.617c-1.237-1.232-2.12-2.868-3.421-4.033a91.048,91.048,0,0,0-11.283-8.411c-2.123-1.371-4.854-2.253-7.115-3.419-.815-.412-2.187-.615-2.667-1.3a27.86,27.86,0,0,1-2.806-5.266c-1.977-3.758-3.9-7.928-5.6-11.9-1.234-2.665-1.984-5.327-3.489-7.792-7.047-11.624-14.7-18.664-26.463-25.574-2.528-1.439-5.535-2.052-8.748-2.806L107.4,37.26c-1.095-.48-2.191-1.781-3.147-2.4-3.9-2.46-13.95-7.792-16.82-.752-1.849,4.45,2.735,8.825,4.309,11.082a31.431,31.431,0,0,1,3.482,5.129c.481,1.162.617,2.4,1.1,3.624a81.911,81.911,0,0,0,3.557,9.165,32.63,32.63,0,0,0,2.528,4.232c.549.758,1.5,1.093,1.713,2.328-.954,1.362-1.029,3.418-1.576,5.127-2.46,7.726-1.5,17.3,1.988,22.976,1.091,1.71,3.694,5.473,7.176,4.031,3.083-1.23,2.4-5.127,3.286-8.545.2-.826.07-1.367.48-1.909v.134c.954,1.913,1.917,3.756,2.8,5.675a38.99,38.99,0,0,0,8.893,9.156c1.638,1.237,2.936,3.353,4.988,4.109v-.205h-.135a7.661,7.661,0,0,0-1.569-1.364,33.2,33.2,0,0,1-3.557-4.1,88.08,88.08,0,0,1-7.655-12.449c-1.1-2.123-2.052-4.444-2.94-6.564-.414-.818-.414-2.052-1.1-2.464-1.029,1.5-2.528,2.8-3.278,4.646-1.3,2.945-1.437,6.568-1.92,10.335l-.269.132c-2.178-.547-2.936-2.8-3.763-4.714-2.048-4.858-2.392-12.656-.615-18.261.476-1.433,2.535-5.947,1.713-7.313-.412-1.309-1.781-2.054-2.532-3.084a27.8,27.8,0,0,1-2.464-4.375c-1.64-3.828-2.466-8.069-4.232-11.895a36.838,36.838,0,0,0-3.419-5.27c-1.3-1.845-2.737-3.145-3.767-5.332-.34-.752-.818-1.982-.271-2.8a1.089,1.089,0,0,1,.957-.891c.886-.749,3.418.2,4.305.615a34.647,34.647,0,0,1,6.771,3.418c.957.686,1.984,1.986,3.213,2.328h1.439c2.184.476,4.646.132,6.7.751a44.021,44.021,0,0,1,9.848,4.715,60.675,60.675,0,0,1,21.329,23.39c.818,1.571,1.166,3.009,1.913,4.648,1.441,3.353,3.222,6.773,4.651,10.055,1.437,3.213,2.806,6.493,4.858,9.162,1.023,1.435,5.135,2.187,6.978,2.94a48.239,48.239,0,0,1,4.717,1.911c2.327,1.433,4.644,3.079,6.831,4.655,1.089.82,4.512,2.53,4.715,3.9M109.853,47.516a10.653,10.653,0,0,0-2.8.344V48h.132a22.311,22.311,0,0,0,2.191,2.8c.551,1.1,1.029,2.184,1.569,3.278l.132-.135a3.843,3.843,0,0,0,1.444-3.419,15.631,15.631,0,0,1-.826-1.435c-.4-.685-1.291-1.025-1.843-1.574" transform="translate(87.581 19.953)" fill="#5d87a1"></path>
      <path id="Path_62" d="M147.254,116.725h1.417v-6.934h-2.125l-1.733,4.732-1.884-4.732h-2.046v6.934h1.338v-5.275h.075l1.973,5.275h1.02l1.966-5.275v5.275Zm-11.413,0h1.5v-5.759H139.3v-1.177H133.8v1.177h2.041l0,5.759Z" transform="translate(126.445 85.714)" fill="#f8981d"></path>
    </g>
  </symbol>
  <symbol id="nodejs" xmlns="http://www.w3.org/2000/svg" viewBox="0 0 256 288.464">
    <path id="Path_26" d="M128,288.464a23.239,23.239,0,0,1-11.13-2.915L81.623,264.613c-5.3-2.915-2.65-3.975-1.06-4.505,7.155-2.385,8.48-2.915,15.9-7.156a2.438,2.438,0,0,1,2.65.265l27.031,16.166a3.368,3.368,0,0,0,3.18,0l105.739-61.217a3.044,3.044,0,0,0,1.59-2.915V83.081a3.045,3.045,0,0,0-1.59-2.915L129.325,19.213a3.367,3.367,0,0,0-3.18,0L20.406,80.166a3.325,3.325,0,0,0-1.59,2.915v122.17a3.325,3.325,0,0,0,1.59,2.915l28.886,16.695c15.636,7.951,25.441-1.325,25.441-10.6V93.681a3.223,3.223,0,0,1,3.18-3.18H91.429a3.223,3.223,0,0,1,3.18,3.18v120.58c0,20.936-11.4,33.126-31.271,33.126-6.1,0-10.866,0-24.381-6.625l-27.826-15.9A22.365,22.365,0,0,1,0,205.516V83.346A22.366,22.366,0,0,1,11.13,64L116.87,2.783a23.65,23.65,0,0,1,22.26,0L244.87,64A22.366,22.366,0,0,1,256,83.346v122.17a22.365,22.365,0,0,1-11.13,19.345L139.13,286.079A27.123,27.123,0,0,1,128,288.464Zm32.6-84.009c-46.377,0-55.917-21.2-55.917-39.221a3.222,3.222,0,0,1,3.18-3.18H121.64a2.724,2.724,0,0,1,2.915,2.65c2.12,14.045,8.215,20.936,36.306,20.936,22.261,0,31.8-5.035,31.8-16.961,0-6.89-2.651-11.925-37.367-15.371-28.886-2.915-46.907-9.275-46.907-32.331,0-21.466,18.021-34.186,48.232-34.186,33.921,0,50.617,11.66,52.737,37.1a4.274,4.274,0,0,1-.795,2.385,3.271,3.271,0,0,1-2.12,1.06h-13.78a3.105,3.105,0,0,1-2.916-2.385c-3.18-14.575-11.395-19.345-33.126-19.345-24.381,0-27.3,8.48-27.3,14.84,0,7.686,3.445,10.071,36.306,14.311,32.6,4.24,47.967,10.335,47.967,33.126-.265,23.321-19.345,36.571-53,36.571Z" fill="#539e43"></path>
  </symbol>
  <symbol id="react" xmlns="http://www.w3.org/2000/svg" viewBox="0 0 256 227.767">
    <path id="Path_25" d="M210.483,73.824q-3.982-1.371-8.241-2.6.7-2.851,1.274-5.621c6.238-30.281,2.159-54.676-11.769-62.708-13.355-7.7-35.2.329-57.254,19.525q-3.182,2.769-6.375,5.849-2.124-2.033-4.241-3.917C100.759,3.829,77.587-4.822,63.673,3.233,50.33,10.957,46.379,33.89,51.994,62.588q.813,4.158,1.893,8.481c-3.28.931-6.446,1.923-9.475,2.979C17.309,83.5,0,98.307,0,113.668c0,15.865,18.582,31.778,46.812,41.427q3.342,1.143,6.922,2.165-1.16,4.67-2.01,9.138c-5.354,28.2-1.173,50.591,12.134,58.266,13.745,7.926,36.812-.221,59.273-19.855q2.664-2.328,5.342-4.923,3.471,3.342,6.921,6.314c21.757,18.722,43.245,26.282,56.539,18.586,13.731-7.949,18.194-32,12.4-61.268q-.663-3.353-1.535-6.842,2.43-.718,4.76-1.488C236.9,145.465,256,129.745,256,113.668c0-15.417-17.868-30.326-45.517-39.844Zm-6.365,70.984q-2.1.694-4.3,1.345a256.553,256.553,0,0,0-12.963-32.432,256.471,256.471,0,0,0,12.459-31.957q3.929,1.137,7.61,2.4c23.689,8.155,38.14,20.213,38.14,29.5,0,9.9-15.606,22.743-40.946,31.14ZM193.6,165.642c2.562,12.941,2.927,24.641,1.231,33.787-1.525,8.219-4.591,13.7-8.383,15.893-8.067,4.669-25.32-1.4-43.927-17.412q-3.2-2.754-6.437-5.87a256.786,256.786,0,0,0,21.459-27.246,255.239,255.239,0,0,0,34.671-5.345q.783,3.16,1.386,6.193ZM87.276,214.515c-7.882,2.783-14.16,2.863-17.955.675-8.075-4.657-11.432-22.636-6.853-46.752q.787-4.143,1.868-8.5a257.23,257.23,0,0,0,34.5,4.994,266.272,266.272,0,0,0,21.976,27.15q-2.449,2.364-4.877,4.492c-9.933,8.682-19.886,14.842-28.658,17.94ZM50.349,144.747c-12.483-4.267-22.792-9.812-29.858-15.863-6.349-5.437-9.555-10.836-9.555-15.216,0-9.322,13.9-21.212,37.077-29.293,2.812-.981,5.757-1.9,8.812-2.773A262.146,262.146,0,0,0,69.3,113.934a266.445,266.445,0,0,0-12.634,32.792q-3.267-.94-6.319-1.979ZM62.727,60.488C57.916,35.9,61.111,17.353,69.152,12.7c8.564-4.958,27.5,2.111,47.463,19.835q1.914,1.7,3.841,3.545A262.032,262.032,0,0,0,98.648,63.066a267.278,267.278,0,0,0-34.161,5.309q-1-4.02-1.76-7.887ZM173.154,87.755q-3.8-6.563-7.785-12.8c8.168,1.033,15.994,2.4,23.343,4.081a233.545,233.545,0,0,1-8.193,22.044q-3.484-6.613-7.365-13.322ZM128.122,43.894A233.909,233.909,0,0,1,143.187,62.08q-7.511-.355-15.187-.359-7.595,0-15.07.353C117.9,55.515,123,49.422,128.122,43.894ZM82.8,87.831q-3.8,6.582-7.227,13.238c-3.185-7.553-5.909-14.98-8.135-22.152,7.3-1.634,15.093-2.971,23.209-3.984q-4.033,6.29-7.848,12.9Zm8.081,65.352A232.746,232.746,0,0,1,67.29,149.39c2.261-7.3,5.046-14.885,8.3-22.6q3.437,6.639,7.258,13.246h0q3.89,6.719,8.038,13.147Zm37.542,31.03c-5.184-5.592-10.354-11.779-15.4-18.433q7.353.288,14.978.291,7.827,0,15.453-.344a232.663,232.663,0,0,1-15.028,18.486Zm52.2-57.817a231.876,231.876,0,0,1,8.6,22.52,232,232,0,0,1-23.88,4.071q3.987-6.316,7.859-13.026,3.91-6.784,7.425-13.565Zm-16.9,8.1c-4,6.939-8.111,13.562-12.281,19.815-7.6.543-15.445.823-23.444.823-7.967,0-15.716-.248-23.178-.732-4.339-6.335-8.537-12.978-12.513-19.846h0c-3.966-6.85-7.616-13.758-10.923-20.627,3.306-6.884,6.947-13.8,10.89-20.637h0c3.953-6.856,8.114-13.467,12.413-19.761,7.613-.576,15.421-.876,23.311-.876h0c7.926,0,15.743.3,23.354.883,4.233,6.249,8.366,12.838,12.335,19.695,4.014,6.934,7.7,13.8,11.036,20.54-3.325,6.853-7,13.792-11,20.722Zm22.56-122.124c8.572,4.944,11.906,24.881,6.52,51.026q-.516,2.5-1.151,5.089a261.978,261.978,0,0,0-34.229-5.407,256.828,256.828,0,0,0-21.64-27.008q2.95-2.839,5.888-5.4c18.9-16.448,36.564-22.941,44.612-18.3ZM128,90.808a22.86,22.86,0,1,1-22.86,22.86A22.86,22.86,0,0,1,128,90.808Z" fill="#00d8ff"></path>
  </symbol>
  <symbol xmlns="http://www.w3.org/2000/svg" viewBox="0 0 244.246 256" id="sql">
    <path id="sql-database-sql-azure-svgrepo-com" d="M9.712,729.816A37.887,37.887,0,0,1-17.194,708.5a34.26,34.26,0,0,1-3.086-15.116c.044-16.617,10.493-30.493,26.726-35.5,2.99-.921,4.964-1.165,9.549-1.177a60.774,60.774,0,0,1,7.79.374l2.01.39,2.474-4.8a51.409,51.409,0,0,1,23.105-22.615c8.4-4.206,13.674-5.429,23.421-5.429,6.827,0,8.411.164,12.816,1.332a53.789,53.789,0,0,1,38.513,38.779c1.168,4.71,1.751,15.271,1.072,19.414l-.464,2.829,2.664.6a22.622,22.622,0,0,1,15.384,12.454,21.759,21.759,0,0,1-1.335,20.166,24,24,0,0,1-8.716,7.828c-1.59.761-3.284,1.59-3.764,1.842-1.078.566-118.4.515-121.253-.052Zm121.969-6.944a17.727,17.727,0,0,0,7.922-8.905,15.584,15.584,0,0,0-8.432-19.453c-1.892-.842-3.3-1.037-7.25-1-2.7.026-4.9-.144-4.9-.378s.5-2.421,1.113-4.861A53.085,53.085,0,0,0,120.1,666a47.867,47.867,0,0,0-24.949-30.79,40.635,40.635,0,0,0-17.7-4.26c-10.474-.427-17.786,1.223-25.844,5.833-9.4,5.376-17.5,15.118-20.635,24.82-.6,1.866-1.336,3.39-1.627,3.386a30.8,30.8,0,0,1-3.8-1.082c-5-1.645-13.523-1.545-18.512.217a30.961,30.961,0,0,0-12.4,7.8,30.129,30.129,0,0,0-8.776,21.466A30.558,30.558,0,0,0,3.423,721.348c6.254,2.974,4.09,2.885,67.6,2.786l58.3-.091,2.357-1.172Zm-168.206-23.5c-21.091-2.858-37.325-8.154-49.333-16.094-4.955-3.276-8.376-6.94-10.3-11.037l-1.437-3.052.132-82.636.132-82.636,1.2-2.251c3.033-5.691,8.947-10.547,18.363-15.078,11.905-5.729,25.635-9.31,44.766-11.678,7.879-.975,34.633-.8,42.719.275,29.775,3.97,52.88,13.7,60.246,25.365,2.9,4.6,2.827,2.931,2.827,63.005v55.155l-1.633.253c-.9.139-2.933.392-4.522.561-16.4,1.751-33.4,13.086-42.116,28.076l-1.785,3.069-7.01.331c-8.283.391-12.5,1.452-18.8,4.727a42.665,42.665,0,0,0-21.693,27.358,37.286,37.286,0,0,0-1.145,10.68l-.037,6.408-2.777-.059c-1.527-.033-5.038-.366-7.8-.74ZM6.352,623.2c-3.956-3.357-7.378-6.267-7.6-6.466s.6-.952,1.826-1.673a23.806,23.806,0,0,0,7.731-8.421,26.6,26.6,0,0,0-.212-23.685c-4.151-7.973-12.838-12.156-22.679-10.92-5.389.677-8.765,2.188-12.325,5.519-5.62,5.257-7.566,10.415-7.27,19.267.168,5.033.347,5.938,1.787,8.993,3.1,6.575,9.575,11.489,16.174,12.271,2.482.294,2.7.457,7.631,5.761l5.077,5.459H13.544l-7.193-6.1Zm-21.522-17.14c-3.456-1.754-4.769-4.758-4.769-10.918,0-4.008.194-5.178,1.179-7.182a8.017,8.017,0,0,1,7.8-4.776c3.032.342,4.608,1.568,6.211,4.833,1.217,2.478,1.393,3.417,1.378,7.363,0,4.868-.879,7.364-3.327,9.641-2.558,2.379-5.193,2.7-8.473,1.039ZM-49.947,617.73c9.088-2.1,14.024-9.707,11.407-17.587-1.318-3.968-4.1-6.446-10.905-9.7a40.146,40.146,0,0,1-6.243-3.418c-1.144-1.47-1.141-2.443,0-3.78,1.77-2.058,5.8-2.156,11.255-.275l4.162,1.435-.143-5.554-.143-5.554-2.764-.657c-4.18-.994-13.215-.945-16.77.09-7.128,2.076-10.884,6.735-10.86,13.47.037,6.932,3.147,10.218,14.144,14.884,4.653,1.974,5.185,5.664,1.027,7.108-1.925.668-2.473.656-5.518-.131a35.963,35.963,0,0,1-6.271-2.372l-2.89-1.5v12.026l2.89.8c1.589.443,3.116.883,3.392.979,1.149.4,12.228.192,14.219-.268Zm97.1-5.258V607.2H31.072V572.518H18v45.232H47.154v-5.277Zm-38.7-90.483c13.105-1.519,23.86-4.266,30.657-7.831,4.466-2.342,5.537-3.186,7.253-5.715,5.308-7.823-6.578-15.688-29.618-19.6C-4.9,485.171-33.423,486-51.68,490.838c-37.67,9.978-22.82,28.308,25.862,31.922a253.812,253.812,0,0,0,34.274-.771Z" transform="translate(97.599 -474.268)" fill="#00bcf2"></path>
  </symbol>
  <symbol id="typescript" xmlns="http://www.w3.org/2000/svg" viewBox="0 0 256 256">
    <path id="Path_50" d="M0-128V0H256V-256H0Z" transform="translate(0 256)" fill="#007acc"></path>
    <path id="Path_51" d="M146.658,223.437l.081-10.484h-33.32V118.274H89.851v94.679H56.53v10.281a100.756,100.756,0,0,0,.284,10.565c.122.162,20.4.244,44.983.2l44.739-.122Z" transform="translate(203.269 352.286) rotate(180)" fill="#fff"></path>
    <path id="Path_52" d="M206.567-234.272a31.862,31.862,0,0,1,16.01,9.224c2.357,2.519,5.851,7.111,6.136,8.208.081.325-11.053,7.8-17.8,11.988-.244.162-1.219-.894-2.317-2.52-3.291-4.8-6.745-6.867-12.028-7.233-7.761-.528-12.759,3.535-12.718,10.321a9.381,9.381,0,0,0,1.1,4.795c1.707,3.536,4.876,5.649,14.832,9.956,18.326,7.883,26.168,13.084,31.045,20.48,5.445,8.249,6.664,21.415,2.966,31.208-4.063,10.646-14.141,17.879-28.323,20.276-4.388.772-14.791.651-19.5-.2-10.281-1.828-20.033-6.908-26.047-13.572-2.357-2.6-6.949-9.387-6.664-9.874a19.076,19.076,0,0,1,2.356-1.5c1.138-.65,5.446-3.129,9.509-5.485l7.355-4.267,1.544,2.275c2.154,3.292,6.867,7.8,9.712,9.306,8.167,4.307,19.383,3.7,24.909-1.26a9.421,9.421,0,0,0,3.332-7.68,9.378,9.378,0,0,0-1.91-6.5c-1.991-2.845-6.054-5.242-17.6-10.24-13.206-5.689-18.9-9.224-24.1-14.832a33.754,33.754,0,0,1-7.03-12.8c-.975-3.617-1.219-12.678-.447-16.335,2.723-12.76,12.353-21.659,26.25-24.3C191.654-235.694,202.137-235.369,206.567-234.272Z" transform="translate(0 352.38)" fill="#fff"></path>
  </symbol>
  <symbol id="material-ui" xmlns="http://www.w3.org/2000/svg" viewBox="0 0 322.486 256">
    <path id="Path_46" d="M0,139.637V0L120.932,69.818v46.545L40.311,69.818V162.91Z" fill="#00b0ff"></path>
    <path id="Path_47" d="M96,69.818,216.932,0V139.637l-80.622,46.545L96,162.91l80.622-46.546V69.818L96,116.364Z" transform="translate(24.932)" fill="#0081cb"></path>
    <path id="Path_48" d="M96,129.323v46.545l80.622,46.545V175.868Z" transform="translate(24.932 33.587)" fill="#00b0ff"></path>
    <path id="Path_49" d="M160,256l120.932-69.818V93.091l-40.311,23.273V162.91L160,209.455ZM240.622,69.818V23.273L280.932,0V46.545Z" transform="translate(41.554 0)" fill="#0081cb"></path>
  </symbol>
  <symbol id="mongodb" xmlns="http://www.w3.org/2000/svg" viewBox="0 0 256 256">
    <circle id="Ellipse_1" cx="128" cy="128" r="128" fill="#13aa52"></circle>
    <path id="Path_45" d="M445.755,266.072c-8.08-35.66-27.176-47.385-29.232-51.865A54.21,54.21,0,0,1,412,205.425c-.038-.095-.1-.262-.167-.425-.232,3.161-.352,4.38-3.34,7.568-4.627,3.618-28.367,23.538-30.3,64.053-1.8,37.786,27.3,60.3,31.231,63.173l.447.317v-.027c.025.19,1.249,8.994,2.109,18.324h3.083a181.542,181.542,0,0,1,3.248-19.62l.25-.162a51.089,51.089,0,0,0,5.024-4.11l.18-.162a72.49,72.49,0,0,0,23.256-54.1,86.716,86.716,0,0,0-1.262-14.181Zm-34.106,52.387s0-53,1.749-52.987c1.364,0,3.131,68.36,3.131,68.36C414.1,333.54,411.648,322.582,411.648,318.459Z" transform="translate(-283.641 -153.782)" fill="#fff"></path>
  </symbol>
  <symbol xmlns="http://www.w3.org/2000/svg" viewBox="0 0 256 256" id="chakraui-fill">
    <path id="chakraui-svgrepo-com" d="M128,0A128,128,0,1,0,256,128,127.72,127.72,0,0,0,128,0Zm29.867,46.219a2,2,0,0,1,1.824,2.965L127.221,108.7a1.995,1.995,0,0,0,1.749,2.944h56.107a1.99,1.99,0,0,1,1.365,3.445L88.1,206.88a1.989,1.989,0,0,1-2.965-2.624l46.549-64.224a1.995,1.995,0,0,0-1.611-3.157H70.688a1.995,1.995,0,0,1-1.4-3.413l87.253-86.645a1.941,1.941,0,0,1,1.333-.6Z" fill="#8892b0"></path>
  </symbol>
  <symbol xmlns="http://www.w3.org/2000/svg" viewBox="0 0 205.849 240.157" id="css-3-fill">
    <g id="css-3-svgrepo-com" transform="translate(-4 -3)">
      <path id="Path_42" d="M21.154,217.426,4,3H209.849L192.7,217.426l-85.77,25.731Z" fill="#8892b0"></path>
      <path id="Path_43" d="M101.77,5H16V215.138L84.616,193.7Z" transform="translate(90.925 15.154)" fill="#a8b2d1"></path>
      <path id="Path_44" d="M102.848,85.693H17.077l-4.289-30.02L81.4,34.231H12.789L8.5,8.5H141.444l-4.289,30.02L81.4,59.962h51.462l-8.577,81.482L72.828,158.6,21.366,141.444,17.077,98.559H42.808L47.1,120l25.731,8.577L98.559,120Z" transform="translate(34.097 41.674)" fill="#06071c"></path>
    </g>
  </symbol>
  <symbol xmlns="http://www.w3.org/2000/svg" viewBox="0 0 205.849 240.157" id="html-5-fill">
    <g id="html-5-svgrepo-com" transform="translate(-4 -3)">
      <path id="Path_39" d="M21.154,217.426,4,3H209.849L192.7,217.426l-85.77,25.731Z" fill="#8892b0"></path>
      <path id="Path_40" d="M101.77,5H16V215.138L84.616,193.7Z" transform="translate(90.925 15.154)" fill="#a8b2d1"></path>
      <path id="Path_41" d="M17.077,89.482,8.5,8H141.444l-4.289,25.731H34.231l4.289,30.02h94.348l-8.577,81.482L72.828,162.387,21.366,145.233l-4.289-42.885H42.808L47.1,123.79l25.731,8.577,25.731-8.577,4.289-34.308Z" transform="translate(34.097 37.885)" fill="#06071c"></path>
    </g>
  </symbol>
  <symbol id="javascript-fill" xmlns="http://www.w3.org/2000/svg" viewBox="0 0 256 256">
    <path id="Path_27" d="M0,0H256V256H0Z" fill="#8892b0"></path>
    <path id="Path_28" d="M67.312,213.932,86.9,202.076c3.779,6.7,7.217,12.371,15.464,12.371,7.905,0,12.889-3.092,12.889-15.12v-81.8h24.058v82.138c0,24.917-14.606,36.259-35.916,36.259-19.245,0-30.416-9.967-36.087-22" fill="#06071c"></path>
    <path id="Path_29" d="M152.381,211.354l19.588-11.341c5.157,8.421,11.859,14.607,23.715,14.607,9.969,0,16.325-4.984,16.325-11.858,0-8.248-6.53-11.17-17.528-15.98l-6.013-2.579c-17.357-7.388-28.871-16.668-28.871-36.258,0-18.044,13.748-31.792,35.229-31.792,15.294,0,26.292,5.328,34.2,19.247l-18.731,12.029c-4.125-7.389-8.591-10.31-15.465-10.31-7.046,0-11.514,4.468-11.514,10.31,0,7.217,4.468,10.139,14.778,14.608l6.014,2.577c20.449,8.765,31.963,17.7,31.963,37.8,0,21.654-17.012,33.51-39.867,33.51-22.339,0-36.774-10.654-43.819-24.574" fill="#06071c"></path>
  </symbol>
  <symbol id="material-fill" xmlns="http://www.w3.org/2000/svg" viewBox="0 0 322.486 256">
    <path id="Path_46" d="M0,139.637V0L120.932,69.818v46.545L40.311,69.818V162.91Z" fill="#8892b0"></path>
    <path id="Path_47" d="M96,69.818,216.932,0V139.637l-80.622,46.545L96,162.91l80.622-46.546V69.818L96,116.364Z" transform="translate(24.932)" fill="#8892b0"></path>
    <path id="Path_48" d="M96,129.323v46.545l80.622,46.545V175.868Z" transform="translate(24.932 33.587)" fill="#8892b0"></path>
    <path id="Path_49" d="M160,256l120.932-69.818V93.091l-40.311,23.273V162.91L160,209.455ZM240.622,69.818V23.273L280.932,0V46.545Z" transform="translate(41.554 0)" fill="#8892b0"></path>
  </symbol>
</svg>