<svg width="0" height="0" class="hidden">
  <symbol id="email" version="1.1" xmlns="http://www.w3.org/2000/svg" xmlnsSvg="http://www.w3.org/2000/svg" viewBox="0 0 16.549 214.00609">
    <defs id="defs1"></defs>
    <path d="M 0.75499998,43.85 3.149,42.408 q 0,-0.056 0,-0.126 -0.014,-0.07 -0.014,-0.14 0,-1.414 0.812,-2.254 0.826,-0.826 2.198,-0.826 h 4.48 q 1.372,0 2.184,0.826 0.826,0.84 0.826,2.254 0,1.414 -0.826,2.24 -0.812,0.84 -2.184,0.84 h -4.48 q -0.938,0 -1.638,-0.406 -0.7,-0.406 -1.05,-1.148 L 0.75499998,45.306 Z M 4.255,42.142 q 0,0.826 0.518,1.316 0.518,0.504 1.372,0.504 h 4.48 q 0.868,0 1.372,-0.504 0.518,-0.49 0.518,-1.316 0,-0.826 -0.518,-1.33 -0.504,-0.49 -1.372,-0.49 h -4.48 q -0.854,0 -1.372,0.49 -0.518,0.504 -0.518,1.33 z m -1.092,9.912005 q 0,-1.386 0.812,-2.212 0.812,-0.812 2.268,-0.812 h 1.764 q 1.47,0 2.268,0.812 0.812,0.812 0.812,2.212 0,1.4 -0.812,2.212 -0.798,0.812 -2.268,0.812 H 6.243 q -1.456,0 -2.268,-0.826 -0.812,-0.812 -0.812,-2.198 z m 1.12,0 q 0,0.826 0.462,1.288 0.462,0.476 1.358,0.476 h 2.044 q 0.896,0 1.358,-0.476 0.462,-0.462 0.462,-1.288 0,-0.812 -0.462,-1.288 -0.462,-0.476 -1.358,-0.476 H 6.103 q -0.896,0 -1.358,0.476 -0.462,0.476 -0.462,1.288 z m -1.148,9.464006 q 0,-1.148 0.77,-1.848 0.77,-0.686 2.086,-0.686 h 2.254 q 1.33,0 2.1,0.686 0.77,0.686 0.77,1.848 0,0.868 -0.434,1.428 -0.434,0.574 -1.176,0.686 v 0.014 l 1.75,-0.028 h 2.24 v 1.26 H 3.275 v -1.26 h 1.47 v -0.014 q -0.756,-0.098 -1.19,-0.658 -0.42,-0.56 -0.42,-1.428 z m 1.092,0.42 q 0,0.784 0.49,1.232 0.49,0.448 1.358,0.448 h 2.1 q 0.868,0 1.358,-0.448 0.49,-0.448 0.49,-1.232 0,-0.798 -0.42,-1.246 -0.406,-0.448 -1.358,-0.448 h -2.24 q -0.938,0 -1.358,0.448 -0.42,0.448 -0.42,1.246 z m -1.092,9.940004 q 0,-1.358 0.812,-2.198 0.826,-0.826 2.268,-0.826 h 1.82 q 1.442,0 2.254,0.826 0.826,0.84 0.826,2.198 0,0.91 -0.364,1.582 -0.364,0.686 -1.022,1.064 -0.658,0.378 -1.554,0.378 H 6.803 v -4.816 H 6.075 q -0.854,0 -1.358,0.49 -0.49,0.49 -0.49,1.302 0,0.7 0.266,1.148 0.28,0.462 0.742,0.56 v 1.26 q -0.966,-0.126 -1.54,-0.938 -0.56,-0.812 -0.56,-2.03 z m 4.648,-1.792 v 3.584 h 0.392 q 0.91,0 1.4,-0.476 0.504,-0.462 0.504,-1.316 0,-0.854 -0.504,-1.33 -0.49,-0.462 -1.4,-0.462 z m -4.508,8.344007 h 7.7 v 1.092 H 9.953 v 0.028 q 0.518,0.07 0.84,0.406 0.322,0.35 0.322,0.882 0,0.504 -0.294,0.854 -0.294,0.35 -0.798,0.504 v 0.014 q 0.504,0.098 0.798,0.434 0.294,0.35 0.294,0.882 0,0.742 -0.56,1.176 -0.546,0.448 -1.428,0.448 H 3.275 v -1.176 h 5.866 q 0.462,0 0.728,-0.224 0.28,-0.224 0.28,-0.616 0,-0.378 -0.266,-0.602 -0.266,-0.224 -0.728,-0.224 h -5.88 v -1.036 h 5.866 q 0.462,0 0.728,-0.224 0.28,-0.224 0.28,-0.602 0,-0.392 -0.266,-0.616 -0.266,-0.224 -0.728,-0.224 h -5.88 z m 0,10.262006 h 1.148 v 2.73 h 5.404 v -2.45 h 1.148 v 3.71 H 4.423 v 2.59 H 3.275 Z m 9.086,3.22 q 0,-0.462 0.238,-0.728 0.238,-0.266 0.644,-0.266 0.42,0 0.658,0.266 0.252,0.266 0.252,0.728 0,0.462 -0.252,0.728 -0.238,0.266 -0.658,0.266 -0.406,0 -0.644,-0.266 -0.238,-0.266 -0.238,-0.728 z m -9.086,6.860003 h 10.22 v 1.259999 H 7.797 v 1.47 l 3.178,2.156 v 1.442 l -3.668,-2.478 -4.032,2.618 v -1.47 l 3.43,-2.24 v -1.498 h -3.43 z m -0.14,12.754009 q 0,-1.358 0.812,-2.198 0.826,-0.826 2.268,-0.826 h 1.82 q 1.442,0 2.254,0.826 0.826,0.84 0.826,2.198 0,0.91 -0.364,1.582 -0.364,0.686 -1.022,1.064 -0.658,0.378 -1.554,0.378 H 6.803 v -4.816 H 6.075 q -0.854,0 -1.358,0.49 -0.49,0.49 -0.49,1.302 0,0.7 0.266,1.148 0.28,0.462 0.742,0.56 v 1.26 q -0.966,-0.126 -1.54,-0.938 -0.56,-0.812 -0.56,-2.03 z m 4.648,-1.792 v 3.584 h 0.392 q 0.91,0 1.4,-0.476 0.504,-0.462 0.504,-1.316 0,-0.854 -0.504,-1.33 -0.49,-0.462 -1.4,-0.462 z m -7.02800002,12.054 q 0,-1.19 0.50400002,-2.072 0.49,-0.882 1.414,-1.372 0.91,-0.476 2.142,-0.476 h 4.76 q 1.89,0 2.968,1.008 1.092,1.008 1.092,2.772 0,1.596 -0.924,2.506 -0.91,0.924 -2.506,0.924 H 6.411 q -1.092,0 -1.736,-0.602 -0.63,-0.602 -0.63,-1.638 0,-1.022 0.616,-1.638 0.616,-0.602 1.61,-0.602 h 1.624 q 1.036,0 1.596,0.49 0.574,0.49 0.574,1.386 0,0.574 -0.224,0.952 -0.224,0.378 -0.616,0.504 v 0.028 h 0.98 q 1.19,0 1.82,-0.602 0.63,-0.588 0.63,-1.708 0,-1.26 -0.812,-1.96 -0.812,-0.7 -2.268,-0.7 h -4.76 q -1.4,0 -2.198,0.742 -0.812,0.756 -0.812,2.058 v 1.54 H 0.75499998 Z m 4.22800002,1.05 q 0,0.532 0.336,0.826 0.35,0.294 0.952,0.294 h 1.638 q 0.616,0 0.938,-0.294 0.336,-0.294 0.336,-0.826 0,-0.532 -0.336,-0.826 -0.336,-0.294 -0.952,-0.294 H 6.271 q -0.602,0 -0.952,0.294 -0.336,0.294 -0.336,0.826 z m -4.22800002,6.56601 H 1.903 v 2.17 q 0,0.658 0.378,1.036 0.364,0.378 0.994,0.378 h 0.7 l 1.26,0.028 v -0.042 q -0.686,-0.112 -1.064,-0.658 -0.364,-0.546 -0.364,-1.372 0,-1.19 0.756,-1.876 0.756,-0.686 2.072,-0.686 h 1.624 q 1.316,0 2.086,0.686 0.77,0.686 0.77,1.876 0,0.826 -0.392,1.372 -0.392,0.546 -1.078,0.658 v 0.028 h 1.33 v 1.246 h -7.7 q -1.162,0 -1.834,-0.728 -0.68600002,-0.714 -0.68600002,-1.96 z M 4.857,131.32205 q 0,0.784 0.49,1.232 0.49,0.448 1.358,0.448 h 1.47 q 0.868,0 1.358,-0.448 0.49,-0.448 0.49,-1.232 0,-0.798 -0.462,-1.246 -0.462,-0.434 -1.246,-0.434 h -1.75 q -0.784,0 -1.246,0.434 -0.462,0.448 -0.462,1.246 z m -1.582,6.58001 h 7.7 v 1.092 H 9.953 v 0.028 q 0.518,0.07 0.84,0.406 0.322,0.35 0.322,0.882 0,0.504 -0.294,0.854 -0.294,0.35 -0.798,0.504 v 0.014 q 0.504,0.098 0.798,0.434 0.294,0.35 0.294,0.882 0,0.742 -0.56,1.176 -0.546,0.448 -1.428,0.448 H 3.275 v -1.176 h 5.866 q 0.462,0 0.728,-0.224 0.28,-0.224 0.28,-0.616 0,-0.378 -0.266,-0.602 -0.266,-0.224 -0.728,-0.224 h -5.88 v -1.036 h 5.866 q 0.462,0 0.728,-0.224 0.28,-0.224 0.28,-0.602 0,-0.392 -0.266,-0.616 -0.266,-0.224 -0.728,-0.224 h -5.88 z m -0.14,12.6 q 0,-1.19 0.658,-1.89 0.672,-0.7 1.75,-0.7 0.714,0 1.246,0.322 0.532,0.322 0.826,0.896 0.308,0.574 0.308,1.316 v 2.38 h 0.602 q 1.498,0 1.498,-1.638 0,-0.728 -0.266,-1.176 -0.266,-0.448 -0.742,-0.476 v -1.26 q 0.91,0.07 1.498,0.84 0.602,0.784 0.602,2.072 0,1.4 -0.672,2.142 -0.672,0.756 -1.876,0.756 H 3.275 v -1.246 h 1.4 v -0.028 q -0.714,-0.112 -1.134,-0.714 -0.406,-0.602 -0.406,-1.596 z m 1.064,0.308 q 0,0.924 0.448,1.47 0.448,0.546 1.218,0.546 h 1.078 v -2.24 q 0,-0.616 -0.378,-1.008 -0.364,-0.378 -0.98,-0.378 -0.644,0 -1.022,0.42 -0.364,0.434 -0.364,1.19 z m -0.924,7.266 h 1.148 v 2.73 h 5.404 v -2.45 h 1.148 v 3.71 H 4.423 v 2.59 H 3.275 Z m 9.086,3.22 q 0,-0.462 0.238,-0.728 0.238,-0.266 0.644,-0.266 0.42,0 0.658,0.266 0.252,0.266 0.252,0.728 0,0.462 -0.252,0.728 -0.238,0.266 -0.658,0.266 -0.406,0 -0.644,-0.266 -0.238,-0.266 -0.238,-0.728 z m -9.086,10.822 q 0,-1.022 0.588,-1.638 0.602,-0.602 1.582,-0.602 h 6.902 v -2.66 h 1.148 v 3.92 h -8.05 q -0.476,0 -0.756,0.266 -0.266,0.266 -0.266,0.714 v 2.38 H 3.275 Z m -0.14,8.79202 q 0,-0.518 0.308,-0.84 0.308,-0.308 0.798,-0.308 0.518,0 0.84,0.308 0.322,0.322 0.322,0.84 0,0.518 -0.322,0.826 -0.322,0.322 -0.84,0.322 -0.49,0 -0.798,-0.322 -0.308,-0.308 -0.308,-0.826 z m 0,10.024 q 0,-1.4 0.784,-2.24 0.784,-0.84 2.156,-0.84 h 2.1 q 1.372,0 2.156,0.84 0.784,0.84 0.784,2.24 0,1.33 -0.714,2.142 -0.714,0.826 -1.946,0.868 v -1.26 q 0.742,-0.042 1.134,-0.504 0.406,-0.462 0.406,-1.246 0,-0.826 -0.476,-1.33 -0.462,-0.49 -1.33,-0.49 H 6.075 q -0.868,0 -1.344,0.49 -0.476,0.504 -0.476,1.33 0,0.784 0.406,1.246 0.406,0.462 1.134,0.504 v 1.26 q -1.232,-0.042 -1.946,-0.868 -0.714,-0.812 -0.714,-2.142 z m 0.028,9.80001 q 0,-1.386 0.812,-2.212 0.812,-0.812 2.268,-0.812 h 1.764 q 1.47,0 2.268,0.812 0.812,0.812 0.812,2.212 0,1.4 -0.812,2.212 -0.798,0.812 -2.268,0.812 H 6.243 q -1.456,0 -2.268,-0.826 -0.812,-0.812 -0.812,-2.198 z m 1.12,0 q 0,0.826 0.462,1.288 0.462,0.476 1.358,0.476 h 2.044 q 0.896,0 1.358,-0.476 0.462,-0.462 0.462,-1.288 0,-0.812 -0.462,-1.288 -0.462,-0.476 -1.358,-0.476 H 6.103 q -0.896,0 -1.358,0.476 -0.462,0.476 -0.462,1.288 z m -1.008,6.552 h 7.7 v 1.092 H 9.953 v 0.028 q 0.518,0.07 0.84,0.406 0.322,0.35 0.322,0.882 0,0.504 -0.294,0.854 -0.294,0.35 -0.798,0.504 v 0.014 q 0.504,0.098 0.798,0.434 0.294,0.35 0.294,0.882 0,0.742 -0.56,1.176 -0.546,0.448 -1.428,0.448 H 3.275 v -1.176 h 5.866 q 0.462,0 0.728,-0.224 0.28,-0.224 0.28,-0.616 0,-0.378 -0.266,-0.602 -0.266,-0.224 -0.728,-0.224 h -5.88 v -1.036 h 5.866 q 0.462,0 0.728,-0.224 0.28,-0.224 0.28,-0.602 0,-0.392 -0.266,-0.616 -0.266,-0.224 -0.728,-0.224 h -5.88 z" id="Qodemike_gmail.com" aria-label="Qodemike@gmail.com"></path>
    <path id="envelope-solid" d="M 16.549,2.069 A 2.069,2.069 0 0 0 12.826,0.827 l -7.033,9.378 a 1.383,1.383 0 0 0 0,1.655 l 7.033,9.378 A 2.069,2.069 0 0 0 16.549,20 Z M 11.722,0 H 2.758 A 2.761,2.761 0 0 0 -2.3841849e-8,2.758 V 19.307 A 2.761,2.761 0 0 0 2.758,22.065 h 8.964 L 4.689,12.687 a 2.754,2.754 0 0 1 0,-3.31 z" ></path>
  </symbol>

  <symbol xmlns="http://www.w3.org/2000/svg" viewBox="0 0 37 18" id="hamburger-menu-icon">
    <g id="Group_78" transform="translate(-294.5 -20.5)">
      <line id="Line_38" x2="37" transform="translate(294.5 21.5)"  stroke-width="2"></line>
      <line id="Line_39" x2="37" transform="translate(294.5 29.5)"  stroke-width="2"></line>
      <line id="Line_40" x2="37" transform="translate(294.5 37.5)"  stroke-width="2"></line>
    </g>
  </symbol>
  <symbol xmlns="http://www.w3.org/2000/svg" viewBox="0 0 22 22" id="git">
    <path id="git" d="M110.972,228a1.35,1.35,0,0,0-.99.412l-2.007,2.008,2.53,2.53a1.632,1.632,0,0,1,.935-.055,1.667,1.667,0,0,1,.811.454,1.575,1.575,0,0,1,.44.811,1.9,1.9,0,0,1-.041.935l2.42,2.42a1.9,1.9,0,0,1,.935-.041,1.607,1.607,0,0,1,.825.454,1.63,1.63,0,0,1,.495,1.2,1.585,1.585,0,0,1-.495,1.182,1.654,1.654,0,0,1-1.2.481,1.679,1.679,0,0,1-1.2-.467,1.769,1.769,0,0,1-.454-.88,1.649,1.649,0,0,1,.1-.963l-2.283-2.283v6a1.45,1.45,0,0,1,.44.3,1.691,1.691,0,0,1-1.2,2.887,1.585,1.585,0,0,1-1.183-.495,1.654,1.654,0,0,1-.481-1.2,1.63,1.63,0,0,1,.495-1.2,1.68,1.68,0,0,1,.55-.357v-6.05a1.25,1.25,0,0,1-.55-.358,1.547,1.547,0,0,1-.481-.866,1.688,1.688,0,0,1,.1-.976l-2.475-2.5-6.6,6.6a1.427,1.427,0,0,0,0,2.007l9.6,9.6a1.427,1.427,0,0,0,2.007,0l9.57-9.57a1.427,1.427,0,0,0,0-2.008l-9.6-9.6A1.383,1.383,0,0,0,110.972,228Z" transform="translate(-100 -228)" ></path>
  </symbol>
  <symbol fill="none" xmlns="http://www.w3.org/2000/svg" viewBox="0 0 15 15" id="external-link">
    <path fill-rule="evenodd" clip-rule="evenodd" d="M3 2C2.44772 2 2 2.44772 2 3V12C2 12.5523 2.44772 13 3 13H12C12.5523 13 13 12.5523 13 12V8.5C13 8.22386 12.7761 8 12.5 8C12.2239 8 12 8.22386 12 8.5V12H3V3L6.5 3C6.77614 3 7 2.77614 7 2.5C7 2.22386 6.77614 2 6.5 2H3ZM12.8536 2.14645C12.9015 2.19439 12.9377 2.24964 12.9621 2.30861C12.9861 2.36669 12.9996 2.4303 13 2.497L13 2.5V2.50049V5.5C13 5.77614 12.7761 6 12.5 6C12.2239 6 12 5.77614 12 5.5V3.70711L6.85355 8.85355C6.65829 9.04882 6.34171 9.04882 6.14645 8.85355C5.95118 8.65829 5.95118 8.34171 6.14645 8.14645L11.2929 3H9.5C9.22386 3 9 2.77614 9 2.5C9 2.22386 9.22386 2 9.5 2H12.4999H12.5C12.5678 2 12.6324 2.01349 12.6914 2.03794C12.7504 2.06234 12.8056 2.09851 12.8536 2.14645Z" fill="currentColor"></path>
  </symbol>
  <symbol fill="none" xmlns="http://www.w3.org/2000/svg" viewBox="0 0 15 15" id="github-logo">
    <path fill-rule="evenodd" clip-rule="evenodd" d="M7.49933 0.25C3.49635 0.25 0.25 3.49593 0.25 7.50024C0.25 10.703 2.32715 13.4206 5.2081 14.3797C5.57084 14.446 5.70302 14.2222 5.70302 14.0299C5.70302 13.8576 5.69679 13.4019 5.69323 12.797C3.67661 13.235 3.25112 11.825 3.25112 11.825C2.92132 10.9874 2.44599 10.7644 2.44599 10.7644C1.78773 10.3149 2.49584 10.3238 2.49584 10.3238C3.22353 10.375 3.60629 11.0711 3.60629 11.0711C4.25298 12.1788 5.30335 11.8588 5.71638 11.6732C5.78225 11.205 5.96962 10.8854 6.17658 10.7043C4.56675 10.5209 2.87415 9.89918 2.87415 7.12104C2.87415 6.32925 3.15677 5.68257 3.62053 5.17563C3.54576 4.99226 3.29697 4.25521 3.69174 3.25691C3.69174 3.25691 4.30015 3.06196 5.68522 3.99973C6.26337 3.83906 6.8838 3.75895 7.50022 3.75583C8.1162 3.75895 8.73619 3.83906 9.31523 3.99973C10.6994 3.06196 11.3069 3.25691 11.3069 3.25691C11.7026 4.25521 11.4538 4.99226 11.3795 5.17563C11.8441 5.68257 12.1245 6.32925 12.1245 7.12104C12.1245 9.9063 10.4292 10.5192 8.81452 10.6985C9.07444 10.9224 9.30633 11.3648 9.30633 12.0413C9.30633 13.0102 9.29742 13.7922 9.29742 14.0299C9.29742 14.2239 9.42828 14.4496 9.79591 14.3788C12.6746 13.4179 14.75 10.7025 14.75 7.50024C14.75 3.49593 11.5036 0.25 7.49933 0.25Z" fill="currentColor"></path>
  </symbol>
  
</svg>