<svg width="0" height="0" class="hidden">
  <symbol id="MongoDB-fill" xmlns="http://www.w3.org/2000/svg" viewBox="0 0 256 256">
    <circle id="Ellipse_1" cx="128" cy="128" r="128" fill="#8892b0"></circle>
    <path id="Path_45" d="M445.755,266.072c-8.08-35.66-27.176-47.385-29.232-51.865A54.21,54.21,0,0,1,412,205.425c-.038-.095-.1-.262-.167-.425-.232,3.161-.352,4.38-3.34,7.568-4.627,3.618-28.367,23.538-30.3,64.053-1.8,37.786,27.3,60.3,31.231,63.173l.447.317v-.027c.025.19,1.249,8.994,2.109,18.324h3.083a181.542,181.542,0,0,1,3.248-19.62l.25-.162a51.089,51.089,0,0,0,5.024-4.11l.18-.162a72.49,72.49,0,0,0,23.256-54.1,86.716,86.716,0,0,0-1.262-14.181Zm-34.106,52.387s0-53,1.749-52.987c1.364,0,3.131,68.36,3.131,68.36C414.1,333.54,411.648,322.582,411.648,318.459Z" transform="translate(-283.641 -153.782)" fill="#06071c"></path>
  </symbol>
  <symbol xmlns="http://www.w3.org/2000/svg" viewBox="0 0 376.952 256" id="MySQL">
    <g id="Group_195" transform="translate(2731.534 -3095.089)">
      <path id="Path_59" d="M98.436,169.566H83.891q-.772-36.826-4.247-69.259h-.129L57.37,169.566H46.3L24.283,100.306h-.126q-2.449,31.147-3.089,69.259H7.81q1.282-46.346,6.434-86.9H32.271l20.981,63.855h.129L74.492,82.664H91.741q5.666,47.505,6.695,86.9m63.079-64.116q-8.883,48.205-23.432,70.063-11.332,16.83-24.846,16.836a24.422,24.422,0,0,1-8.882-2.164v-7.749a42.778,42.778,0,0,0,6.048.388q6.315,0,10.174-3.48,4.629-4.241,4.629-9.522,0-3.617-3.6-14.806l-15.962-49.568h14.289l11.456,37.072q3.862,12.627,3.218,17.642a242.158,242.158,0,0,0,13.134-54.717h13.775v.006Z" transform="translate(-2739.344 3158.741)" fill="#5d87a1"></path>
      <path id="Path_60" d="M250.217,170.4H208.9V83.5h13.9v76.2h27.418Zm-52.131,2.1-15.976-7.884a29.69,29.69,0,0,0,3.991-3.881q10.186-11.965,10.177-35.4,0-43.125-33.854-43.132-16.6,0-25.877,10.947-10.177,11.973-10.172,35.276,0,22.914,9.008,33.59,8.242,9.659,24.854,9.663a40.044,40.044,0,0,0,11.377-1.526l20.8,12.108Zm-51.752-19.489q-5.278-8.491-5.278-27.283,0-32.821,19.955-32.834,10.434,0,15.315,7.847,5.27,8.5,5.281,27.035,0,33.091-19.953,33.092-10.439,0-15.321-7.858m-26.015-6.7a23.055,23.055,0,0,1-8.106,18.151q-8.111,7.074-21.746,7.08-12.749,0-24.717-8.117l3.735-7.462q10.3,5.156,18.657,5.146,7.854,0,12.3-3.463A11.8,11.8,0,0,0,105.172,148c0-5.163-3.6-9.576-10.205-13.272-6.091-3.345-18.272-10.337-18.272-10.337-6.6-4.812-9.907-9.978-9.907-18.488q0-10.565,7.4-17.055,7.407-6.514,19.121-6.507a39.644,39.644,0,0,1,22,6.439l-3.35,7.465a42.546,42.546,0,0,0-16.726-3.6c-4.455,0-7.9,1.071-10.287,3.221a10.766,10.766,0,0,0-3.9,8.244c0,5.138,3.676,9.607,10.461,13.376,6.172,3.35,18.657,10.464,18.657,10.464,6.771,4.8,10.152,9.921,10.152,18.365" transform="translate(-2634.437 3157.908)" fill="#f8981d"></path>
      <path id="Path_61" d="M229.191,147.815c-8.4-.214-14.91.632-20.371,2.943-1.577.63-4.084.63-4.3,2.622.852.843.95,2.2,1.689,3.367a24.4,24.4,0,0,0,5.458,6.4c2.2,1.686,4.41,3.356,6.726,4.826,4.084,2.527,8.713,4,12.693,6.515,2.319,1.464,4.623,3.359,6.945,4.935,1.141.84,1.872,2.2,3.353,2.729v-.32c-.742-.944-.953-2.31-1.681-3.362l-3.153-3.041a49.974,49.974,0,0,0-10.916-10.6c-3.362-2.316-10.714-5.464-12.077-9.337l-.214-.214a41.828,41.828,0,0,0,7.246-1.7c3.572-.942,6.83-.728,10.495-1.67,1.686-.422,3.359-.95,5.051-1.47v-.947c-1.9-1.892-3.255-4.4-5.253-6.192a139.8,139.8,0,0,0-17.325-12.915c-3.26-2.105-7.454-3.46-10.925-5.25-1.251-.632-3.359-.944-4.1-2-1.883-2.31-2.943-5.351-4.309-8.086-3.035-5.77-5.984-12.173-8.6-18.275-1.894-4.092-3.047-8.179-5.357-11.965-10.821-17.847-22.572-28.657-40.633-39.267-3.881-2.209-8.5-3.151-13.432-4.309l-7.878-.416c-1.681-.736-3.364-2.735-4.831-3.679-5.992-3.777-21.42-11.965-25.827-1.155-2.839,6.833,4.2,13.55,6.616,17.016,1.785,2.406,4.1,5.143,5.346,7.875.739,1.785.947,3.679,1.686,5.565,1.681,4.621,3.252,9.761,5.461,14.073a50.1,50.1,0,0,0,3.881,6.5c.843,1.164,2.31,1.678,2.631,3.575-1.464,2.091-1.58,5.247-2.42,7.873-3.777,11.864-2.3,26.56,3.052,35.279,1.675,2.625,5.672,8.4,11.018,6.189,4.733-1.889,3.685-7.873,5.045-13.12.312-1.268.107-2.1.736-2.931v.205c1.464,2.937,2.943,5.767,4.3,8.713,3.258,5.141,8.929,10.5,13.654,14.059,2.515,1.9,4.508,5.149,7.659,6.31v-.315h-.208a11.763,11.763,0,0,0-2.409-2.094,50.984,50.984,0,0,1-5.461-6.3A135.243,135.243,0,0,1,136.5,125.344c-1.692-3.26-3.151-6.824-4.514-10.079-.635-1.256-.635-3.151-1.689-3.783-1.58,2.308-3.881,4.306-5.034,7.133-2,4.522-2.206,10.085-2.948,15.869l-.413.2c-3.345-.84-4.508-4.3-5.779-7.237-3.145-7.459-3.673-19.433-.944-28.039.731-2.2,3.893-9.132,2.631-11.228-.632-2.01-2.735-3.154-3.887-4.736a42.68,42.68,0,0,1-3.783-6.717c-2.518-5.877-3.786-12.389-6.5-18.263a56.562,56.562,0,0,0-5.25-8.092c-2-2.833-4.2-4.829-5.784-8.187-.523-1.155-1.256-3.044-.416-4.3a1.672,1.672,0,0,1,1.47-1.369c1.36-1.15,5.247.312,6.611.944a53.2,53.2,0,0,1,10.4,5.247c1.47,1.054,3.047,3.05,4.933,3.575h2.209c3.353.731,7.133.2,10.29,1.152a67.591,67.591,0,0,1,15.121,7.24A93.164,93.164,0,0,1,175.967,90.59c1.256,2.412,1.79,4.621,2.937,7.136,2.212,5.149,4.947,10.4,7.142,15.439,2.206,4.933,4.309,9.969,7.459,14.067,1.571,2.2,7.884,3.359,10.714,4.514,2.094.942,5.354,1.779,7.243,2.934,3.572,2.2,7.131,4.727,10.489,7.147,1.672,1.259,6.928,3.884,7.24,5.987M122.09,56.571a16.358,16.358,0,0,0-4.3.528v.211h.2c.846,1.678,2.316,2.842,3.364,4.306.846,1.684,1.58,3.353,2.409,5.034l.2-.208c1.481-1.048,2.218-2.729,2.218-5.25a24,24,0,0,1-1.268-2.2c-.618-1.051-1.982-1.574-2.83-2.417" transform="translate(-2595.963 3064.483)" fill="#5d87a1"></path>
      <path id="Path_62" d="M154.46,120.438h2.175V109.792h-3.263l-2.662,7.265-2.892-7.265h-3.142v10.647h2.055v-8.1h.115l3.03,8.1h1.566l3.019-8.1v8.1Zm-17.524,0h2.3V111.6h3.013v-1.807H133.8V111.6h3.134l.006,8.842Z" transform="translate(-2511.231 3207.854)" fill="#f8981d"></path>
    </g>
  </symbol>
  <symbol xmlns="http://www.w3.org/2000/svg" viewBox="0 0 49.437 49.437" id="Wordpress">
    <path id="wordpress-svgrepo-com" d="M3.532,30a20.47,20.47,0,0,1,1.837-8.617l10.1,27.683A21.125,21.125,0,0,1,3.534,30Zm35.521-1.06c0,1.837-.707,3.885-1.625,6.85l-2.12,7.062-7.7-22.811c1.272-.07,2.472-.212,2.472-.212a.85.85,0,1,0-.142-1.695s-3.46.212-5.65.212c-2.12,0-5.58-.212-5.58-.212a.85.85,0,0,0-.142,1.695s1.06.142,2.19.212l3.32,9.039L19.417,42.991,11.72,20.04c1.272-.07,2.4-.212,2.4-.212a.852.852,0,1,0-.142-1.695s-3.39.212-5.65.212H6.987A21.23,21.23,0,0,1,39.05,14.391a.54.54,0,0,0-.282-.07,3.709,3.709,0,0,0-3.6,3.815c0,1.695,1.06,3.177,2.12,4.945a11.52,11.52,0,0,1,1.765,5.862Zm-20.339,21.4,6.357-18.5L31.638,49.7a.36.36,0,0,0,.142.282,21.516,21.516,0,0,1-13.064.353ZM43.29,19.83A20.753,20.753,0,0,1,45.9,30,21.332,21.332,0,0,1,35.38,48.361l6.5-18.786a19.729,19.729,0,0,0,1.555-7.557,10.971,10.971,0,0,0-.142-2.19ZM24.718,5.281A24.718,24.718,0,1,1,0,30,24.746,24.746,0,0,1,24.718,5.281Zm0,48.3A23.588,23.588,0,1,0,1.13,30,23.631,23.631,0,0,0,24.718,53.586Z" transform="translate(0 -5.281)" fill="#00d8ff"></path>
  </symbol>
  <symbol id="Node.js-fill" xmlns="http://www.w3.org/2000/svg" viewBox="0 0 256 288.464">
    <path id="Path_26" d="M128,288.464a23.239,23.239,0,0,1-11.13-2.915L81.623,264.613c-5.3-2.915-2.65-3.975-1.06-4.505,7.155-2.385,8.48-2.915,15.9-7.156a2.438,2.438,0,0,1,2.65.265l27.031,16.166a3.368,3.368,0,0,0,3.18,0l105.739-61.217a3.044,3.044,0,0,0,1.59-2.915V83.081a3.045,3.045,0,0,0-1.59-2.915L129.325,19.213a3.367,3.367,0,0,0-3.18,0L20.406,80.166a3.325,3.325,0,0,0-1.59,2.915v122.17a3.325,3.325,0,0,0,1.59,2.915l28.886,16.695c15.636,7.951,25.441-1.325,25.441-10.6V93.681a3.223,3.223,0,0,1,3.18-3.18H91.429a3.223,3.223,0,0,1,3.18,3.18v120.58c0,20.936-11.4,33.126-31.271,33.126-6.1,0-10.866,0-24.381-6.625l-27.826-15.9A22.365,22.365,0,0,1,0,205.516V83.346A22.366,22.366,0,0,1,11.13,64L116.87,2.783a23.65,23.65,0,0,1,22.26,0L244.87,64A22.366,22.366,0,0,1,256,83.346v122.17a22.365,22.365,0,0,1-11.13,19.345L139.13,286.079A27.123,27.123,0,0,1,128,288.464Zm32.6-84.009c-46.377,0-55.917-21.2-55.917-39.221a3.222,3.222,0,0,1,3.18-3.18H121.64a2.724,2.724,0,0,1,2.915,2.65c2.12,14.045,8.215,20.936,36.306,20.936,22.261,0,31.8-5.035,31.8-16.961,0-6.89-2.651-11.925-37.367-15.371-28.886-2.915-46.907-9.275-46.907-32.331,0-21.466,18.021-34.186,48.232-34.186,33.921,0,50.617,11.66,52.737,37.1a4.274,4.274,0,0,1-.795,2.385,3.271,3.271,0,0,1-2.12,1.06h-13.78a3.105,3.105,0,0,1-2.916-2.385c-3.18-14.575-11.395-19.345-33.126-19.345-24.381,0-27.3,8.48-27.3,14.84,0,7.686,3.445,10.071,36.306,14.311,32.6,4.24,47.967,10.335,47.967,33.126-.265,23.321-19.345,36.571-53,36.571Z" fill="#8892b0"></path>
  </symbol>
  <symbol id="PHP-fill" xmlns="http://www.w3.org/2000/svg" viewBox="0 0 256 134.6">
    <ellipse id="Ellipse_2" cx="128" cy="67.3" rx="128" ry="67.3" transform="translate(0 0)" fill="#8892b0"></ellipse>
    <g id="Group_36" transform="translate(39 19.6)">
      <path id="Path_55" d="M74.8,48.2c5.6,0,9.3,1,11.2,3.1s2.3,5.6,1.3,10.6c-1,5.2-3,9-5.9,11.2s-7.3,3.3-13.2,3.3H59.3l5.5-28.2ZM39,105H53.7l3.5-17.9H69.8a43.729,43.729,0,0,0,13.7-1.8,26.263,26.263,0,0,0,9.8-5.9,30.009,30.009,0,0,0,6-7.5,29.177,29.177,0,0,0,3.2-9c1.6-8,.4-14.2-3.5-18.7s-10.1-6.7-18.6-6.7H52.1Z" transform="translate(-39 -19.6)" fill="#06071c"></path>
      <path id="Path_56" d="M113.3,19.6h14.6l-3.5,17.9h13c8.2,0,13.8,1.4,16.9,4.3s4,7.5,2.8,13.9L151,87.1H136.2L142,57.2c.7-3.4.4-5.7-.7-6.9s-3.6-1.9-7.3-1.9H122.3l-7.5,38.7H100.2Z" transform="translate(-39 -19.6)" fill="#06071c"></path>
      <path id="Path_57" d="M189.5,48.2c5.6,0,9.3,1,11.2,3.1s2.3,5.6,1.3,10.6c-1,5.2-3,9-5.9,11.2s-7.3,3.3-13.2,3.3H174l5.5-28.2ZM153.7,105h14.7l3.5-17.9h12.6a43.728,43.728,0,0,0,13.7-1.8,26.264,26.264,0,0,0,9.8-5.9,30.008,30.008,0,0,0,6-7.5,29.176,29.176,0,0,0,3.2-9c1.6-8,.4-14.2-3.5-18.7s-10.1-6.7-18.6-6.7H166.8Z" transform="translate(-39 -19.6)" fill="#06071c"></path>
    </g>
  </symbol>
  <symbol xmlns="http://www.w3.org/2000/svg" viewBox="0 0 244.246 256" id="sql-fill">
    <path id="sql-database-sql-azure-svgrepo-com" d="M9.712,729.816A37.887,37.887,0,0,1-17.194,708.5a34.26,34.26,0,0,1-3.086-15.116c.044-16.617,10.493-30.493,26.726-35.5,2.99-.921,4.964-1.165,9.549-1.177a60.774,60.774,0,0,1,7.79.374l2.01.39,2.474-4.8a51.409,51.409,0,0,1,23.105-22.615c8.4-4.206,13.674-5.429,23.421-5.429,6.827,0,8.411.164,12.816,1.332a53.789,53.789,0,0,1,38.513,38.779c1.168,4.71,1.751,15.271,1.072,19.414l-.464,2.829,2.664.6a22.622,22.622,0,0,1,15.384,12.454,21.759,21.759,0,0,1-1.335,20.166,24,24,0,0,1-8.716,7.828c-1.59.761-3.284,1.59-3.764,1.842-1.078.566-118.4.515-121.253-.052Zm121.969-6.944a17.727,17.727,0,0,0,7.922-8.905,15.584,15.584,0,0,0-8.432-19.453c-1.892-.842-3.3-1.037-7.25-1-2.7.026-4.9-.144-4.9-.378s.5-2.421,1.113-4.861A53.085,53.085,0,0,0,120.1,666a47.867,47.867,0,0,0-24.949-30.79,40.635,40.635,0,0,0-17.7-4.26c-10.474-.427-17.786,1.223-25.844,5.833-9.4,5.376-17.5,15.118-20.635,24.82-.6,1.866-1.336,3.39-1.627,3.386a30.8,30.8,0,0,1-3.8-1.082c-5-1.645-13.523-1.545-18.512.217a30.961,30.961,0,0,0-12.4,7.8,30.129,30.129,0,0,0-8.776,21.466A30.558,30.558,0,0,0,3.423,721.348c6.254,2.974,4.09,2.885,67.6,2.786l58.3-.091,2.357-1.172Zm-168.206-23.5c-21.091-2.858-37.325-8.154-49.333-16.094-4.955-3.276-8.376-6.94-10.3-11.037l-1.437-3.052.132-82.636.132-82.636,1.2-2.251c3.033-5.691,8.947-10.547,18.363-15.078,11.905-5.729,25.635-9.31,44.766-11.678,7.879-.975,34.633-.8,42.719.275,29.775,3.97,52.88,13.7,60.246,25.365,2.9,4.6,2.827,2.931,2.827,63.005v55.155l-1.633.253c-.9.139-2.933.392-4.522.561-16.4,1.751-33.4,13.086-42.116,28.076l-1.785,3.069-7.01.331c-8.283.391-12.5,1.452-18.8,4.727a42.665,42.665,0,0,0-21.693,27.358,37.286,37.286,0,0,0-1.145,10.68l-.037,6.408-2.777-.059c-1.527-.033-5.038-.366-7.8-.74ZM6.352,623.2c-3.956-3.357-7.378-6.267-7.6-6.466s.6-.952,1.826-1.673a23.806,23.806,0,0,0,7.731-8.421,26.6,26.6,0,0,0-.212-23.685c-4.151-7.973-12.838-12.156-22.679-10.92-5.389.677-8.765,2.188-12.325,5.519-5.62,5.257-7.566,10.415-7.27,19.267.168,5.033.347,5.938,1.787,8.993,3.1,6.575,9.575,11.489,16.174,12.271,2.482.294,2.7.457,7.631,5.761l5.077,5.459H13.544l-7.193-6.1Zm-21.522-17.14c-3.456-1.754-4.769-4.758-4.769-10.918,0-4.008.194-5.178,1.179-7.182a8.017,8.017,0,0,1,7.8-4.776c3.032.342,4.608,1.568,6.211,4.833,1.217,2.478,1.393,3.417,1.378,7.363,0,4.868-.879,7.364-3.327,9.641-2.558,2.379-5.193,2.7-8.473,1.039ZM-49.947,617.73c9.088-2.1,14.024-9.707,11.407-17.587-1.318-3.968-4.1-6.446-10.905-9.7a40.146,40.146,0,0,1-6.243-3.418c-1.144-1.47-1.141-2.443,0-3.78,1.77-2.058,5.8-2.156,11.255-.275l4.162,1.435-.143-5.554-.143-5.554-2.764-.657c-4.18-.994-13.215-.945-16.77.09-7.128,2.076-10.884,6.735-10.86,13.47.037,6.932,3.147,10.218,14.144,14.884,4.653,1.974,5.185,5.664,1.027,7.108-1.925.668-2.473.656-5.518-.131a35.963,35.963,0,0,1-6.271-2.372l-2.89-1.5v12.026l2.89.8c1.589.443,3.116.883,3.392.979,1.149.4,12.228.192,14.219-.268Zm97.1-5.258V607.2H31.072V572.518H18v45.232H47.154v-5.277Zm-38.7-90.483c13.105-1.519,23.86-4.266,30.657-7.831,4.466-2.342,5.537-3.186,7.253-5.715,5.308-7.823-6.578-15.688-29.618-19.6C-4.9,485.171-33.423,486-51.68,490.838c-37.67,9.978-22.82,28.308,25.862,31.922a253.812,253.812,0,0,0,34.274-.771Z" transform="translate(97.599 -474.268)" fill="#8892b0"></path>
  </symbol>
  <symbol id="Typescript-fill" xmlns="http://www.w3.org/2000/svg" viewBox="0 0 256 256">
    <path id="Path_50" d="M0-128V0H256V-256H0Z" transform="translate(0 256)" fill="#8892b0"></path>
    <path id="Path_51" d="M146.658,223.437l.081-10.484h-33.32V118.274H89.851v94.679H56.53v10.281a100.756,100.756,0,0,0,.284,10.565c.122.162,20.4.244,44.983.2l44.739-.122Z" transform="translate(203.269 352.286) rotate(180)" fill="#06071c"></path>
    <path id="Path_52" d="M206.567-234.272a31.862,31.862,0,0,1,16.01,9.224c2.357,2.519,5.851,7.111,6.136,8.208.081.325-11.053,7.8-17.8,11.988-.244.162-1.219-.894-2.317-2.52-3.291-4.8-6.745-6.867-12.028-7.233-7.761-.528-12.759,3.535-12.718,10.321a9.381,9.381,0,0,0,1.1,4.795c1.707,3.536,4.876,5.649,14.832,9.956,18.326,7.883,26.168,13.084,31.045,20.48,5.445,8.249,6.664,21.415,2.966,31.208-4.063,10.646-14.141,17.879-28.323,20.276-4.388.772-14.791.651-19.5-.2-10.281-1.828-20.033-6.908-26.047-13.572-2.357-2.6-6.949-9.387-6.664-9.874a19.076,19.076,0,0,1,2.356-1.5c1.138-.65,5.446-3.129,9.509-5.485l7.355-4.267,1.544,2.275c2.154,3.292,6.867,7.8,9.712,9.306,8.167,4.307,19.383,3.7,24.909-1.26a9.421,9.421,0,0,0,3.332-7.68,9.378,9.378,0,0,0-1.91-6.5c-1.991-2.845-6.054-5.242-17.6-10.24-13.206-5.689-18.9-9.224-24.1-14.832a33.754,33.754,0,0,1-7.03-12.8c-.975-3.617-1.219-12.678-.447-16.335,2.723-12.76,12.353-21.659,26.25-24.3C191.654-235.694,202.137-235.369,206.567-234.272Z" transform="translate(0 352.38)" fill="#06071c"></path>
  </symbol>
  <symbol xmlns="http://www.w3.org/2000/svg" viewBox="0 0 301.475 240.157" id="Bootstrap-fill">
    <path id="bootstrap-fill-svgrepo-com" d="M62.617,2c-17.2,0-29.93,15.056-29.361,31.384.547,15.687-.164,36-5.278,52.572C22.848,102.572,14.172,113.1,0,114.45v15.257c14.172,1.352,22.848,11.878,27.978,28.5,5.115,16.567,5.825,36.884,5.278,52.571-.57,16.326,12.159,31.384,29.363,31.384H238.88c17.2,0,29.929-15.055,29.359-31.384-.546-15.687.163-36,5.278-52.571,5.133-16.618,13.786-27.144,27.958-28.5V114.45c-14.172-1.352-22.825-11.878-27.958-28.495-5.115-16.566-5.825-36.885-5.278-52.572C268.809,17.058,256.083,2,238.88,2H62.617ZM204.39,149.832c0,22.484-16.771,36.119-44.6,36.119H112.414a5.111,5.111,0,0,1-5.11-5.11V63.317a5.11,5.11,0,0,1,5.11-5.11h47.1c23.2,0,38.434,12.57,38.434,31.869,0,13.546-10.244,25.674-23.3,27.8v.708C192.425,120.531,204.39,132.835,204.39,149.832ZM154.624,74.405H127.611V112.56h22.751c17.587,0,27.286-7.082,27.286-19.742C177.648,80.956,169.308,74.405,154.624,74.405ZM127.611,127.7v42.048h28.007c18.311,0,28.011-7.348,28.011-21.157S173.657,127.7,154.439,127.7H127.611Z" transform="translate(0 -2)" fill="#8892b0" fill-rule="evenodd"></path>
  </symbol>
  <symbol id="React JS-fill" xmlns="http://www.w3.org/2000/svg" viewBox="0 0 256 227.767">
    <path id="Path_25" d="M210.483,73.824q-3.982-1.371-8.241-2.6.7-2.851,1.274-5.621c6.238-30.281,2.159-54.676-11.769-62.708-13.355-7.7-35.2.329-57.254,19.525q-3.182,2.769-6.375,5.849-2.124-2.033-4.241-3.917C100.759,3.829,77.587-4.822,63.673,3.233,50.33,10.957,46.379,33.89,51.994,62.588q.813,4.158,1.893,8.481c-3.28.931-6.446,1.923-9.475,2.979C17.309,83.5,0,98.307,0,113.668c0,15.865,18.582,31.778,46.812,41.427q3.342,1.143,6.922,2.165-1.16,4.67-2.01,9.138c-5.354,28.2-1.173,50.591,12.134,58.266,13.745,7.926,36.812-.221,59.273-19.855q2.664-2.328,5.342-4.923,3.471,3.342,6.921,6.314c21.757,18.722,43.245,26.282,56.539,18.586,13.731-7.949,18.194-32,12.4-61.268q-.663-3.353-1.535-6.842,2.43-.718,4.76-1.488C236.9,145.465,256,129.745,256,113.668c0-15.417-17.868-30.326-45.517-39.844Zm-6.365,70.984q-2.1.694-4.3,1.345a256.553,256.553,0,0,0-12.963-32.432,256.471,256.471,0,0,0,12.459-31.957q3.929,1.137,7.61,2.4c23.689,8.155,38.14,20.213,38.14,29.5,0,9.9-15.606,22.743-40.946,31.14ZM193.6,165.642c2.562,12.941,2.927,24.641,1.231,33.787-1.525,8.219-4.591,13.7-8.383,15.893-8.067,4.669-25.32-1.4-43.927-17.412q-3.2-2.754-6.437-5.87a256.786,256.786,0,0,0,21.459-27.246,255.239,255.239,0,0,0,34.671-5.345q.783,3.16,1.386,6.193ZM87.276,214.515c-7.882,2.783-14.16,2.863-17.955.675-8.075-4.657-11.432-22.636-6.853-46.752q.787-4.143,1.868-8.5a257.23,257.23,0,0,0,34.5,4.994,266.272,266.272,0,0,0,21.976,27.15q-2.449,2.364-4.877,4.492c-9.933,8.682-19.886,14.842-28.658,17.94ZM50.349,144.747c-12.483-4.267-22.792-9.812-29.858-15.863-6.349-5.437-9.555-10.836-9.555-15.216,0-9.322,13.9-21.212,37.077-29.293,2.812-.981,5.757-1.9,8.812-2.773A262.146,262.146,0,0,0,69.3,113.934a266.445,266.445,0,0,0-12.634,32.792q-3.267-.94-6.319-1.979ZM62.727,60.488C57.916,35.9,61.111,17.353,69.152,12.7c8.564-4.958,27.5,2.111,47.463,19.835q1.914,1.7,3.841,3.545A262.032,262.032,0,0,0,98.648,63.066a267.278,267.278,0,0,0-34.161,5.309q-1-4.02-1.76-7.887ZM173.154,87.755q-3.8-6.563-7.785-12.8c8.168,1.033,15.994,2.4,23.343,4.081a233.545,233.545,0,0,1-8.193,22.044q-3.484-6.613-7.365-13.322ZM128.122,43.894A233.909,233.909,0,0,1,143.187,62.08q-7.511-.355-15.187-.359-7.595,0-15.07.353C117.9,55.515,123,49.422,128.122,43.894ZM82.8,87.831q-3.8,6.582-7.227,13.238c-3.185-7.553-5.909-14.98-8.135-22.152,7.3-1.634,15.093-2.971,23.209-3.984q-4.033,6.29-7.848,12.9Zm8.081,65.352A232.746,232.746,0,0,1,67.29,149.39c2.261-7.3,5.046-14.885,8.3-22.6q3.437,6.639,7.258,13.246h0q3.89,6.719,8.038,13.147Zm37.542,31.03c-5.184-5.592-10.354-11.779-15.4-18.433q7.353.288,14.978.291,7.827,0,15.453-.344a232.663,232.663,0,0,1-15.028,18.486Zm52.2-57.817a231.876,231.876,0,0,1,8.6,22.52,232,232,0,0,1-23.88,4.071q3.987-6.316,7.859-13.026,3.91-6.784,7.425-13.565Zm-16.9,8.1c-4,6.939-8.111,13.562-12.281,19.815-7.6.543-15.445.823-23.444.823-7.967,0-15.716-.248-23.178-.732-4.339-6.335-8.537-12.978-12.513-19.846h0c-3.966-6.85-7.616-13.758-10.923-20.627,3.306-6.884,6.947-13.8,10.89-20.637h0c3.953-6.856,8.114-13.467,12.413-19.761,7.613-.576,15.421-.876,23.311-.876h0c7.926,0,15.743.3,23.354.883,4.233,6.249,8.366,12.838,12.335,19.695,4.014,6.934,7.7,13.8,11.036,20.54-3.325,6.853-7,13.792-11,20.722Zm22.56-122.124c8.572,4.944,11.906,24.881,6.52,51.026q-.516,2.5-1.151,5.089a261.978,261.978,0,0,0-34.229-5.407,256.828,256.828,0,0,0-21.64-27.008q2.95-2.839,5.888-5.4c18.9-16.448,36.564-22.941,44.612-18.3ZM128,90.808a22.86,22.86,0,1,1-22.86,22.86A22.86,22.86,0,0,1,128,90.808Z" fill="#8892b0"></path>
  </symbol>
  
  <symbol id="PHP" xmlns="http://www.w3.org/2000/svg" xmlns:xlink="http://www.w3.org/1999/xlink" viewBox="0 0 256 134.6">
    <defs>
      <radialGradient id="radial-gradient" cx="0.3" cy="0.176" r="1.249" gradientTransform="translate(0.002) scale(0.526 1)" gradientUnits="objectBoundingBox">
        <stop offset="0" stop-color="#fff"></stop>
        <stop offset="0.5" stop-color="#4c6b97"></stop>
        <stop offset="1" stop-color="#231f20"></stop>
      </radialGradient>
    </defs>
    <ellipse id="Ellipse_2" cx="128" cy="67.3" rx="128" ry="67.3" transform="translate(0 0)" fill="url(#radial-gradient)"></ellipse>
    <ellipse id="Ellipse_3" cx="123" cy="62.3" rx="123" ry="62.3" transform="translate(5 5)" fill="#6181b6"></ellipse>
    <g id="Group_35" transform="translate(36.964 17.6)">
      <path id="Path_53" d="M152.9,87.5,159,56.1c1.4-7.1.2-12.4-3.4-15.7-3.5-3.2-9.5-4.8-18.3-4.8H126.7l3-15.6a2.09,2.09,0,0,0-.4-1.7,1.8,1.8,0,0,0-1.5-.7H113.2a2.043,2.043,0,0,0-2,1.6l-6.5,33.3a17.792,17.792,0,0,0-4.4-9.6c-4.3-4.9-11-7.4-20.1-7.4H52.1a2.043,2.043,0,0,0-2,1.6L37,104.7a2.09,2.09,0,0,0,.4,1.7,1.8,1.8,0,0,0,1.5.7H53.6a2.043,2.043,0,0,0,2-1.6l3.2-16.3H69.7A47.91,47.91,0,0,0,84,87.4a28.355,28.355,0,0,0,10.5-6.3,32.293,32.293,0,0,0,6.2-7.7L98.1,86.9a2.09,2.09,0,0,0,.4,1.7,1.8,1.8,0,0,0,1.5.7h14.6a2.043,2.043,0,0,0,2-1.6l7.2-37h10c4.3,0,5.5.8,5.9,1.2.3.3.9,1.5.2,5.2L134.1,87a2.09,2.09,0,0,0,.4,1.7,1.8,1.8,0,0,0,1.5.7h15A2.789,2.789,0,0,0,152.9,87.5Zm-67.6-26c-.9,4.7-2.6,8.1-5.1,10s-6.6,2.9-12,2.9H61.7l4.7-24.2h8.4c6.2,0,8.7,1.3,9.7,2.4C85.8,54.2,86.1,57.3,85.3,61.5Z" transform="translate(-36.964 -17.6)" fill="#fff"></path>
      <path id="Path_54" d="M215.3,42.9c-4.3-4.9-11-7.4-20.1-7.4H166.9a2.043,2.043,0,0,0-2,1.6l-13.1,67.5a2.09,2.09,0,0,0,.4,1.7,1.8,1.8,0,0,0,1.5.7h14.7a2.043,2.043,0,0,0,2-1.6l3.2-16.3h10.9a47.909,47.909,0,0,0,14.3-1.8A28.355,28.355,0,0,0,209.3,81a32.2,32.2,0,0,0,6.4-8,33.3,33.3,0,0,0,3.5-9.6C220.9,54.7,219.6,47.9,215.3,42.9ZM200,61.5c-.9,4.7-2.6,8.1-5.1,10s-6.6,2.9-12,2.9h-6.5l4.7-24.2h8.4c6.2,0,8.7,1.3,9.7,2.4C200.6,54.2,200.9,57.3,200,61.5Z" transform="translate(-36.964 -17.6)" fill="#fff"></path>
    </g>
    <g id="Group_36" transform="translate(39 19.6)">
      <path id="Path_55" d="M74.8,48.2c5.6,0,9.3,1,11.2,3.1s2.3,5.6,1.3,10.6c-1,5.2-3,9-5.9,11.2s-7.3,3.3-13.2,3.3H59.3l5.5-28.2ZM39,105H53.7l3.5-17.9H69.8a43.729,43.729,0,0,0,13.7-1.8,26.263,26.263,0,0,0,9.8-5.9,30.009,30.009,0,0,0,6-7.5,29.177,29.177,0,0,0,3.2-9c1.6-8,.4-14.2-3.5-18.7s-10.1-6.7-18.6-6.7H52.1Z" transform="translate(-39 -19.6)" fill="#000004"></path>
      <path id="Path_56" d="M113.3,19.6h14.6l-3.5,17.9h13c8.2,0,13.8,1.4,16.9,4.3s4,7.5,2.8,13.9L151,87.1H136.2L142,57.2c.7-3.4.4-5.7-.7-6.9s-3.6-1.9-7.3-1.9H122.3l-7.5,38.7H100.2Z" transform="translate(-39 -19.6)" fill="#000004"></path>
      <path id="Path_57" d="M189.5,48.2c5.6,0,9.3,1,11.2,3.1s2.3,5.6,1.3,10.6c-1,5.2-3,9-5.9,11.2s-7.3,3.3-13.2,3.3H174l5.5-28.2ZM153.7,105h14.7l3.5-17.9h12.6a43.728,43.728,0,0,0,13.7-1.8,26.264,26.264,0,0,0,9.8-5.9,30.008,30.008,0,0,0,6-7.5,29.176,29.176,0,0,0,3.2-9c1.6-8,.4-14.2-3.5-18.7s-10.1-6.7-18.6-6.7H166.8Z" transform="translate(-39 -19.6)" fill="#000004"></path>
    </g>
  </symbol>
  <symbol xmlns="http://www.w3.org/2000/svg" viewBox="0 0 240.157 240.157" id="Illustrator">
    <g id="adobe-illustrator-svgrepo-com" transform="translate(-2 -2)">
      <path id="Path_30" d="M2,88.914C2,58.491,2,43.28,7.921,31.66A54.322,54.322,0,0,1,31.66,7.921C43.28,2,58.491,2,88.914,2h66.33c30.423,0,45.634,0,57.254,5.921a54.322,54.322,0,0,1,23.74,23.739c5.921,11.62,5.921,26.831,5.921,57.254v66.33c0,30.423,0,45.634-5.921,57.254a54.322,54.322,0,0,1-23.74,23.74c-11.619,5.921-26.831,5.921-57.254,5.921H88.914c-30.423,0-45.634,0-57.254-5.921A54.322,54.322,0,0,1,7.921,212.5C2,200.878,2,185.666,2,155.244Z" fill="#300"></path>
      <path id="Path_31" d="M74.589,92.591H37.374L29.8,116.716a1.92,1.92,0,0,1-1.933,1.486H9.019q-1.612,0-1.128-1.817L40.112,21.208q.484-1.487.967-3.387a36.266,36.266,0,0,0,.645-6.692,1.025,1.025,0,0,1,1.127-1.157H68.467q1.126,0,1.288.826L106.327,116.55q.482,1.653-.967,1.652H84.416a1.506,1.506,0,0,1-1.611-1.156ZM43.173,71.771H68.628c-4.182-14.291-8.9-28.394-12.727-42.8C51.774,43.4,47.271,57.77,43.173,71.771Z" transform="translate(43.79 60.333)" fill="#ff9a00"></path>
      <path id="Path_32" d="M32.631,34.781a11.431,11.431,0,0,1-4.809-.847,11.669,11.669,0,0,1-4.052-2.788,13.143,13.143,0,0,1-2.608-4.363,13.379,13.379,0,0,1-.775-5.055,12.408,12.408,0,0,1,.859-4.982,12.154,12.154,0,0,1,2.767-4.189,12.405,12.405,0,0,1,4.124-2.695A12.168,12.168,0,0,1,32.953,9q5.8,0,9.1,3.553A12.818,12.818,0,0,1,44.6,16.8a13.052,13.052,0,0,1,.76,4.923,13.193,13.193,0,0,1-.8,5.07,12.955,12.955,0,0,1-2.664,4.349,12.34,12.34,0,0,1-4.26,2.812A12.085,12.085,0,0,1,32.631,34.781ZM21.514,123.843V44.861c0-.992.428-1.487,1.289-1.487H42.62q1.287,0,1.288,1.487v78.983q0,1.654-1.288,1.653H22.965Q21.515,125.5,21.514,123.843Z" transform="translate(139.233 53.039)" fill="#ff9a00"></path>
    </g>
  </symbol>
  <symbol xmlns="http://www.w3.org/2000/svg" viewBox="0 0 240.157 240.157" id="Photoshop">
    <g id="adobe-photoshop-svgrepo-com" transform="translate(-2 -2)">
      <path id="Path_33" d="M2,88.914C2,58.491,2,43.28,7.921,31.66A54.322,54.322,0,0,1,31.66,7.921C43.28,2,58.491,2,88.914,2h66.33c30.423,0,45.634,0,57.254,5.921a54.322,54.322,0,0,1,23.74,23.739c5.921,11.62,5.921,26.831,5.921,57.254v66.33c0,30.423,0,45.634-5.921,57.254a54.322,54.322,0,0,1-23.74,23.74c-11.619,5.921-26.831,5.921-57.254,5.921H88.914c-30.423,0-45.634,0-57.254-5.921A54.322,54.322,0,0,1,7.921,212.5C2,200.878,2,185.666,2,155.244Z" fill="#001e36"></path>
      <path id="Path_34" d="M8,117.352V11.745c0-.718.3-1.129,1-1.129,10.341,0,20.677-.616,31.02-.616,16.784,0,34.957,5.739,41.328,23.3a40.187,40.187,0,0,1,2.3,13.342q0,13.24-6,21.86C66.465,84.554,47.086,84.3,29.715,84.3V117.25c.136.975-.7,1.437-1.5,1.437H9.2C8.4,118.687,8,118.276,8,117.352ZM29.814,30.424V64.908c6.888.5,14.1.559,20.714-1.642,7.307-2.108,11.308-8.432,11.308-16.011.2-6.458-3.316-12.654-9.306-14.984C45.991,29.552,36.872,29.389,29.814,30.424Z" transform="translate(45.462 60.616)" fill="#31a8ff"></path>
      <path id="Path_35" d="M69.93,36.047a37.015,37.015,0,0,0-9.587-3.47c-4.283-1.008-21.178-4.538-21.185,4.3.15,4.932,7.979,7.348,11.438,8.757,12.144,4.169,25.886,11.622,25.616,26.6.371,18.65-17.7,26.106-33.188,26.108-8.063.083-16.464-1.166-23.843-4.627a2.186,2.186,0,0,1-1.128-1.983V73.886c-.08-.715.689-1.341,1.289-.826a48.293,48.293,0,0,0,24.166,6.609c3.692,0,11.01-.358,10.955-5.784,0-5.206-8.755-7.6-12.245-8.923a58.667,58.667,0,0,1-14.258-7.435A23.192,23.192,0,0,1,18.053,38.36c-.036-17.561,16.6-25.443,31.577-25.446,7-.058,14.523.461,21.041,3.3.937.275,1.131,1.263,1.128,2.148V35.056A1.211,1.211,0,0,1,69.93,36.047Z" transform="translate(121.594 82.664)" fill="#31a8ff"></path>
    </g>
  </symbol>
  <symbol xmlns="http://www.w3.org/2000/svg" viewBox="0 0 240.157 240.157" id="Adobe XD">
    <g id="adobe-xd-svgrepo-com" transform="translate(-2 -2)">
      <path id="Path_36" d="M2,88.914C2,58.491,2,43.28,7.921,31.66A54.322,54.322,0,0,1,31.66,7.921C43.28,2,58.491,2,88.914,2h66.33c30.423,0,45.634,0,57.254,5.921a54.322,54.322,0,0,1,23.74,23.739c5.921,11.62,5.921,26.831,5.921,57.254v66.33c0,30.423,0,45.634-5.921,57.254a54.322,54.322,0,0,1-23.74,23.74c-11.619,5.921-26.831,5.921-57.254,5.921H88.914c-30.423,0-45.634,0-57.254-5.921A54.322,54.322,0,0,1,7.921,212.5C2,200.878,2,185.666,2,155.244Z" fill="#470137"></path>
      <path id="Path_37" d="M97.316,11.7,67.35,62.433,99.409,116.3c.666,1.221,0,1.492-.966,1.492H75.567c-1.612,0-2.74-.058-3.384-1.16q-3.225-6.444-6.445-12.806T58.892,90.853q-3.626-6.606-7.17-13.384c-2.149,4.407-4.54,8.813-6.847,13.219s-4.593,8.785-6.847,13.136S33.464,112.5,31.1,116.8c-.43.992-1.183,1.094-2.256,1.094H6.774c-.867,0-.972-.652-.483-1.424l31.093-52.38L7.1,11.539A.888.888,0,0,1,7.9,10.052H30.617a2.6,2.6,0,0,1,2.417,1.157q2.9,6.61,6.444,13.219t7.169,13.053c2.417,4.3,4.807,8.647,6.847,13.054q3.22-6.774,6.525-13.219t6.766-12.971q3.463-6.525,6.686-12.971A1.705,1.705,0,0,1,75.4,10.052h21.1C97.316,10.052,97.648,11.153,97.316,11.7Z" transform="translate(30.308 60.917)" fill="#ff61f6"></path>
      <path id="Path_38" d="M59.184,127.814c-14.208.222-29.09-5.628-36.571-18.589q-5.478-9.334-5.477-23.381A44.012,44.012,0,0,1,22.613,64.2c9.415-16.83,28.382-23.136,46.4-21.48V10.165c0-.769.323-1.157.967-1.157h20.3a.874.874,0,0,1,.967.991v97.655c0,4.029.4,8.044.645,12.062a1.748,1.748,0,0,1-.967,1.653A81.732,81.732,0,0,1,59.184,127.814Zm9.828-20.49V62.215c-14.715-4.088-29,7.12-29,22.637C39.664,100.9,53.493,111.979,69.012,107.324Z" transform="translate(114.675 53.039)" fill="#ff61f6"></path>
    </g>
  </symbol>
  <symbol xmlns="http://www.w3.org/2000/svg" viewBox="0 0 301.475 240.157" id="Bootstrap">
    <path id="bootstrap-fill-svgrepo-com" d="M62.617,2c-17.2,0-29.93,15.056-29.361,31.384.547,15.687-.164,36-5.278,52.572C22.848,102.572,14.172,113.1,0,114.45v15.257c14.172,1.352,22.848,11.878,27.978,28.5,5.115,16.567,5.825,36.884,5.278,52.571-.57,16.326,12.159,31.384,29.363,31.384H238.88c17.2,0,29.929-15.055,29.359-31.384-.546-15.687.163-36,5.278-52.571,5.133-16.618,13.786-27.144,27.958-28.5V114.45c-14.172-1.352-22.825-11.878-27.958-28.495-5.115-16.566-5.825-36.885-5.278-52.572C268.809,17.058,256.083,2,238.88,2H62.617ZM204.39,149.832c0,22.484-16.771,36.119-44.6,36.119H112.414a5.111,5.111,0,0,1-5.11-5.11V63.317a5.11,5.11,0,0,1,5.11-5.11h47.1c23.2,0,38.434,12.57,38.434,31.869,0,13.546-10.244,25.674-23.3,27.8v.708C192.425,120.531,204.39,132.835,204.39,149.832ZM154.624,74.405H127.611V112.56h22.751c17.587,0,27.286-7.082,27.286-19.742C177.648,80.956,169.308,74.405,154.624,74.405ZM127.611,127.7v42.048h28.007c18.311,0,28.011-7.348,28.011-21.157S173.657,127.7,154.439,127.7H127.611Z" transform="translate(0 -2)" fill="#563d7c" fill-rule="evenodd"></path>
  </symbol>
  <symbol xmlns="http://www.w3.org/2000/svg" viewBox="0 0 256 256" id="Chakra UI">
    <path id="chakraui-svgrepo-com" d="M128,0A128,128,0,1,0,256,128,127.72,127.72,0,0,0,128,0Zm29.867,46.219a2,2,0,0,1,1.824,2.965L127.221,108.7a1.995,1.995,0,0,0,1.749,2.944h56.107a1.99,1.99,0,0,1,1.365,3.445L88.1,206.88a1.989,1.989,0,0,1-2.965-2.624l46.549-64.224a1.995,1.995,0,0,0-1.611-3.157H70.688a1.995,1.995,0,0,1-1.4-3.413l87.253-86.645a1.941,1.941,0,0,1,1.333-.6Z" fill="#2abfb3"></path>
  </symbol>
  <symbol xmlns="http://www.w3.org/2000/svg" viewBox="0 0 205.849 240.157" id="CSS">
    <g id="css-3-svgrepo-com" transform="translate(-4 -3)">
      <path id="Path_42" d="M21.154,217.426,4,3H209.849L192.7,217.426l-85.77,25.731Z" fill="#1172b8"></path>
      <path id="Path_43" d="M101.77,5H16V215.138L84.616,193.7Z" transform="translate(90.925 15.154)" fill="#3ad"></path>
      <path id="Path_44" d="M102.848,85.693H17.077l-4.289-30.02L81.4,34.231H12.789L8.5,8.5H141.444l-4.289,30.02L81.4,59.962h51.462l-8.577,81.482L72.828,158.6,21.366,141.444,17.077,98.559H42.808L47.1,120l25.731,8.577L98.559,120Z" transform="translate(34.097 41.674)" fill="#fff"></path>
    </g>
  </symbol>
  <symbol xmlns="http://www.w3.org/2000/svg" viewBox="0 0 205.849 240.157" id="HTML">
    <g id="html-5-svgrepo-com" transform="translate(-4 -3)">
      <path id="Path_39" d="M21.154,217.426,4,3H209.849L192.7,217.426l-85.77,25.731Z" fill="#e44d26"></path>
      <path id="Path_40" d="M101.77,5H16V215.138L84.616,193.7Z" transform="translate(90.925 15.154)" fill="#f16529"></path>
      <path id="Path_41" d="M17.077,89.482,8.5,8H141.444l-4.289,25.731H34.231l4.289,30.02h94.348l-8.577,81.482L72.828,162.387,21.366,145.233l-4.289-42.885H42.808L47.1,123.79l25.731,8.577,25.731-8.577,4.289-34.308Z" transform="translate(34.097 37.885)" fill="#fff"></path>
    </g>
  </symbol>
  <symbol id="Javascript" xmlns="http://www.w3.org/2000/svg" viewBox="0 0 256 256">
    <path id="Path_27" d="M0,0H256V256H0Z" fill="#f7df1e"></path>
    <path id="Path_28" d="M67.312,213.932,86.9,202.076c3.779,6.7,7.217,12.371,15.464,12.371,7.905,0,12.889-3.092,12.889-15.12v-81.8h24.058v82.138c0,24.917-14.606,36.259-35.916,36.259-19.245,0-30.416-9.967-36.087-22"></path>
    <path id="Path_29" d="M152.381,211.354l19.588-11.341c5.157,8.421,11.859,14.607,23.715,14.607,9.969,0,16.325-4.984,16.325-11.858,0-8.248-6.53-11.17-17.528-15.98l-6.013-2.579c-17.357-7.388-28.871-16.668-28.871-36.258,0-18.044,13.748-31.792,35.229-31.792,15.294,0,26.292,5.328,34.2,19.247l-18.731,12.029c-4.125-7.389-8.591-10.31-15.465-10.31-7.046,0-11.514,4.468-11.514,10.31,0,7.217,4.468,10.139,14.778,14.608l6.014,2.577c20.449,8.765,31.963,17.7,31.963,37.8,0,21.654-17.012,33.51-39.867,33.51-22.339,0-36.774-10.654-43.819-24.574"></path>
  </symbol>
  <symbol id="MySQL-fill" xmlns="http://www.w3.org/2000/svg" viewBox="0 0 376.952 256" >
    <g id="MySQL" transform="translate(2727.445 -4637.979)">
      <path id="Path_59" d="M98.436,169.566H83.891q-.772-36.826-4.247-69.259h-.129L57.37,169.566H46.3L24.283,100.306h-.126q-2.449,31.147-3.089,69.259H7.81q1.282-46.346,6.434-86.9H32.271l20.981,63.855h.129L74.492,82.664H91.741q5.666,47.505,6.695,86.9m63.079-64.116q-8.883,48.205-23.432,70.063-11.332,16.83-24.846,16.836a24.422,24.422,0,0,1-8.882-2.164v-7.749a42.778,42.778,0,0,0,6.048.388q6.315,0,10.174-3.48,4.629-4.241,4.629-9.522,0-3.617-3.6-14.806l-15.962-49.568h14.289l11.456,37.072q3.862,12.627,3.218,17.642a242.158,242.158,0,0,0,13.134-54.717h13.775v.006Z" transform="translate(-2735.255 4701.631)" fill="#8892b0"></path>
      <path id="Path_60" d="M250.217,170.4H208.9V83.5h13.9v76.2h27.418Zm-52.131,2.1-15.976-7.884a29.69,29.69,0,0,0,3.991-3.881q10.186-11.965,10.177-35.4,0-43.125-33.854-43.132-16.6,0-25.877,10.947-10.177,11.973-10.172,35.276,0,22.914,9.008,33.59,8.242,9.659,24.854,9.663a40.044,40.044,0,0,0,11.377-1.526l20.8,12.108Zm-51.752-19.489q-5.278-8.491-5.278-27.283,0-32.821,19.955-32.834,10.434,0,15.315,7.847,5.27,8.5,5.281,27.035,0,33.091-19.953,33.092-10.439,0-15.321-7.858m-26.015-6.7a23.055,23.055,0,0,1-8.106,18.151q-8.111,7.074-21.746,7.08-12.749,0-24.717-8.117l3.735-7.462q10.3,5.156,18.657,5.146,7.854,0,12.3-3.463A11.8,11.8,0,0,0,105.172,148c0-5.163-3.6-9.576-10.205-13.272-6.091-3.345-18.272-10.337-18.272-10.337-6.6-4.812-9.907-9.978-9.907-18.488q0-10.565,7.4-17.055,7.407-6.514,19.121-6.507a39.644,39.644,0,0,1,22,6.439l-3.35,7.465a42.546,42.546,0,0,0-16.726-3.6c-4.455,0-7.9,1.071-10.287,3.221a10.766,10.766,0,0,0-3.9,8.244c0,5.138,3.676,9.607,10.461,13.376,6.172,3.35,18.657,10.464,18.657,10.464,6.771,4.8,10.152,9.921,10.152,18.365" transform="translate(-2630.348 4700.797)" fill="#8892b0"></path>
      <path id="Path_61" d="M229.191,147.815c-8.4-.214-14.91.632-20.371,2.943-1.577.63-4.084.63-4.3,2.622.852.843.95,2.2,1.689,3.367a24.4,24.4,0,0,0,5.458,6.4c2.2,1.686,4.41,3.356,6.726,4.826,4.084,2.527,8.713,4,12.693,6.515,2.319,1.464,4.623,3.359,6.945,4.935,1.141.84,1.872,2.2,3.353,2.729v-.32c-.742-.944-.953-2.31-1.681-3.362l-3.153-3.041a49.974,49.974,0,0,0-10.916-10.6c-3.362-2.316-10.714-5.464-12.077-9.337l-.214-.214a41.828,41.828,0,0,0,7.246-1.7c3.572-.942,6.83-.728,10.495-1.67,1.686-.422,3.359-.95,5.051-1.47v-.947c-1.9-1.892-3.255-4.4-5.253-6.192a139.8,139.8,0,0,0-17.325-12.915c-3.26-2.105-7.454-3.46-10.925-5.25-1.251-.632-3.359-.944-4.1-2-1.883-2.31-2.943-5.351-4.309-8.086-3.035-5.77-5.984-12.173-8.6-18.275-1.894-4.092-3.047-8.179-5.357-11.965-10.821-17.847-22.572-28.657-40.633-39.267-3.881-2.209-8.5-3.151-13.432-4.309l-7.878-.416c-1.681-.736-3.364-2.735-4.831-3.679-5.992-3.777-21.42-11.965-25.827-1.155-2.839,6.833,4.2,13.55,6.616,17.016,1.785,2.406,4.1,5.143,5.346,7.875.739,1.785.947,3.679,1.686,5.565,1.681,4.621,3.252,9.761,5.461,14.073a50.1,50.1,0,0,0,3.881,6.5c.843,1.164,2.31,1.678,2.631,3.575-1.464,2.091-1.58,5.247-2.42,7.873-3.777,11.864-2.3,26.56,3.052,35.279,1.675,2.625,5.672,8.4,11.018,6.189,4.733-1.889,3.685-7.873,5.045-13.12.312-1.268.107-2.1.736-2.931v.205c1.464,2.937,2.943,5.767,4.3,8.713,3.258,5.141,8.929,10.5,13.654,14.059,2.515,1.9,4.508,5.149,7.659,6.31v-.315h-.208a11.763,11.763,0,0,0-2.409-2.094,50.984,50.984,0,0,1-5.461-6.3A135.243,135.243,0,0,1,136.5,125.344c-1.692-3.26-3.151-6.824-4.514-10.079-.635-1.256-.635-3.151-1.689-3.783-1.58,2.308-3.881,4.306-5.034,7.133-2,4.522-2.206,10.085-2.948,15.869l-.413.2c-3.345-.84-4.508-4.3-5.779-7.237-3.145-7.459-3.673-19.433-.944-28.039.731-2.2,3.893-9.132,2.631-11.228-.632-2.01-2.735-3.154-3.887-4.736a42.68,42.68,0,0,1-3.783-6.717c-2.518-5.877-3.786-12.389-6.5-18.263a56.562,56.562,0,0,0-5.25-8.092c-2-2.833-4.2-4.829-5.784-8.187-.523-1.155-1.256-3.044-.416-4.3a1.672,1.672,0,0,1,1.47-1.369c1.36-1.15,5.247.312,6.611.944a53.2,53.2,0,0,1,10.4,5.247c1.47,1.054,3.047,3.05,4.933,3.575h2.209c3.353.731,7.133.2,10.29,1.152a67.591,67.591,0,0,1,15.121,7.24A93.164,93.164,0,0,1,175.967,90.59c1.256,2.412,1.79,4.621,2.937,7.136,2.212,5.149,4.947,10.4,7.142,15.439,2.206,4.933,4.309,9.969,7.459,14.067,1.571,2.2,7.884,3.359,10.714,4.514,2.094.942,5.354,1.779,7.243,2.934,3.572,2.2,7.131,4.727,10.489,7.147,1.672,1.259,6.928,3.884,7.24,5.987M122.09,56.571a16.358,16.358,0,0,0-4.3.528v.211h.2c.846,1.678,2.316,2.842,3.364,4.306.846,1.684,1.58,3.353,2.409,5.034l.2-.208c1.481-1.048,2.218-2.729,2.218-5.25a24,24,0,0,1-1.268-2.2c-.618-1.051-1.982-1.574-2.83-2.417" transform="translate(-2591.874 4607.373)" fill="#8892b0"></path>
      <path id="Path_62" d="M154.46,120.438h2.175V109.792h-3.263l-2.662,7.265-2.892-7.265h-3.142v10.647h2.055v-8.1h.115l3.03,8.1h1.566l3.019-8.1v8.1Zm-17.524,0h2.3V111.6h3.013v-1.807H133.8V111.6h3.134l.006,8.842Z" transform="translate(-2507.142 4750.744)" fill="#8892b0"></path>
    </g>
  </symbol>
  <symbol id="Node JS" xmlns="http://www.w3.org/2000/svg" viewBox="0 0 256 288.464">
    <path id="Path_26" d="M128,288.464a23.239,23.239,0,0,1-11.13-2.915L81.623,264.613c-5.3-2.915-2.65-3.975-1.06-4.505,7.155-2.385,8.48-2.915,15.9-7.156a2.438,2.438,0,0,1,2.65.265l27.031,16.166a3.368,3.368,0,0,0,3.18,0l105.739-61.217a3.044,3.044,0,0,0,1.59-2.915V83.081a3.045,3.045,0,0,0-1.59-2.915L129.325,19.213a3.367,3.367,0,0,0-3.18,0L20.406,80.166a3.325,3.325,0,0,0-1.59,2.915v122.17a3.325,3.325,0,0,0,1.59,2.915l28.886,16.695c15.636,7.951,25.441-1.325,25.441-10.6V93.681a3.223,3.223,0,0,1,3.18-3.18H91.429a3.223,3.223,0,0,1,3.18,3.18v120.58c0,20.936-11.4,33.126-31.271,33.126-6.1,0-10.866,0-24.381-6.625l-27.826-15.9A22.365,22.365,0,0,1,0,205.516V83.346A22.366,22.366,0,0,1,11.13,64L116.87,2.783a23.65,23.65,0,0,1,22.26,0L244.87,64A22.366,22.366,0,0,1,256,83.346v122.17a22.365,22.365,0,0,1-11.13,19.345L139.13,286.079A27.123,27.123,0,0,1,128,288.464Zm32.6-84.009c-46.377,0-55.917-21.2-55.917-39.221a3.222,3.222,0,0,1,3.18-3.18H121.64a2.724,2.724,0,0,1,2.915,2.65c2.12,14.045,8.215,20.936,36.306,20.936,22.261,0,31.8-5.035,31.8-16.961,0-6.89-2.651-11.925-37.367-15.371-28.886-2.915-46.907-9.275-46.907-32.331,0-21.466,18.021-34.186,48.232-34.186,33.921,0,50.617,11.66,52.737,37.1a4.274,4.274,0,0,1-.795,2.385,3.271,3.271,0,0,1-2.12,1.06h-13.78a3.105,3.105,0,0,1-2.916-2.385c-3.18-14.575-11.395-19.345-33.126-19.345-24.381,0-27.3,8.48-27.3,14.84,0,7.686,3.445,10.071,36.306,14.311,32.6,4.24,47.967,10.335,47.967,33.126-.265,23.321-19.345,36.571-53,36.571Z" fill="#539e43"></path>
  </symbol>
  <symbol id="Express JS" xmlns="http://www.w3.org/2000/svg" viewBox="0 0 256 288.464">
    <path id="Path_26" d="M128,288.464a23.239,23.239,0,0,1-11.13-2.915L81.623,264.613c-5.3-2.915-2.65-3.975-1.06-4.505,7.155-2.385,8.48-2.915,15.9-7.156a2.438,2.438,0,0,1,2.65.265l27.031,16.166a3.368,3.368,0,0,0,3.18,0l105.739-61.217a3.044,3.044,0,0,0,1.59-2.915V83.081a3.045,3.045,0,0,0-1.59-2.915L129.325,19.213a3.367,3.367,0,0,0-3.18,0L20.406,80.166a3.325,3.325,0,0,0-1.59,2.915v122.17a3.325,3.325,0,0,0,1.59,2.915l28.886,16.695c15.636,7.951,25.441-1.325,25.441-10.6V93.681a3.223,3.223,0,0,1,3.18-3.18H91.429a3.223,3.223,0,0,1,3.18,3.18v120.58c0,20.936-11.4,33.126-31.271,33.126-6.1,0-10.866,0-24.381-6.625l-27.826-15.9A22.365,22.365,0,0,1,0,205.516V83.346A22.366,22.366,0,0,1,11.13,64L116.87,2.783a23.65,23.65,0,0,1,22.26,0L244.87,64A22.366,22.366,0,0,1,256,83.346v122.17a22.365,22.365,0,0,1-11.13,19.345L139.13,286.079A27.123,27.123,0,0,1,128,288.464Zm32.6-84.009c-46.377,0-55.917-21.2-55.917-39.221a3.222,3.222,0,0,1,3.18-3.18H121.64a2.724,2.724,0,0,1,2.915,2.65c2.12,14.045,8.215,20.936,36.306,20.936,22.261,0,31.8-5.035,31.8-16.961,0-6.89-2.651-11.925-37.367-15.371-28.886-2.915-46.907-9.275-46.907-32.331,0-21.466,18.021-34.186,48.232-34.186,33.921,0,50.617,11.66,52.737,37.1a4.274,4.274,0,0,1-.795,2.385,3.271,3.271,0,0,1-2.12,1.06h-13.78a3.105,3.105,0,0,1-2.916-2.385c-3.18-14.575-11.395-19.345-33.126-19.345-24.381,0-27.3,8.48-27.3,14.84,0,7.686,3.445,10.071,36.306,14.311,32.6,4.24,47.967,10.335,47.967,33.126-.265,23.321-19.345,36.571-53,36.571Z" fill="#539e43"></path>
  </symbol>
  <symbol id="React JS" xmlns="http://www.w3.org/2000/svg" viewBox="0 0 256 227.767">
    <path id="Path_25" d="M210.483,73.824q-3.982-1.371-8.241-2.6.7-2.851,1.274-5.621c6.238-30.281,2.159-54.676-11.769-62.708-13.355-7.7-35.2.329-57.254,19.525q-3.182,2.769-6.375,5.849-2.124-2.033-4.241-3.917C100.759,3.829,77.587-4.822,63.673,3.233,50.33,10.957,46.379,33.89,51.994,62.588q.813,4.158,1.893,8.481c-3.28.931-6.446,1.923-9.475,2.979C17.309,83.5,0,98.307,0,113.668c0,15.865,18.582,31.778,46.812,41.427q3.342,1.143,6.922,2.165-1.16,4.67-2.01,9.138c-5.354,28.2-1.173,50.591,12.134,58.266,13.745,7.926,36.812-.221,59.273-19.855q2.664-2.328,5.342-4.923,3.471,3.342,6.921,6.314c21.757,18.722,43.245,26.282,56.539,18.586,13.731-7.949,18.194-32,12.4-61.268q-.663-3.353-1.535-6.842,2.43-.718,4.76-1.488C236.9,145.465,256,129.745,256,113.668c0-15.417-17.868-30.326-45.517-39.844Zm-6.365,70.984q-2.1.694-4.3,1.345a256.553,256.553,0,0,0-12.963-32.432,256.471,256.471,0,0,0,12.459-31.957q3.929,1.137,7.61,2.4c23.689,8.155,38.14,20.213,38.14,29.5,0,9.9-15.606,22.743-40.946,31.14ZM193.6,165.642c2.562,12.941,2.927,24.641,1.231,33.787-1.525,8.219-4.591,13.7-8.383,15.893-8.067,4.669-25.32-1.4-43.927-17.412q-3.2-2.754-6.437-5.87a256.786,256.786,0,0,0,21.459-27.246,255.239,255.239,0,0,0,34.671-5.345q.783,3.16,1.386,6.193ZM87.276,214.515c-7.882,2.783-14.16,2.863-17.955.675-8.075-4.657-11.432-22.636-6.853-46.752q.787-4.143,1.868-8.5a257.23,257.23,0,0,0,34.5,4.994,266.272,266.272,0,0,0,21.976,27.15q-2.449,2.364-4.877,4.492c-9.933,8.682-19.886,14.842-28.658,17.94ZM50.349,144.747c-12.483-4.267-22.792-9.812-29.858-15.863-6.349-5.437-9.555-10.836-9.555-15.216,0-9.322,13.9-21.212,37.077-29.293,2.812-.981,5.757-1.9,8.812-2.773A262.146,262.146,0,0,0,69.3,113.934a266.445,266.445,0,0,0-12.634,32.792q-3.267-.94-6.319-1.979ZM62.727,60.488C57.916,35.9,61.111,17.353,69.152,12.7c8.564-4.958,27.5,2.111,47.463,19.835q1.914,1.7,3.841,3.545A262.032,262.032,0,0,0,98.648,63.066a267.278,267.278,0,0,0-34.161,5.309q-1-4.02-1.76-7.887ZM173.154,87.755q-3.8-6.563-7.785-12.8c8.168,1.033,15.994,2.4,23.343,4.081a233.545,233.545,0,0,1-8.193,22.044q-3.484-6.613-7.365-13.322ZM128.122,43.894A233.909,233.909,0,0,1,143.187,62.08q-7.511-.355-15.187-.359-7.595,0-15.07.353C117.9,55.515,123,49.422,128.122,43.894ZM82.8,87.831q-3.8,6.582-7.227,13.238c-3.185-7.553-5.909-14.98-8.135-22.152,7.3-1.634,15.093-2.971,23.209-3.984q-4.033,6.29-7.848,12.9Zm8.081,65.352A232.746,232.746,0,0,1,67.29,149.39c2.261-7.3,5.046-14.885,8.3-22.6q3.437,6.639,7.258,13.246h0q3.89,6.719,8.038,13.147Zm37.542,31.03c-5.184-5.592-10.354-11.779-15.4-18.433q7.353.288,14.978.291,7.827,0,15.453-.344a232.663,232.663,0,0,1-15.028,18.486Zm52.2-57.817a231.876,231.876,0,0,1,8.6,22.52,232,232,0,0,1-23.88,4.071q3.987-6.316,7.859-13.026,3.91-6.784,7.425-13.565Zm-16.9,8.1c-4,6.939-8.111,13.562-12.281,19.815-7.6.543-15.445.823-23.444.823-7.967,0-15.716-.248-23.178-.732-4.339-6.335-8.537-12.978-12.513-19.846h0c-3.966-6.85-7.616-13.758-10.923-20.627,3.306-6.884,6.947-13.8,10.89-20.637h0c3.953-6.856,8.114-13.467,12.413-19.761,7.613-.576,15.421-.876,23.311-.876h0c7.926,0,15.743.3,23.354.883,4.233,6.249,8.366,12.838,12.335,19.695,4.014,6.934,7.7,13.8,11.036,20.54-3.325,6.853-7,13.792-11,20.722Zm22.56-122.124c8.572,4.944,11.906,24.881,6.52,51.026q-.516,2.5-1.151,5.089a261.978,261.978,0,0,0-34.229-5.407,256.828,256.828,0,0,0-21.64-27.008q2.95-2.839,5.888-5.4c18.9-16.448,36.564-22.941,44.612-18.3ZM128,90.808a22.86,22.86,0,1,1-22.86,22.86A22.86,22.86,0,0,1,128,90.808Z" fill="#00d8ff"></path>
  </symbol>
  <symbol xmlns="http://www.w3.org/2000/svg" viewBox="0 0 244.246 256" id="SQL">
    <path id="sql-database-sql-azure-svgrepo-com" d="M9.712,729.816A37.887,37.887,0,0,1-17.194,708.5a34.26,34.26,0,0,1-3.086-15.116c.044-16.617,10.493-30.493,26.726-35.5,2.99-.921,4.964-1.165,9.549-1.177a60.774,60.774,0,0,1,7.79.374l2.01.39,2.474-4.8a51.409,51.409,0,0,1,23.105-22.615c8.4-4.206,13.674-5.429,23.421-5.429,6.827,0,8.411.164,12.816,1.332a53.789,53.789,0,0,1,38.513,38.779c1.168,4.71,1.751,15.271,1.072,19.414l-.464,2.829,2.664.6a22.622,22.622,0,0,1,15.384,12.454,21.759,21.759,0,0,1-1.335,20.166,24,24,0,0,1-8.716,7.828c-1.59.761-3.284,1.59-3.764,1.842-1.078.566-118.4.515-121.253-.052Zm121.969-6.944a17.727,17.727,0,0,0,7.922-8.905,15.584,15.584,0,0,0-8.432-19.453c-1.892-.842-3.3-1.037-7.25-1-2.7.026-4.9-.144-4.9-.378s.5-2.421,1.113-4.861A53.085,53.085,0,0,0,120.1,666a47.867,47.867,0,0,0-24.949-30.79,40.635,40.635,0,0,0-17.7-4.26c-10.474-.427-17.786,1.223-25.844,5.833-9.4,5.376-17.5,15.118-20.635,24.82-.6,1.866-1.336,3.39-1.627,3.386a30.8,30.8,0,0,1-3.8-1.082c-5-1.645-13.523-1.545-18.512.217a30.961,30.961,0,0,0-12.4,7.8,30.129,30.129,0,0,0-8.776,21.466A30.558,30.558,0,0,0,3.423,721.348c6.254,2.974,4.09,2.885,67.6,2.786l58.3-.091,2.357-1.172Zm-168.206-23.5c-21.091-2.858-37.325-8.154-49.333-16.094-4.955-3.276-8.376-6.94-10.3-11.037l-1.437-3.052.132-82.636.132-82.636,1.2-2.251c3.033-5.691,8.947-10.547,18.363-15.078,11.905-5.729,25.635-9.31,44.766-11.678,7.879-.975,34.633-.8,42.719.275,29.775,3.97,52.88,13.7,60.246,25.365,2.9,4.6,2.827,2.931,2.827,63.005v55.155l-1.633.253c-.9.139-2.933.392-4.522.561-16.4,1.751-33.4,13.086-42.116,28.076l-1.785,3.069-7.01.331c-8.283.391-12.5,1.452-18.8,4.727a42.665,42.665,0,0,0-21.693,27.358,37.286,37.286,0,0,0-1.145,10.68l-.037,6.408-2.777-.059c-1.527-.033-5.038-.366-7.8-.74ZM6.352,623.2c-3.956-3.357-7.378-6.267-7.6-6.466s.6-.952,1.826-1.673a23.806,23.806,0,0,0,7.731-8.421,26.6,26.6,0,0,0-.212-23.685c-4.151-7.973-12.838-12.156-22.679-10.92-5.389.677-8.765,2.188-12.325,5.519-5.62,5.257-7.566,10.415-7.27,19.267.168,5.033.347,5.938,1.787,8.993,3.1,6.575,9.575,11.489,16.174,12.271,2.482.294,2.7.457,7.631,5.761l5.077,5.459H13.544l-7.193-6.1Zm-21.522-17.14c-3.456-1.754-4.769-4.758-4.769-10.918,0-4.008.194-5.178,1.179-7.182a8.017,8.017,0,0,1,7.8-4.776c3.032.342,4.608,1.568,6.211,4.833,1.217,2.478,1.393,3.417,1.378,7.363,0,4.868-.879,7.364-3.327,9.641-2.558,2.379-5.193,2.7-8.473,1.039ZM-49.947,617.73c9.088-2.1,14.024-9.707,11.407-17.587-1.318-3.968-4.1-6.446-10.905-9.7a40.146,40.146,0,0,1-6.243-3.418c-1.144-1.47-1.141-2.443,0-3.78,1.77-2.058,5.8-2.156,11.255-.275l4.162,1.435-.143-5.554-.143-5.554-2.764-.657c-4.18-.994-13.215-.945-16.77.09-7.128,2.076-10.884,6.735-10.86,13.47.037,6.932,3.147,10.218,14.144,14.884,4.653,1.974,5.185,5.664,1.027,7.108-1.925.668-2.473.656-5.518-.131a35.963,35.963,0,0,1-6.271-2.372l-2.89-1.5v12.026l2.89.8c1.589.443,3.116.883,3.392.979,1.149.4,12.228.192,14.219-.268Zm97.1-5.258V607.2H31.072V572.518H18v45.232H47.154v-5.277Zm-38.7-90.483c13.105-1.519,23.86-4.266,30.657-7.831,4.466-2.342,5.537-3.186,7.253-5.715,5.308-7.823-6.578-15.688-29.618-19.6C-4.9,485.171-33.423,486-51.68,490.838c-37.67,9.978-22.82,28.308,25.862,31.922a253.812,253.812,0,0,0,34.274-.771Z" transform="translate(97.599 -474.268)" fill="#00bcf2"></path>
  </symbol>
  <symbol id="Typescript" xmlns="http://www.w3.org/2000/svg" viewBox="0 0 256 256">
    <path id="Path_50" d="M0-128V0H256V-256H0Z" transform="translate(0 256)" fill="#007acc"></path>
    <path id="Path_51" d="M146.658,223.437l.081-10.484h-33.32V118.274H89.851v94.679H56.53v10.281a100.756,100.756,0,0,0,.284,10.565c.122.162,20.4.244,44.983.2l44.739-.122Z" transform="translate(203.269 352.286) rotate(180)" fill="#fff"></path>
    <path id="Path_52" d="M206.567-234.272a31.862,31.862,0,0,1,16.01,9.224c2.357,2.519,5.851,7.111,6.136,8.208.081.325-11.053,7.8-17.8,11.988-.244.162-1.219-.894-2.317-2.52-3.291-4.8-6.745-6.867-12.028-7.233-7.761-.528-12.759,3.535-12.718,10.321a9.381,9.381,0,0,0,1.1,4.795c1.707,3.536,4.876,5.649,14.832,9.956,18.326,7.883,26.168,13.084,31.045,20.48,5.445,8.249,6.664,21.415,2.966,31.208-4.063,10.646-14.141,17.879-28.323,20.276-4.388.772-14.791.651-19.5-.2-10.281-1.828-20.033-6.908-26.047-13.572-2.357-2.6-6.949-9.387-6.664-9.874a19.076,19.076,0,0,1,2.356-1.5c1.138-.65,5.446-3.129,9.509-5.485l7.355-4.267,1.544,2.275c2.154,3.292,6.867,7.8,9.712,9.306,8.167,4.307,19.383,3.7,24.909-1.26a9.421,9.421,0,0,0,3.332-7.68,9.378,9.378,0,0,0-1.91-6.5c-1.991-2.845-6.054-5.242-17.6-10.24-13.206-5.689-18.9-9.224-24.1-14.832a33.754,33.754,0,0,1-7.03-12.8c-.975-3.617-1.219-12.678-.447-16.335,2.723-12.76,12.353-21.659,26.25-24.3C191.654-235.694,202.137-235.369,206.567-234.272Z" transform="translate(0 352.38)" fill="#fff"></path>
  </symbol>
  <symbol id="Material UI" xmlns="http://www.w3.org/2000/svg" viewBox="0 0 322.486 256">
    <path id="Path_46" d="M0,139.637V0L120.932,69.818v46.545L40.311,69.818V162.91Z" fill="#00b0ff"></path>
    <path id="Path_47" d="M96,69.818,216.932,0V139.637l-80.622,46.545L96,162.91l80.622-46.546V69.818L96,116.364Z" transform="translate(24.932)" fill="#0081cb"></path>
    <path id="Path_48" d="M96,129.323v46.545l80.622,46.545V175.868Z" transform="translate(24.932 33.587)" fill="#00b0ff"></path>
    <path id="Path_49" d="M160,256l120.932-69.818V93.091l-40.311,23.273V162.91L160,209.455ZM240.622,69.818V23.273L280.932,0V46.545Z" transform="translate(41.554 0)" fill="#0081cb"></path>
  </symbol>
  <symbol id="MongoDB" xmlns="http://www.w3.org/2000/svg" viewBox="0 0 256 256">
    <circle id="Ellipse_1" cx="128" cy="128" r="128" fill="#fff"></circle>
    <path id="Path_45" d="M445.755,266.072c-8.08-35.66-27.176-47.385-29.232-51.865A54.21,54.21,0,0,1,412,205.425c-.038-.095-.1-.262-.167-.425-.232,3.161-.352,4.38-3.34,7.568-4.627,3.618-28.367,23.538-30.3,64.053-1.8,37.786,27.3,60.3,31.231,63.173l.447.317v-.027c.025.19,1.249,8.994,2.109,18.324h3.083a181.542,181.542,0,0,1,3.248-19.62l.25-.162a51.089,51.089,0,0,0,5.024-4.11l.18-.162a72.49,72.49,0,0,0,23.256-54.1,86.716,86.716,0,0,0-1.262-14.181Zm-34.106,52.387s0-53,1.749-52.987c1.364,0,3.131,68.36,3.131,68.36C414.1,333.54,411.648,322.582,411.648,318.459Z" transform="translate(-283.641 -153.782)" fill="#15723c"></path>
  </symbol>
  <symbol xmlns="http://www.w3.org/2000/svg" viewBox="0 0 256 256" id="Chakra UI-fill">
    <path id="chakraui-svgrepo-com" d="M128,0A128,128,0,1,0,256,128,127.72,127.72,0,0,0,128,0Zm29.867,46.219a2,2,0,0,1,1.824,2.965L127.221,108.7a1.995,1.995,0,0,0,1.749,2.944h56.107a1.99,1.99,0,0,1,1.365,3.445L88.1,206.88a1.989,1.989,0,0,1-2.965-2.624l46.549-64.224a1.995,1.995,0,0,0-1.611-3.157H70.688a1.995,1.995,0,0,1-1.4-3.413l87.253-86.645a1.941,1.941,0,0,1,1.333-.6Z" fill="#8892b0"></path>
  </symbol>
  <symbol xmlns="http://www.w3.org/2000/svg" viewBox="0 0 205.849 240.157" id="CSS-fill">
    <g id="css-3-svgrepo-com" transform="translate(-4 -3)">
      <path id="Path_42" d="M21.154,217.426,4,3H209.849L192.7,217.426l-85.77,25.731Z" fill="#8892b0"></path>
      <path id="Path_43" d="M101.77,5H16V215.138L84.616,193.7Z" transform="translate(90.925 15.154)" fill="#a8b2d1"></path>
      <path id="Path_44" d="M102.848,85.693H17.077l-4.289-30.02L81.4,34.231H12.789L8.5,8.5H141.444l-4.289,30.02L81.4,59.962h51.462l-8.577,81.482L72.828,158.6,21.366,141.444,17.077,98.559H42.808L47.1,120l25.731,8.577L98.559,120Z" transform="translate(34.097 41.674)" fill="#06071c"></path>
    </g>
  </symbol>
  <symbol xmlns="http://www.w3.org/2000/svg" viewBox="0 0 205.849 240.157" id="HTML-fill">
    <g id="html-5-svgrepo-com" transform="translate(-4 -3)">
      <path id="Path_39" d="M21.154,217.426,4,3H209.849L192.7,217.426l-85.77,25.731Z" fill="#8892b0"></path>
      <path id="Path_40" d="M101.77,5H16V215.138L84.616,193.7Z" transform="translate(90.925 15.154)" fill="#a8b2d1"></path>
      <path id="Path_41" d="M17.077,89.482,8.5,8H141.444l-4.289,25.731H34.231l4.289,30.02h94.348l-8.577,81.482L72.828,162.387,21.366,145.233l-4.289-42.885H42.808L47.1,123.79l25.731,8.577,25.731-8.577,4.289-34.308Z" transform="translate(34.097 37.885)" fill="#06071c"></path>
    </g>
  </symbol>
  <symbol id="Javascript-fill" xmlns="http://www.w3.org/2000/svg" viewBox="0 0 256 256">
    <path id="Path_27" d="M0,0H256V256H0Z" fill="#8892b0"></path>
    <path id="Path_28" d="M67.312,213.932,86.9,202.076c3.779,6.7,7.217,12.371,15.464,12.371,7.905,0,12.889-3.092,12.889-15.12v-81.8h24.058v82.138c0,24.917-14.606,36.259-35.916,36.259-19.245,0-30.416-9.967-36.087-22" fill="#06071c"></path>
    <path id="Path_29" d="M152.381,211.354l19.588-11.341c5.157,8.421,11.859,14.607,23.715,14.607,9.969,0,16.325-4.984,16.325-11.858,0-8.248-6.53-11.17-17.528-15.98l-6.013-2.579c-17.357-7.388-28.871-16.668-28.871-36.258,0-18.044,13.748-31.792,35.229-31.792,15.294,0,26.292,5.328,34.2,19.247l-18.731,12.029c-4.125-7.389-8.591-10.31-15.465-10.31-7.046,0-11.514,4.468-11.514,10.31,0,7.217,4.468,10.139,14.778,14.608l6.014,2.577c20.449,8.765,31.963,17.7,31.963,37.8,0,21.654-17.012,33.51-39.867,33.51-22.339,0-36.774-10.654-43.819-24.574" fill="#06071c"></path>
  </symbol>
  <symbol id="Material UI-fill" xmlns="http://www.w3.org/2000/svg" viewBox="0 0 322.486 256">
    <path id="Path_46" d="M0,139.637V0L120.932,69.818v46.545L40.311,69.818V162.91Z" fill="#8892b0"></path>
    <path id="Path_47" d="M96,69.818,216.932,0V139.637l-80.622,46.545L96,162.91l80.622-46.546V69.818L96,116.364Z" transform="translate(24.932)" fill="#8892b0"></path>
    <path id="Path_48" d="M96,129.323v46.545l80.622,46.545V175.868Z" transform="translate(24.932 33.587)" fill="#8892b0"></path>
    <path id="Path_49" d="M160,256l120.932-69.818V93.091l-40.311,23.273V162.91L160,209.455ZM240.622,69.818V23.273L280.932,0V46.545Z" transform="translate(41.554 0)" fill="#8892b0"></path>
  </symbol>
    <symbol xmlns="http://www.w3.org/2000/svg" viewBox="0 0 256 256" id="wordpress-fill">
    <path id="wordpress-svgrepo-com" d="M18.291,133.281A106,106,0,0,1,27.8,88.66L80.1,232.013a109.391,109.391,0,0,1-61.8-98.744Zm183.937-5.488c0,9.514-3.663,20.116-8.414,35.47l-10.977,36.57L142.979,81.709c6.588-.363,12.8-1.1,12.8-1.1,5.851-.737,5.126-9.14-.737-8.777,0,0-17.916,1.1-29.256,1.1-10.977,0-28.893-1.1-28.893-1.1-5.851-.363-6.588,8.414-.737,8.777,0,0,5.488.737,11.34,1.1l17.191,46.809-24.142,72.039L60.688,81.709c6.588-.363,12.44-1.1,12.44-1.1,6.214-.737,5.488-9.14-.737-8.777,0,0-17.553,1.1-29.256,1.1H36.184A109.936,109.936,0,0,1,202.216,52.453a2.8,2.8,0,0,0-1.463-.363c-10.977,0-18.653,9.514-18.653,19.754,0,8.777,5.488,16.453,10.977,25.6,4.026,7.314,9.14,16.828,9.14,30.356ZM96.907,238.6l32.919-95.819L163.832,235.3a1.863,1.863,0,0,0,.737,1.463,111.418,111.418,0,0,1-67.651,1.826ZM224.169,80.62a107.467,107.467,0,0,1,13.528,52.66c0,40.6-21.942,75.7-54.486,95.081l33.644-97.281c6.214-15.365,8.051-28.156,8.051-39.133a56.811,56.811,0,0,0-.737-11.34ZM128,5.281a128,128,0,1,1-128,128A128.141,128.141,0,0,1,128,5.281Zm0,250.137c67.288,0,122.149-54.86,122.149-122.149S195.288,11.12,128,11.12,5.851,65.981,5.851,133.269,60.712,255.418,128,255.418Z" transform="translate(0 -5.281)" fill="#8892b0"></path>
  </symbol>
   <symbol xmlns="http://www.w3.org/2000/svg" viewBox="0 0 32.34 32.34" id="Python">
    <g id="python-svgrepo-com" transform="translate(-2 -2)">
      <path id="Path_82" d="M14.724,2a4.524,4.524,0,0,0-4.595,4.449v3.08h7.953v.856H6.595A4.524,4.524,0,0,0,2,14.833v6.673a4.524,4.524,0,0,0,4.595,4.449H9.246V22.191a4.524,4.524,0,0,1,4.595-4.449h8.483a3.828,3.828,0,0,0,3.888-3.764V6.449A4.524,4.524,0,0,0,21.616,2Zm-1.06,5.476a1.541,1.541,0,1,0-1.591-1.54A1.566,1.566,0,0,0,13.664,7.476Z" transform="translate(0 0)" fill="#0973ff" fill-rule="evenodd"></path>
      <path id="Path_83" d="M20.525,33.215a4.524,4.524,0,0,0,4.595-4.449v-3.08H17.167v-.856H28.654a4.524,4.524,0,0,0,4.595-4.449V13.708a4.524,4.524,0,0,0-4.595-4.449H26v3.764a4.524,4.524,0,0,1-4.595,4.449H12.926a3.828,3.828,0,0,0-3.888,3.764v7.529a4.524,4.524,0,0,0,4.595,4.449Zm1.06-5.476a1.541,1.541,0,1,0,1.59,1.54A1.566,1.566,0,0,0,21.585,27.739Z" transform="translate(1.091 1.125)" fill="#ffd500" fill-rule="evenodd"></path>
    </g>
  </symbol>
   <symbol xmlns="http://www.w3.org/2000/svg" viewBox="0 0 28.956 32.627" id="Node JS-fill">
    <path id="Path_26" d="M14.478,32.627a2.628,2.628,0,0,1-1.259-.33L9.232,29.93c-.6-.33-.3-.45-.12-.51a7.258,7.258,0,0,0,1.8-.809.276.276,0,0,1,.3.03l3.057,1.828a.381.381,0,0,0,.36,0l11.96-6.924a.344.344,0,0,0,.18-.33V9.4a.344.344,0,0,0-.18-.33L14.628,2.173a.381.381,0,0,0-.36,0L2.308,9.067a.376.376,0,0,0-.18.33V23.215a.376.376,0,0,0,.18.33l3.267,1.888c1.769.9,2.878-.15,2.878-1.2V10.6a.364.364,0,0,1,.36-.36h1.529a.364.364,0,0,1,.36.36V24.235c0,2.368-1.289,3.747-3.537,3.747a5.142,5.142,0,0,1-2.758-.749l-3.147-1.8A2.53,2.53,0,0,1,0,23.245V9.427A2.53,2.53,0,0,1,1.259,7.239L13.219.315a2.675,2.675,0,0,1,2.518,0L27.7,7.239a2.53,2.53,0,0,1,1.259,2.188V23.245A2.53,2.53,0,0,1,27.7,25.433l-11.96,6.924a3.068,3.068,0,0,1-1.259.27Zm3.687-9.5c-5.246,0-6.325-2.4-6.325-4.436a.364.364,0,0,1,.36-.36h1.559a.308.308,0,0,1,.33.3c.24,1.589.929,2.368,4.106,2.368,2.518,0,3.6-.569,3.6-1.918,0-.779-.3-1.349-4.226-1.739-3.267-.33-5.306-1.049-5.306-3.657,0-2.428,2.038-3.867,5.455-3.867,3.837,0,5.725,1.319,5.965,4.2a.483.483,0,0,1-.09.27.37.37,0,0,1-.24.12H21.792a.351.351,0,0,1-.33-.27c-.36-1.649-1.289-2.188-3.747-2.188-2.758,0-3.087.959-3.087,1.679,0,.869.39,1.139,4.106,1.619,3.687.48,5.425,1.169,5.425,3.747-.03,2.638-2.188,4.136-5.995,4.136Z" transform="translate(0 0)" fill="#8892b0"></path>
  </symbol>
  <symbol xmlns="http://www.w3.org/2000/svg" viewBox="0 0 66.667 40" id="Tailwind">
    <path id="tailwind" d="M18.667,21.433Q22,8.1,35.333,8.1c13.333,0,15,10,21.667,11.667q6.667,1.667,11.667-5Q65.333,28.1,52,28.1c-13.333,0-15-10-21.667-11.667Q23.667,14.767,18.667,21.433ZM2,41.433Q5.333,28.1,18.667,28.1c13.333,0,15,10,21.667,11.667Q47,41.433,52,34.767,48.667,48.1,35.333,48.1c-13.333,0-15-10-21.667-11.667Q7,34.767,2,41.433Z" transform="translate(-2 -8.1)" fill="#44a8b3"></path>
  </symbol>
  <symbol xmlns="http://www.w3.org/2000/svg" viewBox="0 0 54.379 32.627" id="Tailwind-fill">
    <path id="tailwind" d="M15.595,18.976Q18.314,8.1,29.19,8.1c10.876,0,12.235,8.157,17.673,9.516q5.438,1.359,9.516-4.078Q53.66,24.414,42.784,24.414c-10.876,0-12.235-8.157-17.673-9.516Q19.673,13.538,15.595,18.976ZM2,35.29Q4.719,24.414,15.595,24.414c10.876,0,12.235,8.157,17.673,9.516q5.438,1.359,9.516-4.078Q40.065,40.728,29.19,40.728c-10.876,0-12.235-8.157-17.673-9.516Q6.078,29.852,2,35.29Z" transform="translate(-2 -8.1)" fill="#8892b0"></path>
  </symbol>
  <symbol xmlns="http://www.w3.org/2000/svg" viewBox="0 0 40.588 55.706" id="Firebase">
    <g id="firebase-svgrepo-com" transform="translate(-5.8 -2)">
      <path id="Path_91" d="M5.8,46.964l.338-.472,15.957-30.27.034-.32L15.1,2.692a1.305,1.305,0,0,0-2.441.412Z" transform="translate(0 0)" fill="#ffc24a"></path>
      <path id="Path_92" d="M5.9,46.491l.255-.5L21.946,16.038,14.931,2.776a1.194,1.194,0,0,0-2.254.41Z" transform="translate(0.099 0.115)" fill="#ffa712"></path>
      <path id="Path_93" d="M19.16,22,24.4,16.633l-5.239-9.99a1.349,1.349,0,0,0-2.378,0l-2.8,5.336v.456Z" transform="translate(8.096 3.89)" fill="#f4bd62"></path>
      <path id="Path_94" d="M19.041,21.69l5.091-5.213L19.041,6.768A1.172,1.172,0,0,0,16.9,6.675L14.091,12.1l-.084.277Z" transform="translate(8.122 3.986)" fill="#ffa50e"></path>
      <path id="Path_95" d="M5.8,40.083l.153-.155L6.51,39.7,26.923,19.366l.259-.7L22.091,8.956Z" transform="translate(0.002 6.883)" fill="#f6820c"></path>
      <path id="Path_96" d="M27.908,51.568l18.479-10.3L41.107,8.772a1.263,1.263,0,0,0-2.139-.688L5.8,41.31,24.17,51.566a3.834,3.834,0,0,0,3.736,0" transform="translate(0 5.655)" fill="#fde068"></path>
      <path id="Path_97" d="M46.12,41.1,40.883,8.854a1.108,1.108,0,0,0-1.924-.7L5.9,41.171,24.067,51.318a3.8,3.8,0,0,0,3.707,0Z" transform="translate(0.099 5.732)" fill="#fcca3f"></path>
      <path id="Path_98" d="M27.908,34.709a3.834,3.834,0,0,1-3.736,0L5.951,24.606l-.151.155L24.17,35.018a3.834,3.834,0,0,0,3.736,0l18.481-10.3-.046-.279Z" transform="translate(0 22.203)" fill="#eeab37"></path>
    </g>
  </symbol>
  <symbol xmlns="http://www.w3.org/2000/svg" viewBox="0 0 23.772 32.627" id="Firebase-fill">
    <g id="Group_188" transform="translate(-1078.566 -3043.5)">
      <path id="Path_91" d="M5.8,28.336,6,28.06l9.346-17.729.02-.188L11.244,2.405a.764.764,0,0,0-1.43.241Z" transform="translate(1072.766 3041.5)" fill="#8892b0"></path>
      <path id="Path_92" d="M5.9,28.107l.149-.291L15.3,10.271,11.189,2.5a.7.7,0,0,0-1.32.24Z" transform="translate(1072.783 3041.519)" fill="#8892b0"></path>
      <path id="Path_93" d="M17.014,15.346,20.081,12.2,17.013,6.348a.79.79,0,0,0-1.393,0l-1.64,3.125V9.74Z" transform="translate(1074.119 3042.149)" fill="#a8b2d1"></path>
      <path id="Path_94" d="M16.955,15.2l2.982-3.053L16.955,6.461A.686.686,0,0,0,15.7,6.407l-1.648,3.18-.049.162Z" transform="translate(1074.123 3042.165)" fill="#8892b0"></path>
      <path id="Path_95" d="M5.8,27.187l.09-.091.325-.132L18.173,15.053l.151-.413L15.342,8.956Z" transform="translate(1072.766 3042.649)" fill="#636a80"></path>
      <path id="Path_96" d="M18.749,33.4l10.823-6.035L26.48,8.334a.74.74,0,0,0-1.253-.4L5.8,27.391,16.559,33.4a2.246,2.246,0,0,0,2.188,0" transform="translate(1072.766 3042.444)" fill="#8892b0"></path>
      <path id="Path_97" d="M29.457,27.3,26.39,8.414A.649.649,0,0,0,25.263,8L5.9,27.342l10.641,5.943a2.228,2.228,0,0,0,2.171,0Z" transform="translate(1072.783 3042.457)" fill="#8892b0"></path>
      <path id="Path_98" d="M18.749,30.454a2.246,2.246,0,0,1-2.188,0L5.889,24.536l-.089.091,10.759,6.007a2.246,2.246,0,0,0,2.188,0L29.572,24.6l-.027-.163Z" transform="translate(1072.766 3045.209)" fill="#8892b0"></path>
    </g>
  </symbol>
  <symbol xmlns="http://www.w3.org/2000/svg" viewBox="0 0 52.709 52.706" id="Next JS">
    <path id="next-js" d="M39.117,49.419c-.2.1-.18.137.008.041a.51.51,0,0,0,.156-.1C39.282,49.325,39.282,49.325,39.117,49.419Zm.4-.214c-.094.077-.094.077.018.026a.409.409,0,0,0,.112-.077C39.642,49.109,39.616,49.119,39.512,49.2Zm.257-.155c-.094.077-.094.077.018.026A.405.405,0,0,0,39.9,49C39.9,48.956,39.873,48.964,39.769,49.05Zm.26-.153c-.094.077-.094.077.015.025a.35.35,0,0,0,.112-.077c0-.041-.026-.033-.127.053Zm.351-.232c-.18.12-.242.2-.077.112.11-.068.3-.216.265-.216a1.375,1.375,0,0,0-.189.1ZM24.629.016c-.12.008-.481.041-.8.068A26.415,26.415,0,0,0,4.89,11.005,26.071,26.071,0,0,0,.239,22.517,20.1,20.1,0,0,0,0,26.359a20.018,20.018,0,0,0,.239,3.834A26.464,26.464,0,0,0,18.263,51.486a28.614,28.614,0,0,0,5.569,1.16,49.5,49.5,0,0,0,5.042,0,26.684,26.684,0,0,0,9.5-2.78c.455-.231.54-.292.479-.343-1.449-1.912-2.873-3.826-4.3-5.757l-4.212-5.687-5.276-7.815q-2.639-3.923-5.318-7.814c-.018,0-.041,3.474-.051,7.71-.018,7.42-.018,7.722-.112,7.893a.941.941,0,0,1-.455.473c-.163.077-.31.094-1.089.094h-.891l-.232-.145a.98.98,0,0,1-.343-.377l-.112-.232.008-10.329.018-10.329L16.654,17a1.241,1.241,0,0,1,.377-.308c.216-.1.3-.12,1.193-.12,1.046,0,1.219.041,1.494.343,2.135,3.182,4.263,6.373,6.356,9.573,3.424,5.192,8.1,12.276,10.4,15.751l4.179,6.323.206-.137a26.924,26.924,0,0,0,5.411-4.752,26.246,26.246,0,0,0,6.2-13.468,20.11,20.11,0,0,0,.239-3.843,20.009,20.009,0,0,0-.239-3.834A26.468,26.468,0,0,0,34.446,1.235,27.973,27.973,0,0,0,28.964.087c-.5-.051-3.905-.112-4.334-.068ZM35.413,15.955a1.025,1.025,0,0,1,.522.6c.044.138.053,3,.044,9.454l-.018,9.263-1.629-2.5-1.639-2.505V23.538c0-4.36.018-6.8.041-6.924a1.1,1.1,0,0,1,.516-.651c.2-.1.283-.112,1.1-.112.763,0,.891.008,1.062.1Z" transform="translate(0 -0.004)" fill="#fff"></path>
  </symbol>
  <symbol xmlns="http://www.w3.org/2000/svg" viewBox="0 0 32.629 32.627" id="Next JS-fill">
    <path id="next-js" d="M24.215,30.594c-.121.064-.111.085.005.025a.316.316,0,0,0,.1-.062C24.317,30.536,24.317,30.536,24.215,30.594Zm.245-.133c-.058.048-.058.048.011.016a.253.253,0,0,0,.069-.048C24.54,30.4,24.524,30.408,24.46,30.461Zm.159-.1c-.058.048-.058.048.011.016a.251.251,0,0,0,.069-.049C24.7,30.307,24.683,30.312,24.619,30.365Zm.161-.095c-.058.048-.058.048.009.015a.217.217,0,0,0,.069-.048c0-.025-.016-.02-.079.033ZM25,30.127c-.111.074-.15.122-.048.069.068-.042.185-.134.164-.134a.852.852,0,0,0-.117.064ZM15.247.011c-.074.005-.3.025-.494.042A16.352,16.352,0,0,0,3.027,6.814,16.139,16.139,0,0,0,.148,13.94,12.443,12.443,0,0,0,0,16.319a12.392,12.392,0,0,0,.148,2.374A16.382,16.382,0,0,0,11.306,31.874a17.713,17.713,0,0,0,3.447.718,30.645,30.645,0,0,0,3.121,0,16.518,16.518,0,0,0,5.88-1.721c.281-.143.334-.18.3-.212-.9-1.184-1.778-2.369-2.66-3.564l-2.607-3.521-3.266-4.838q-1.633-2.429-3.292-4.837c-.011,0-.025,2.15-.032,4.773-.011,4.593-.011,4.78-.069,4.886a.583.583,0,0,1-.281.293c-.1.048-.192.058-.674.058h-.552l-.144-.09a.607.607,0,0,1-.212-.233l-.069-.144.005-6.394.011-6.394.1-.127a.768.768,0,0,1,.233-.191c.134-.064.187-.074.738-.074.647,0,.755.025.925.212,1.321,1.97,2.639,3.945,3.935,5.926,2.12,3.214,5.014,7.6,6.436,9.751l2.587,3.914.127-.085a16.667,16.667,0,0,0,3.349-2.942A16.248,16.248,0,0,0,32.481,18.7a12.449,12.449,0,0,0,.148-2.379,12.386,12.386,0,0,0-.148-2.374A16.385,16.385,0,0,0,21.323.766,17.317,17.317,0,0,0,17.93.055c-.309-.032-2.418-.069-2.683-.042Zm6.676,9.867a.635.635,0,0,1,.323.371c.028.086.033,1.859.028,5.853l-.011,5.734-1.008-1.55-1.015-1.551V14.572c0-2.7.011-4.212.025-4.287a.682.682,0,0,1,.319-.4c.126-.064.175-.069.68-.069.472,0,.552.005.658.064Z" transform="translate(0 -0.004)" fill="#8892b0"></path>
  </symbol>
  <symbol xmlns="http://www.w3.org/2000/svg" viewBox="0 0 198.875 240.157" id="Prisma">
    <g id="prisma" transform="translate(0.001 0.002)">
      <path id="Path_99" d="M197.564,182.964,114.975,7.574A13.255,13.255,0,0,0,103.689.028,13.1,13.1,0,0,0,91.622,6.283L2.045,151.367a13.568,13.568,0,0,0,.15,14.564l43.795,67.82a14.084,14.084,0,0,0,15.819,5.818L188.9,201.976a13.929,13.929,0,0,0,8.747-7.553,13.628,13.628,0,0,0-.078-11.466Zm-18.491,7.522L71.228,222.376a4.525,4.525,0,0,1-5.763-5.193L104,32.692a3.724,3.724,0,0,1,6.994-.8l71.326,151.466a5.151,5.151,0,0,1-3.248,7.132Z" transform="translate(0 0)" fill="#fcfcfc"></path>
    </g>
  </symbol>
  <symbol xmlns="http://www.w3.org/2000/svg" viewBox="0 0 198.875 240.157" id="Prisma-fill">
    <g id="prisma" transform="translate(0.001 0.002)">
      <path id="Path_100" d="M136.737,166.246.655,207.985,50.59-13.291Z" transform="translate(55.094 24.305)" fill="#06071c"></path>
      <path id="Path_99" d="M197.564,182.964,114.975,7.574A13.255,13.255,0,0,0,103.689.028,13.1,13.1,0,0,0,91.622,6.283L2.045,151.367a13.568,13.568,0,0,0,.15,14.564l43.795,67.82a14.084,14.084,0,0,0,15.819,5.818L188.9,201.976a13.929,13.929,0,0,0,8.747-7.553,13.628,13.628,0,0,0-.078-11.466Zm-18.491,7.522L71.228,222.376a4.525,4.525,0,0,1-5.763-5.193L104,32.692a3.724,3.724,0,0,1,6.994-.8l71.326,151.466a5.151,5.151,0,0,1-3.248,7.132Z" transform="translate(0 0)" fill="#8892b0"></path>
    </g>
  </symbol>
  <symbol xmlns="http://www.w3.org/2000/svg" viewBox="0 0 31.471 32.627" id="Postgresql-fill">
    <g id="Group_198" transform="translate(739.131 -3178.581)">
      <path id="Path_105" d="M40.981,30.947c-3.89.8-4.157-.515-4.157-.515,4.107-6.094,5.824-13.83,4.342-15.723C37.124,9.545,30.127,11.987,30.01,12.05l-.038.007a13.872,13.872,0,0,0-2.6-.27,6.41,6.41,0,0,0-4.108,1.23s-12.482-5.142-11.9,6.467c.123,2.47,3.54,18.687,7.615,13.789,1.489-1.791,2.928-3.306,2.928-3.306a3.778,3.778,0,0,0,2.467.63l.07-.059a2.718,2.718,0,0,0,.028.7c-1.05,1.173-.741,1.379-2.84,1.811-2.123.438-.876,1.217-.062,1.42A4.314,4.314,0,0,0,26.39,32.9l-.061.247c.411.329.7,2.143.652,3.787a10.427,10.427,0,0,0,.243,3.654c.324.882.647,2.865,3.406,2.274,2.3-.494,3.5-1.774,3.666-3.909.118-1.518.385-1.294.4-2.651l.214-.642c.247-2.058.039-2.722,1.459-2.413l.345.03a7.866,7.866,0,0,0,3.216-.541c1.729-.8,2.754-2.142,1.049-1.79h0" transform="translate(-749.97 3167.692)" fill="#8892b0"></path>
      <path id="Path_106" d="M101.716,81.4a1.207,1.207,0,0,0-.829.118.3.3,0,0,0-.126.2.591.591,0,0,0,.143.387,1.083,1.083,0,0,0,.688.429.8.8,0,0,0,.11.008.892.892,0,0,0,.844-.574c.043-.306-.4-.509-.831-.569" transform="translate(-827.686 3106.884)" fill="#fff"></path>
      <path id="Path_107" d="M186.036,79.8h0c-.033-.239-.46-.308-.864-.252s-.8.239-.763.479a.82.82,0,0,0,.762.505.736.736,0,0,0,.1-.007.981.981,0,0,0,.554-.3.61.61,0,0,0,.208-.422" transform="translate(-900.394 3108.486)" fill="#fff"></path>
      <path id="Path_108" d="M38.89,27.334c-.148-.448-.626-.593-1.419-.429-2.355.486-3.2.149-3.475-.055a32.382,32.382,0,0,0,4.149-9.3,17.679,17.679,0,0,0,.615-4,4.321,4.321,0,0,0-.626-2.7,9.2,9.2,0,0,0-7.44-3.474,12.747,12.747,0,0,0-4.3.678,10.721,10.721,0,0,0-2.42-.311,6.992,6.992,0,0,0-4.147,1.143,18.52,18.52,0,0,0-3.37-.883c-2.73-.44-4.9-.107-6.447.99-1.847,1.309-2.7,3.648-2.535,6.953a43.642,43.642,0,0,0,1.689,7.808C10.478,28.057,11.909,30.5,13.414,31a1.9,1.9,0,0,0,.6.1,2.521,2.521,0,0,0,1.923-1.09c1.163-1.4,2.25-2.572,2.65-3a4.27,4.27,0,0,0,1.907.513c0,.017,0,.035,0,.052-.133.158-.243.3-.336.415-.461.585-.557.707-2.039,1.012-.422.087-1.542.318-1.558,1.1-.018.858,1.324,1.218,1.477,1.257a6.326,6.326,0,0,0,1.536.2,4.47,4.47,0,0,0,3.076-1.149c-.026,3.059.1,6.073.469,6.991a3.51,3.51,0,0,0,3.357,2.589,5.384,5.384,0,0,0,1.128-.128c2.422-.519,3.474-1.59,3.881-3.95.218-1.262.591-4.274.767-5.89a4.747,4.747,0,0,0,1.365.169,8.123,8.123,0,0,0,3.1-.59c.875-.407,2.455-1.4,2.168-2.271ZM33.121,16.415a9.8,9.8,0,0,1-.143,1.362,12.579,12.579,0,0,0-.172,1.6,12.124,12.124,0,0,0,.127,1.808,6.44,6.44,0,0,1-.282,3.672,4.768,4.768,0,0,1-.255-.524c-.072-.173-.227-.452-.442-.838-.837-1.5-2.8-5.016-1.794-6.45.3-.427,1.057-.866,2.961-.63ZM30.813,8.333a8.139,8.139,0,0,1,6.56,3.1c1.2,1.532-.121,8.5-3.942,14.514l-.116-.146-.048-.06a6.794,6.794,0,0,0,.622-4.674,11.227,11.227,0,0,1-.12-1.662,11.771,11.771,0,0,1,.161-1.483,9.366,9.366,0,0,0,.151-1.836.761.761,0,0,0,.016-.259,10.308,10.308,0,0,0-2.351-4.422A10.592,10.592,0,0,0,28.009,8.6a12.6,12.6,0,0,1,2.8-.264ZM15.2,29.394c-.772.928-1.3.75-1.48.692-1.142-.381-2.467-2.794-3.635-6.621a43.24,43.24,0,0,1-1.648-7.575c-.148-2.953.568-5.011,2.128-6.117,2.538-1.8,6.711-.723,8.387-.176-.024.024-.049.046-.073.07-2.751,2.779-2.686,7.526-2.679,7.816,0,.112.009.27.022.489a19.651,19.651,0,0,1-.1,3.968,5.017,5.017,0,0,0,1.322,4.2q.164.171.342.323c-.471.5-1.5,1.621-2.587,2.933Zm2.94-3.923a4.059,4.059,0,0,1-1.064-3.4,20.538,20.538,0,0,0,.107-4.158c-.007-.116-.013-.218-.017-.3a5.294,5.294,0,0,1,3.593-1.05,1.462,1.462,0,0,1,1.129,1.262c.795,3.676.105,5.208-.449,6.439-.114.254-.222.493-.314.741l-.071.192a12.568,12.568,0,0,0-.453,1.363,3.43,3.43,0,0,1-2.461-1.091Zm.139,4.957a2.131,2.131,0,0,1-.643-.276,3.127,3.127,0,0,1,.685-.2c1.744-.359,2.014-.613,2.6-1.36.135-.171.288-.365.5-.6h0c.315-.353.46-.293.721-.185a1.021,1.021,0,0,1,.5.646.719.719,0,0,1-.061.6,3.813,3.813,0,0,1-4.306,1.377Zm9.129,8.5c-2.134.457-2.89-.632-3.388-1.876-.321-.8-.479-4.428-.367-8.429a.482.482,0,0,0-.021-.153,2.026,2.026,0,0,0-.06-.283,1.954,1.954,0,0,0-1.06-1.271,1.5,1.5,0,0,0-.976-.118,11.789,11.789,0,0,1,.42-1.257l.072-.193c.081-.218.182-.443.29-.681.58-1.288,1.374-3.052.512-7.038A2.514,2.514,0,0,0,19.8,15.57a7,7,0,0,0-2.323.723c-.1.049-.184.1-.266.142.125-1.5.6-4.315,2.36-6.094A5.793,5.793,0,0,1,23.956,8.7a9.307,9.307,0,0,1,7.111,3.4,10.794,10.794,0,0,1,1.946,3.337c-1.8-.183-3.023.172-3.643,1.059-1.349,1.929.738,5.673,1.742,7.472.184.33.343.615.393.736a6.681,6.681,0,0,0,1.059,1.706c.095.118.187.233.256.333-.545.157-1.524.52-1.434,2.334-.072.91-.583,5.172-.843,6.678-.343,1.989-1.075,2.73-3.133,3.172ZM36.316,28.73a7.025,7.025,0,0,1-2.375.494,2.979,2.979,0,0,1-1.594-.205c-.055-1.131.366-1.249.811-1.374.07-.02.138-.039.2-.062a1.664,1.664,0,0,0,.135.1c.786.519,2.189.575,4.169.166l.022,0a5.331,5.331,0,0,1-1.372.886Z" transform="translate(-746.584 3171.214)" fill="#a8b2d1"></path>
    </g>
  </symbol>
  <symbol xmlns="http://www.w3.org/2000/svg" viewBox="0 0 31.038 32" id="Postgresql">
    <g id="postgresql" transform="translate(-0.297 -0.364)">
      <path id="Path_104" d="M31.254,19.533a1.575,1.575,0,0,0-1.307-1.053,2.993,2.993,0,0,0-1.043.058,9.376,9.376,0,0,1-1.607.211,31,31,0,0,0,3.282-7.806c1.089-4.216.507-6.136-.173-7.005A9.417,9.417,0,0,0,22.812.365a13.458,13.458,0,0,0-3.947.553A14.708,14.708,0,0,0,16.557.707a7.5,7.5,0,0,0-4.02.99A18.35,18.35,0,0,0,9.7.985C6.922.529,4.684.884,3.048,2.04,1.066,3.44.147,5.872.317,9.269a41.536,41.536,0,0,0,1.607,7.472,25.806,25.806,0,0,0,1.73,4.415A5.469,5.469,0,0,0,6.448,24.07a2.746,2.746,0,0,0,2.719-.589,2.377,2.377,0,0,0,.572.492,3.8,3.8,0,0,0,1.079.455,5.793,5.793,0,0,0,3.771-.225c.007.2.012.383.016.545.007.262.015.519.024.76a13.3,13.3,0,0,0,.5,3.774c.018.049.042.123.068.2a4.543,4.543,0,0,0,1.132,1.995,3.377,3.377,0,0,0,2.389.888,5.369,5.369,0,0,0,1.117-.124A5.248,5.248,0,0,0,23.367,30.2c.927-1.32,1.378-3.308,1.459-6.44.011-.088.02-.173.03-.254l.019-.166.218.019.056,0a8.642,8.642,0,0,0,3.615-.626c.721-.335,3.033-1.555,2.489-3.2" transform="translate(0)"></path>
      <path id="Path_105" d="M38.883,29.564c-3.614.746-3.863-.478-3.863-.478,3.816-5.663,5.412-12.851,4.035-14.61-3.756-4.8-10.257-2.529-10.366-2.47l-.035.006a12.89,12.89,0,0,0-2.411-.251A5.956,5.956,0,0,0,22.425,12.9s-11.6-4.778-11.059,6.009c.115,2.295,3.289,17.364,7.076,12.813,1.384-1.664,2.721-3.072,2.721-3.072a3.51,3.51,0,0,0,2.293.585l.065-.055a2.526,2.526,0,0,0,.026.648c-.975,1.09-.689,1.281-2.639,1.683-1.973.407-.814,1.131-.057,1.32a4.008,4.008,0,0,0,4.474-1.453l-.057.229c.382.306.65,1.991.605,3.519a9.689,9.689,0,0,0,.226,3.4c.3.819.6,2.662,3.165,2.113,2.142-.459,3.252-1.648,3.406-3.633.11-1.411.358-1.2.373-2.463l.2-.6c.229-1.912.036-2.529,1.356-2.242l.321.028a7.309,7.309,0,0,0,2.989-.5c1.606-.745,2.559-1.99.975-1.663h0" transform="translate(-9.708 -9.711)" fill="#336791"></path>
      <path id="Path_106" d="M101.648,81.4a1.122,1.122,0,0,0-.77.11.282.282,0,0,0-.117.188.55.55,0,0,0,.133.359,1.007,1.007,0,0,0,.639.4.743.743,0,0,0,.1.007.828.828,0,0,0,.785-.534c.039-.284-.373-.473-.772-.529" transform="translate(-88.252 -71.167)" fill="#fff"></path>
      <path id="Path_107" d="M185.921,79.785h0c-.031-.223-.427-.286-.8-.234s-.739.222-.709.445a.762.762,0,0,0,.708.469.684.684,0,0,0,.095-.007.912.912,0,0,0,.515-.282.567.567,0,0,0,.193-.392" transform="translate(-161.734 -69.548)" fill="#fff"></path>
      <path id="Path_108" d="M36.664,25.92c-.138-.417-.581-.551-1.318-.4-2.188.452-2.972.139-3.229-.051a30.089,30.089,0,0,0,3.855-8.646,16.427,16.427,0,0,0,.571-3.718,4.015,4.015,0,0,0-.582-2.512,8.551,8.551,0,0,0-6.913-3.228,11.845,11.845,0,0,0-4,.63A9.962,9.962,0,0,0,22.8,7.709,6.5,6.5,0,0,0,18.95,8.771a17.209,17.209,0,0,0-3.131-.821c-2.537-.408-4.552-.1-5.991.92-1.716,1.216-2.509,3.39-2.355,6.461a40.552,40.552,0,0,0,1.569,7.255c1.223,4.006,2.552,6.274,3.951,6.741a1.77,1.77,0,0,0,.561.093,2.342,2.342,0,0,0,1.787-1.012c1.081-1.3,2.09-2.39,2.462-2.786a3.967,3.967,0,0,0,1.772.476c0,.016,0,.032,0,.048-.124.147-.226.276-.312.386-.428.543-.517.657-1.895.94-.392.081-1.433.3-1.448,1.025-.017.8,1.23,1.132,1.373,1.168a5.878,5.878,0,0,0,1.427.185,4.153,4.153,0,0,0,2.858-1.067,27.056,27.056,0,0,0,.436,6.5,3.262,3.262,0,0,0,3.119,2.406,5,5,0,0,0,1.048-.119c2.251-.483,3.228-1.477,3.607-3.671.2-1.172.55-3.971.713-5.473a4.411,4.411,0,0,0,1.268.157,7.548,7.548,0,0,0,2.879-.549c.813-.378,2.281-1.3,2.015-2.11ZM31.3,15.774a9.107,9.107,0,0,1-.133,1.266,11.689,11.689,0,0,0-.16,1.486,11.266,11.266,0,0,0,.118,1.68,5.984,5.984,0,0,1-.262,3.412,4.43,4.43,0,0,1-.237-.487c-.066-.161-.211-.42-.411-.778-.778-1.395-2.6-4.661-1.667-5.994.278-.4.982-.8,2.752-.585ZM29.159,8.265a7.563,7.563,0,0,1,6.1,2.883c1.114,1.423-.113,7.9-3.663,13.487l-.108-.136-.045-.056a6.313,6.313,0,0,0,.578-4.343,10.432,10.432,0,0,1-.112-1.545,10.937,10.937,0,0,1,.15-1.378,8.7,8.7,0,0,0,.14-1.706.707.707,0,0,0,.015-.24,9.579,9.579,0,0,0-2.185-4.109A9.842,9.842,0,0,0,26.553,8.51a11.708,11.708,0,0,1,2.606-.245ZM14.651,27.835c-.717.862-1.212.7-1.375.643-1.061-.354-2.292-2.6-3.378-6.153a40.179,40.179,0,0,1-1.532-7.039c-.137-2.744.528-4.656,1.977-5.684,2.358-1.672,6.236-.671,7.793-.164-.022.022-.046.043-.068.065-2.557,2.582-2.5,6.993-2.49,7.263,0,.1.008.251.02.454a18.26,18.26,0,0,1-.093,3.687,4.662,4.662,0,0,0,1.229,3.9q.153.159.318.3c-.438.469-1.39,1.507-2.4,2.726Zm2.732-3.645a3.772,3.772,0,0,1-.988-3.159,19.084,19.084,0,0,0,.1-3.864c-.006-.108-.012-.2-.015-.278a4.919,4.919,0,0,1,3.338-.976,1.358,1.358,0,0,1,1.049,1.172c.738,3.415.1,4.839-.417,5.983-.106.236-.206.458-.292.689l-.066.178A11.678,11.678,0,0,0,19.67,25.2a3.187,3.187,0,0,1-2.287-1.013Zm.129,4.606a1.98,1.98,0,0,1-.6-.257,2.906,2.906,0,0,1,.637-.189c1.621-.334,1.871-.569,2.418-1.263.125-.159.267-.34.464-.559h0c.293-.328.427-.272.67-.172a.948.948,0,0,1,.467.6.668.668,0,0,1-.057.561,3.544,3.544,0,0,1-4,1.279ZM26,36.689a2.414,2.414,0,0,1-3.148-1.744c-.3-.747-.445-4.114-.341-7.833a.448.448,0,0,0-.019-.142,1.883,1.883,0,0,0-.055-.263,1.815,1.815,0,0,0-.985-1.181,1.389,1.389,0,0,0-.907-.11,10.954,10.954,0,0,1,.39-1.168L21,24.07c.075-.2.169-.412.269-.633.539-1.2,1.277-2.836.476-6.54a2.336,2.336,0,0,0-2.82-1.907,6.507,6.507,0,0,0-2.159.672c-.089.045-.171.089-.247.132a9.421,9.421,0,0,1,2.193-5.662A5.383,5.383,0,0,1,22.788,8.6,8.648,8.648,0,0,1,29.4,11.762a10.029,10.029,0,0,1,1.808,3.1c-1.672-.17-2.809.16-3.385.984-1.254,1.792.686,5.271,1.618,6.943.171.306.319.571.365.684a6.208,6.208,0,0,0,.984,1.586c.088.11.173.216.238.31-.506.146-1.416.483-1.333,2.169-.067.846-.542,4.806-.784,6.205-.319,1.849-1,2.537-2.912,2.947Zm8.277-9.472a6.528,6.528,0,0,1-2.207.459,2.768,2.768,0,0,1-1.481-.191c-.051-1.051.34-1.16.754-1.276.065-.018.128-.036.19-.057a1.547,1.547,0,0,0,.125.092c.731.482,2.034.534,3.874.154l.02,0a4.954,4.954,0,0,1-1.275.823Z" transform="translate(-6.286 -6.151)" fill="#fff"></path>
    </g>
  </symbol>
</svg>


  