<svg width="0" height="0" class="hidden">
  <symbol id="email" version="1.1" xmlns="http://www.w3.org/2000/svg" xmlnsSvg="http://www.w3.org/2000/svg" viewBox="0 0 16.549 214.00609">
    <defs id="defs1"></defs>
    <path d="M 0.75499998,43.85 3.149,42.408 q 0,-0.056 0,-0.126 -0.014,-0.07 -0.014,-0.14 0,-1.414 0.812,-2.254 0.826,-0.826 2.198,-0.826 h 4.48 q 1.372,0 2.184,0.826 0.826,0.84 0.826,2.254 0,1.414 -0.826,2.24 -0.812,0.84 -2.184,0.84 h -4.48 q -0.938,0 -1.638,-0.406 -0.7,-0.406 -1.05,-1.148 L 0.75499998,45.306 Z M 4.255,42.142 q 0,0.826 0.518,1.316 0.518,0.504 1.372,0.504 h 4.48 q 0.868,0 1.372,-0.504 0.518,-0.49 0.518,-1.316 0,-0.826 -0.518,-1.33 -0.504,-0.49 -1.372,-0.49 h -4.48 q -0.854,0 -1.372,0.49 -0.518,0.504 -0.518,1.33 z m -1.092,9.912005 q 0,-1.386 0.812,-2.212 0.812,-0.812 2.268,-0.812 h 1.764 q 1.47,0 2.268,0.812 0.812,0.812 0.812,2.212 0,1.4 -0.812,2.212 -0.798,0.812 -2.268,0.812 H 6.243 q -1.456,0 -2.268,-0.826 -0.812,-0.812 -0.812,-2.198 z m 1.12,0 q 0,0.826 0.462,1.288 0.462,0.476 1.358,0.476 h 2.044 q 0.896,0 1.358,-0.476 0.462,-0.462 0.462,-1.288 0,-0.812 -0.462,-1.288 -0.462,-0.476 -1.358,-0.476 H 6.103 q -0.896,0 -1.358,0.476 -0.462,0.476 -0.462,1.288 z m -1.148,9.464006 q 0,-1.148 0.77,-1.848 0.77,-0.686 2.086,-0.686 h 2.254 q 1.33,0 2.1,0.686 0.77,0.686 0.77,1.848 0,0.868 -0.434,1.428 -0.434,0.574 -1.176,0.686 v 0.014 l 1.75,-0.028 h 2.24 v 1.26 H 3.275 v -1.26 h 1.47 v -0.014 q -0.756,-0.098 -1.19,-0.658 -0.42,-0.56 -0.42,-1.428 z m 1.092,0.42 q 0,0.784 0.49,1.232 0.49,0.448 1.358,0.448 h 2.1 q 0.868,0 1.358,-0.448 0.49,-0.448 0.49,-1.232 0,-0.798 -0.42,-1.246 -0.406,-0.448 -1.358,-0.448 h -2.24 q -0.938,0 -1.358,0.448 -0.42,0.448 -0.42,1.246 z m -1.092,9.940004 q 0,-1.358 0.812,-2.198 0.826,-0.826 2.268,-0.826 h 1.82 q 1.442,0 2.254,0.826 0.826,0.84 0.826,2.198 0,0.91 -0.364,1.582 -0.364,0.686 -1.022,1.064 -0.658,0.378 -1.554,0.378 H 6.803 v -4.816 H 6.075 q -0.854,0 -1.358,0.49 -0.49,0.49 -0.49,1.302 0,0.7 0.266,1.148 0.28,0.462 0.742,0.56 v 1.26 q -0.966,-0.126 -1.54,-0.938 -0.56,-0.812 -0.56,-2.03 z m 4.648,-1.792 v 3.584 h 0.392 q 0.91,0 1.4,-0.476 0.504,-0.462 0.504,-1.316 0,-0.854 -0.504,-1.33 -0.49,-0.462 -1.4,-0.462 z m -4.508,8.344007 h 7.7 v 1.092 H 9.953 v 0.028 q 0.518,0.07 0.84,0.406 0.322,0.35 0.322,0.882 0,0.504 -0.294,0.854 -0.294,0.35 -0.798,0.504 v 0.014 q 0.504,0.098 0.798,0.434 0.294,0.35 0.294,0.882 0,0.742 -0.56,1.176 -0.546,0.448 -1.428,0.448 H 3.275 v -1.176 h 5.866 q 0.462,0 0.728,-0.224 0.28,-0.224 0.28,-0.616 0,-0.378 -0.266,-0.602 -0.266,-0.224 -0.728,-0.224 h -5.88 v -1.036 h 5.866 q 0.462,0 0.728,-0.224 0.28,-0.224 0.28,-0.602 0,-0.392 -0.266,-0.616 -0.266,-0.224 -0.728,-0.224 h -5.88 z m 0,10.262006 h 1.148 v 2.73 h 5.404 v -2.45 h 1.148 v 3.71 H 4.423 v 2.59 H 3.275 Z m 9.086,3.22 q 0,-0.462 0.238,-0.728 0.238,-0.266 0.644,-0.266 0.42,0 0.658,0.266 0.252,0.266 0.252,0.728 0,0.462 -0.252,0.728 -0.238,0.266 -0.658,0.266 -0.406,0 -0.644,-0.266 -0.238,-0.266 -0.238,-0.728 z m -9.086,6.860003 h 10.22 v 1.259999 H 7.797 v 1.47 l 3.178,2.156 v 1.442 l -3.668,-2.478 -4.032,2.618 v -1.47 l 3.43,-2.24 v -1.498 h -3.43 z m -0.14,12.754009 q 0,-1.358 0.812,-2.198 0.826,-0.826 2.268,-0.826 h 1.82 q 1.442,0 2.254,0.826 0.826,0.84 0.826,2.198 0,0.91 -0.364,1.582 -0.364,0.686 -1.022,1.064 -0.658,0.378 -1.554,0.378 H 6.803 v -4.816 H 6.075 q -0.854,0 -1.358,0.49 -0.49,0.49 -0.49,1.302 0,0.7 0.266,1.148 0.28,0.462 0.742,0.56 v 1.26 q -0.966,-0.126 -1.54,-0.938 -0.56,-0.812 -0.56,-2.03 z m 4.648,-1.792 v 3.584 h 0.392 q 0.91,0 1.4,-0.476 0.504,-0.462 0.504,-1.316 0,-0.854 -0.504,-1.33 -0.49,-0.462 -1.4,-0.462 z m -7.02800002,12.054 q 0,-1.19 0.50400002,-2.072 0.49,-0.882 1.414,-1.372 0.91,-0.476 2.142,-0.476 h 4.76 q 1.89,0 2.968,1.008 1.092,1.008 1.092,2.772 0,1.596 -0.924,2.506 -0.91,0.924 -2.506,0.924 H 6.411 q -1.092,0 -1.736,-0.602 -0.63,-0.602 -0.63,-1.638 0,-1.022 0.616,-1.638 0.616,-0.602 1.61,-0.602 h 1.624 q 1.036,0 1.596,0.49 0.574,0.49 0.574,1.386 0,0.574 -0.224,0.952 -0.224,0.378 -0.616,0.504 v 0.028 h 0.98 q 1.19,0 1.82,-0.602 0.63,-0.588 0.63,-1.708 0,-1.26 -0.812,-1.96 -0.812,-0.7 -2.268,-0.7 h -4.76 q -1.4,0 -2.198,0.742 -0.812,0.756 -0.812,2.058 v 1.54 H 0.75499998 Z m 4.22800002,1.05 q 0,0.532 0.336,0.826 0.35,0.294 0.952,0.294 h 1.638 q 0.616,0 0.938,-0.294 0.336,-0.294 0.336,-0.826 0,-0.532 -0.336,-0.826 -0.336,-0.294 -0.952,-0.294 H 6.271 q -0.602,0 -0.952,0.294 -0.336,0.294 -0.336,0.826 z m -4.22800002,6.56601 H 1.903 v 2.17 q 0,0.658 0.378,1.036 0.364,0.378 0.994,0.378 h 0.7 l 1.26,0.028 v -0.042 q -0.686,-0.112 -1.064,-0.658 -0.364,-0.546 -0.364,-1.372 0,-1.19 0.756,-1.876 0.756,-0.686 2.072,-0.686 h 1.624 q 1.316,0 2.086,0.686 0.77,0.686 0.77,1.876 0,0.826 -0.392,1.372 -0.392,0.546 -1.078,0.658 v 0.028 h 1.33 v 1.246 h -7.7 q -1.162,0 -1.834,-0.728 -0.68600002,-0.714 -0.68600002,-1.96 z M 4.857,131.32205 q 0,0.784 0.49,1.232 0.49,0.448 1.358,0.448 h 1.47 q 0.868,0 1.358,-0.448 0.49,-0.448 0.49,-1.232 0,-0.798 -0.462,-1.246 -0.462,-0.434 -1.246,-0.434 h -1.75 q -0.784,0 -1.246,0.434 -0.462,0.448 -0.462,1.246 z m -1.582,6.58001 h 7.7 v 1.092 H 9.953 v 0.028 q 0.518,0.07 0.84,0.406 0.322,0.35 0.322,0.882 0,0.504 -0.294,0.854 -0.294,0.35 -0.798,0.504 v 0.014 q 0.504,0.098 0.798,0.434 0.294,0.35 0.294,0.882 0,0.742 -0.56,1.176 -0.546,0.448 -1.428,0.448 H 3.275 v -1.176 h 5.866 q 0.462,0 0.728,-0.224 0.28,-0.224 0.28,-0.616 0,-0.378 -0.266,-0.602 -0.266,-0.224 -0.728,-0.224 h -5.88 v -1.036 h 5.866 q 0.462,0 0.728,-0.224 0.28,-0.224 0.28,-0.602 0,-0.392 -0.266,-0.616 -0.266,-0.224 -0.728,-0.224 h -5.88 z m -0.14,12.6 q 0,-1.19 0.658,-1.89 0.672,-0.7 1.75,-0.7 0.714,0 1.246,0.322 0.532,0.322 0.826,0.896 0.308,0.574 0.308,1.316 v 2.38 h 0.602 q 1.498,0 1.498,-1.638 0,-0.728 -0.266,-1.176 -0.266,-0.448 -0.742,-0.476 v -1.26 q 0.91,0.07 1.498,0.84 0.602,0.784 0.602,2.072 0,1.4 -0.672,2.142 -0.672,0.756 -1.876,0.756 H 3.275 v -1.246 h 1.4 v -0.028 q -0.714,-0.112 -1.134,-0.714 -0.406,-0.602 -0.406,-1.596 z m 1.064,0.308 q 0,0.924 0.448,1.47 0.448,0.546 1.218,0.546 h 1.078 v -2.24 q 0,-0.616 -0.378,-1.008 -0.364,-0.378 -0.98,-0.378 -0.644,0 -1.022,0.42 -0.364,0.434 -0.364,1.19 z m -0.924,7.266 h 1.148 v 2.73 h 5.404 v -2.45 h 1.148 v 3.71 H 4.423 v 2.59 H 3.275 Z m 9.086,3.22 q 0,-0.462 0.238,-0.728 0.238,-0.266 0.644,-0.266 0.42,0 0.658,0.266 0.252,0.266 0.252,0.728 0,0.462 -0.252,0.728 -0.238,0.266 -0.658,0.266 -0.406,0 -0.644,-0.266 -0.238,-0.266 -0.238,-0.728 z m -9.086,10.822 q 0,-1.022 0.588,-1.638 0.602,-0.602 1.582,-0.602 h 6.902 v -2.66 h 1.148 v 3.92 h -8.05 q -0.476,0 -0.756,0.266 -0.266,0.266 -0.266,0.714 v 2.38 H 3.275 Z m -0.14,8.79202 q 0,-0.518 0.308,-0.84 0.308,-0.308 0.798,-0.308 0.518,0 0.84,0.308 0.322,0.322 0.322,0.84 0,0.518 -0.322,0.826 -0.322,0.322 -0.84,0.322 -0.49,0 -0.798,-0.322 -0.308,-0.308 -0.308,-0.826 z m 0,10.024 q 0,-1.4 0.784,-2.24 0.784,-0.84 2.156,-0.84 h 2.1 q 1.372,0 2.156,0.84 0.784,0.84 0.784,2.24 0,1.33 -0.714,2.142 -0.714,0.826 -1.946,0.868 v -1.26 q 0.742,-0.042 1.134,-0.504 0.406,-0.462 0.406,-1.246 0,-0.826 -0.476,-1.33 -0.462,-0.49 -1.33,-0.49 H 6.075 q -0.868,0 -1.344,0.49 -0.476,0.504 -0.476,1.33 0,0.784 0.406,1.246 0.406,0.462 1.134,0.504 v 1.26 q -1.232,-0.042 -1.946,-0.868 -0.714,-0.812 -0.714,-2.142 z m 0.028,9.80001 q 0,-1.386 0.812,-2.212 0.812,-0.812 2.268,-0.812 h 1.764 q 1.47,0 2.268,0.812 0.812,0.812 0.812,2.212 0,1.4 -0.812,2.212 -0.798,0.812 -2.268,0.812 H 6.243 q -1.456,0 -2.268,-0.826 -0.812,-0.812 -0.812,-2.198 z m 1.12,0 q 0,0.826 0.462,1.288 0.462,0.476 1.358,0.476 h 2.044 q 0.896,0 1.358,-0.476 0.462,-0.462 0.462,-1.288 0,-0.812 -0.462,-1.288 -0.462,-0.476 -1.358,-0.476 H 6.103 q -0.896,0 -1.358,0.476 -0.462,0.476 -0.462,1.288 z m -1.008,6.552 h 7.7 v 1.092 H 9.953 v 0.028 q 0.518,0.07 0.84,0.406 0.322,0.35 0.322,0.882 0,0.504 -0.294,0.854 -0.294,0.35 -0.798,0.504 v 0.014 q 0.504,0.098 0.798,0.434 0.294,0.35 0.294,0.882 0,0.742 -0.56,1.176 -0.546,0.448 -1.428,0.448 H 3.275 v -1.176 h 5.866 q 0.462,0 0.728,-0.224 0.28,-0.224 0.28,-0.616 0,-0.378 -0.266,-0.602 -0.266,-0.224 -0.728,-0.224 h -5.88 v -1.036 h 5.866 q 0.462,0 0.728,-0.224 0.28,-0.224 0.28,-0.602 0,-0.392 -0.266,-0.616 -0.266,-0.224 -0.728,-0.224 h -5.88 z" id="Qodemike_gmail.com" aria-label="Qodemike@gmail.com"></path>
    <path id="envelope-solid" d="M 16.549,2.069 A 2.069,2.069 0 0 0 12.826,0.827 l -7.033,9.378 a 1.383,1.383 0 0 0 0,1.655 l 7.033,9.378 A 2.069,2.069 0 0 0 16.549,20 Z M 11.722,0 H 2.758 A 2.761,2.761 0 0 0 -2.3841849e-8,2.758 V 19.307 A 2.761,2.761 0 0 0 2.758,22.065 h 8.964 L 4.689,12.687 a 2.754,2.754 0 0 1 0,-3.31 z" ></path>
  </symbol>

  <symbol xmlns="http://www.w3.org/2000/svg" viewBox="0 0 37 18" id="hamburger-menu-icon">
    <g id="Group_78" transform="translate(-294.5 -20.5)">
      <line id="Line_38" x2="37" transform="translate(294.5 21.5)"  stroke-width="2"></line>
      <line id="Line_39" x2="37" transform="translate(294.5 29.5)"  stroke-width="2"></line>
      <line id="Line_40" x2="37" transform="translate(294.5 37.5)"  stroke-width="2"></line>
    </g>
  </symbol>
 
</svg>