<svg width="0" height="0" class="hidden">
  <symbol id="email" version="1.1" xmlns="http://www.w3.org/2000/svg" xmlnsSvg="http://www.w3.org/2000/svg" viewBox="0 0 16.549 214.00609">
    <defs id="defs1"></defs>
    <path d="M 0.75499998,43.85 3.149,42.408 q 0,-0.056 0,-0.126 -0.014,-0.07 -0.014,-0.14 0,-1.414 0.812,-2.254 0.826,-0.826 2.198,-0.826 h 4.48 q 1.372,0 2.184,0.826 0.826,0.84 0.826,2.254 0,1.414 -0.826,2.24 -0.812,0.84 -2.184,0.84 h -4.48 q -0.938,0 -1.638,-0.406 -0.7,-0.406 -1.05,-1.148 L 0.75499998,45.306 Z M 4.255,42.142 q 0,0.826 0.518,1.316 0.518,0.504 1.372,0.504 h 4.48 q 0.868,0 1.372,-0.504 0.518,-0.49 0.518,-1.316 0,-0.826 -0.518,-1.33 -0.504,-0.49 -1.372,-0.49 h -4.48 q -0.854,0 -1.372,0.49 -0.518,0.504 -0.518,1.33 z m -1.092,9.912005 q 0,-1.386 0.812,-2.212 0.812,-0.812 2.268,-0.812 h 1.764 q 1.47,0 2.268,0.812 0.812,0.812 0.812,2.212 0,1.4 -0.812,2.212 -0.798,0.812 -2.268,0.812 H 6.243 q -1.456,0 -2.268,-0.826 -0.812,-0.812 -0.812,-2.198 z m 1.12,0 q 0,0.826 0.462,1.288 0.462,0.476 1.358,0.476 h 2.044 q 0.896,0 1.358,-0.476 0.462,-0.462 0.462,-1.288 0,-0.812 -0.462,-1.288 -0.462,-0.476 -1.358,-0.476 H 6.103 q -0.896,0 -1.358,0.476 -0.462,0.476 -0.462,1.288 z m -1.148,9.464006 q 0,-1.148 0.77,-1.848 0.77,-0.686 2.086,-0.686 h 2.254 q 1.33,0 2.1,0.686 0.77,0.686 0.77,1.848 0,0.868 -0.434,1.428 -0.434,0.574 -1.176,0.686 v 0.014 l 1.75,-0.028 h 2.24 v 1.26 H 3.275 v -1.26 h 1.47 v -0.014 q -0.756,-0.098 -1.19,-0.658 -0.42,-0.56 -0.42,-1.428 z m 1.092,0.42 q 0,0.784 0.49,1.232 0.49,0.448 1.358,0.448 h 2.1 q 0.868,0 1.358,-0.448 0.49,-0.448 0.49,-1.232 0,-0.798 -0.42,-1.246 -0.406,-0.448 -1.358,-0.448 h -2.24 q -0.938,0 -1.358,0.448 -0.42,0.448 -0.42,1.246 z m -1.092,9.940004 q 0,-1.358 0.812,-2.198 0.826,-0.826 2.268,-0.826 h 1.82 q 1.442,0 2.254,0.826 0.826,0.84 0.826,2.198 0,0.91 -0.364,1.582 -0.364,0.686 -1.022,1.064 -0.658,0.378 -1.554,0.378 H 6.803 v -4.816 H 6.075 q -0.854,0 -1.358,0.49 -0.49,0.49 -0.49,1.302 0,0.7 0.266,1.148 0.28,0.462 0.742,0.56 v 1.26 q -0.966,-0.126 -1.54,-0.938 -0.56,-0.812 -0.56,-2.03 z m 4.648,-1.792 v 3.584 h 0.392 q 0.91,0 1.4,-0.476 0.504,-0.462 0.504,-1.316 0,-0.854 -0.504,-1.33 -0.49,-0.462 -1.4,-0.462 z m -4.508,8.344007 h 7.7 v 1.092 H 9.953 v 0.028 q 0.518,0.07 0.84,0.406 0.322,0.35 0.322,0.882 0,0.504 -0.294,0.854 -0.294,0.35 -0.798,0.504 v 0.014 q 0.504,0.098 0.798,0.434 0.294,0.35 0.294,0.882 0,0.742 -0.56,1.176 -0.546,0.448 -1.428,0.448 H 3.275 v -1.176 h 5.866 q 0.462,0 0.728,-0.224 0.28,-0.224 0.28,-0.616 0,-0.378 -0.266,-0.602 -0.266,-0.224 -0.728,-0.224 h -5.88 v -1.036 h 5.866 q 0.462,0 0.728,-0.224 0.28,-0.224 0.28,-0.602 0,-0.392 -0.266,-0.616 -0.266,-0.224 -0.728,-0.224 h -5.88 z m 0,10.262006 h 1.148 v 2.73 h 5.404 v -2.45 h 1.148 v 3.71 H 4.423 v 2.59 H 3.275 Z m 9.086,3.22 q 0,-0.462 0.238,-0.728 0.238,-0.266 0.644,-0.266 0.42,0 0.658,0.266 0.252,0.266 0.252,0.728 0,0.462 -0.252,0.728 -0.238,0.266 -0.658,0.266 -0.406,0 -0.644,-0.266 -0.238,-0.266 -0.238,-0.728 z m -9.086,6.860003 h 10.22 v 1.259999 H 7.797 v 1.47 l 3.178,2.156 v 1.442 l -3.668,-2.478 -4.032,2.618 v -1.47 l 3.43,-2.24 v -1.498 h -3.43 z m -0.14,12.754009 q 0,-1.358 0.812,-2.198 0.826,-0.826 2.268,-0.826 h 1.82 q 1.442,0 2.254,0.826 0.826,0.84 0.826,2.198 0,0.91 -0.364,1.582 -0.364,0.686 -1.022,1.064 -0.658,0.378 -1.554,0.378 H 6.803 v -4.816 H 6.075 q -0.854,0 -1.358,0.49 -0.49,0.49 -0.49,1.302 0,0.7 0.266,1.148 0.28,0.462 0.742,0.56 v 1.26 q -0.966,-0.126 -1.54,-0.938 -0.56,-0.812 -0.56,-2.03 z m 4.648,-1.792 v 3.584 h 0.392 q 0.91,0 1.4,-0.476 0.504,-0.462 0.504,-1.316 0,-0.854 -0.504,-1.33 -0.49,-0.462 -1.4,-0.462 z m -7.02800002,12.054 q 0,-1.19 0.50400002,-2.072 0.49,-0.882 1.414,-1.372 0.91,-0.476 2.142,-0.476 h 4.76 q 1.89,0 2.968,1.008 1.092,1.008 1.092,2.772 0,1.596 -0.924,2.506 -0.91,0.924 -2.506,0.924 H 6.411 q -1.092,0 -1.736,-0.602 -0.63,-0.602 -0.63,-1.638 0,-1.022 0.616,-1.638 0.616,-0.602 1.61,-0.602 h 1.624 q 1.036,0 1.596,0.49 0.574,0.49 0.574,1.386 0,0.574 -0.224,0.952 -0.224,0.378 -0.616,0.504 v 0.028 h 0.98 q 1.19,0 1.82,-0.602 0.63,-0.588 0.63,-1.708 0,-1.26 -0.812,-1.96 -0.812,-0.7 -2.268,-0.7 h -4.76 q -1.4,0 -2.198,0.742 -0.812,0.756 -0.812,2.058 v 1.54 H 0.75499998 Z m 4.22800002,1.05 q 0,0.532 0.336,0.826 0.35,0.294 0.952,0.294 h 1.638 q 0.616,0 0.938,-0.294 0.336,-0.294 0.336,-0.826 0,-0.532 -0.336,-0.826 -0.336,-0.294 -0.952,-0.294 H 6.271 q -0.602,0 -0.952,0.294 -0.336,0.294 -0.336,0.826 z m -4.22800002,6.56601 H 1.903 v 2.17 q 0,0.658 0.378,1.036 0.364,0.378 0.994,0.378 h 0.7 l 1.26,0.028 v -0.042 q -0.686,-0.112 -1.064,-0.658 -0.364,-0.546 -0.364,-1.372 0,-1.19 0.756,-1.876 0.756,-0.686 2.072,-0.686 h 1.624 q 1.316,0 2.086,0.686 0.77,0.686 0.77,1.876 0,0.826 -0.392,1.372 -0.392,0.546 -1.078,0.658 v 0.028 h 1.33 v 1.246 h -7.7 q -1.162,0 -1.834,-0.728 -0.68600002,-0.714 -0.68600002,-1.96 z M 4.857,131.32205 q 0,0.784 0.49,1.232 0.49,0.448 1.358,0.448 h 1.47 q 0.868,0 1.358,-0.448 0.49,-0.448 0.49,-1.232 0,-0.798 -0.462,-1.246 -0.462,-0.434 -1.246,-0.434 h -1.75 q -0.784,0 -1.246,0.434 -0.462,0.448 -0.462,1.246 z m -1.582,6.58001 h 7.7 v 1.092 H 9.953 v 0.028 q 0.518,0.07 0.84,0.406 0.322,0.35 0.322,0.882 0,0.504 -0.294,0.854 -0.294,0.35 -0.798,0.504 v 0.014 q 0.504,0.098 0.798,0.434 0.294,0.35 0.294,0.882 0,0.742 -0.56,1.176 -0.546,0.448 -1.428,0.448 H 3.275 v -1.176 h 5.866 q 0.462,0 0.728,-0.224 0.28,-0.224 0.28,-0.616 0,-0.378 -0.266,-0.602 -0.266,-0.224 -0.728,-0.224 h -5.88 v -1.036 h 5.866 q 0.462,0 0.728,-0.224 0.28,-0.224 0.28,-0.602 0,-0.392 -0.266,-0.616 -0.266,-0.224 -0.728,-0.224 h -5.88 z m -0.14,12.6 q 0,-1.19 0.658,-1.89 0.672,-0.7 1.75,-0.7 0.714,0 1.246,0.322 0.532,0.322 0.826,0.896 0.308,0.574 0.308,1.316 v 2.38 h 0.602 q 1.498,0 1.498,-1.638 0,-0.728 -0.266,-1.176 -0.266,-0.448 -0.742,-0.476 v -1.26 q 0.91,0.07 1.498,0.84 0.602,0.784 0.602,2.072 0,1.4 -0.672,2.142 -0.672,0.756 -1.876,0.756 H 3.275 v -1.246 h 1.4 v -0.028 q -0.714,-0.112 -1.134,-0.714 -0.406,-0.602 -0.406,-1.596 z m 1.064,0.308 q 0,0.924 0.448,1.47 0.448,0.546 1.218,0.546 h 1.078 v -2.24 q 0,-0.616 -0.378,-1.008 -0.364,-0.378 -0.98,-0.378 -0.644,0 -1.022,0.42 -0.364,0.434 -0.364,1.19 z m -0.924,7.266 h 1.148 v 2.73 h 5.404 v -2.45 h 1.148 v 3.71 H 4.423 v 2.59 H 3.275 Z m 9.086,3.22 q 0,-0.462 0.238,-0.728 0.238,-0.266 0.644,-0.266 0.42,0 0.658,0.266 0.252,0.266 0.252,0.728 0,0.462 -0.252,0.728 -0.238,0.266 -0.658,0.266 -0.406,0 -0.644,-0.266 -0.238,-0.266 -0.238,-0.728 z m -9.086,10.822 q 0,-1.022 0.588,-1.638 0.602,-0.602 1.582,-0.602 h 6.902 v -2.66 h 1.148 v 3.92 h -8.05 q -0.476,0 -0.756,0.266 -0.266,0.266 -0.266,0.714 v 2.38 H 3.275 Z m -0.14,8.79202 q 0,-0.518 0.308,-0.84 0.308,-0.308 0.798,-0.308 0.518,0 0.84,0.308 0.322,0.322 0.322,0.84 0,0.518 -0.322,0.826 -0.322,0.322 -0.84,0.322 -0.49,0 -0.798,-0.322 -0.308,-0.308 -0.308,-0.826 z m 0,10.024 q 0,-1.4 0.784,-2.24 0.784,-0.84 2.156,-0.84 h 2.1 q 1.372,0 2.156,0.84 0.784,0.84 0.784,2.24 0,1.33 -0.714,2.142 -0.714,0.826 -1.946,0.868 v -1.26 q 0.742,-0.042 1.134,-0.504 0.406,-0.462 0.406,-1.246 0,-0.826 -0.476,-1.33 -0.462,-0.49 -1.33,-0.49 H 6.075 q -0.868,0 -1.344,0.49 -0.476,0.504 -0.476,1.33 0,0.784 0.406,1.246 0.406,0.462 1.134,0.504 v 1.26 q -1.232,-0.042 -1.946,-0.868 -0.714,-0.812 -0.714,-2.142 z m 0.028,9.80001 q 0,-1.386 0.812,-2.212 0.812,-0.812 2.268,-0.812 h 1.764 q 1.47,0 2.268,0.812 0.812,0.812 0.812,2.212 0,1.4 -0.812,2.212 -0.798,0.812 -2.268,0.812 H 6.243 q -1.456,0 -2.268,-0.826 -0.812,-0.812 -0.812,-2.198 z m 1.12,0 q 0,0.826 0.462,1.288 0.462,0.476 1.358,0.476 h 2.044 q 0.896,0 1.358,-0.476 0.462,-0.462 0.462,-1.288 0,-0.812 -0.462,-1.288 -0.462,-0.476 -1.358,-0.476 H 6.103 q -0.896,0 -1.358,0.476 -0.462,0.476 -0.462,1.288 z m -1.008,6.552 h 7.7 v 1.092 H 9.953 v 0.028 q 0.518,0.07 0.84,0.406 0.322,0.35 0.322,0.882 0,0.504 -0.294,0.854 -0.294,0.35 -0.798,0.504 v 0.014 q 0.504,0.098 0.798,0.434 0.294,0.35 0.294,0.882 0,0.742 -0.56,1.176 -0.546,0.448 -1.428,0.448 H 3.275 v -1.176 h 5.866 q 0.462,0 0.728,-0.224 0.28,-0.224 0.28,-0.616 0,-0.378 -0.266,-0.602 -0.266,-0.224 -0.728,-0.224 h -5.88 v -1.036 h 5.866 q 0.462,0 0.728,-0.224 0.28,-0.224 0.28,-0.602 0,-0.392 -0.266,-0.616 -0.266,-0.224 -0.728,-0.224 h -5.88 z" id="Qodemike_gmail.com" aria-label="Qodemike@gmail.com"></path>
    <path id="envelope-solid" d="M 16.549,2.069 A 2.069,2.069 0 0 0 12.826,0.827 l -7.033,9.378 a 1.383,1.383 0 0 0 0,1.655 l 7.033,9.378 A 2.069,2.069 0 0 0 16.549,20 Z M 11.722,0 H 2.758 A 2.761,2.761 0 0 0 -2.3841849e-8,2.758 V 19.307 A 2.761,2.761 0 0 0 2.758,22.065 h 8.964 L 4.689,12.687 a 2.754,2.754 0 0 1 0,-3.31 z" ></path>
  </symbol>
  <symbol xmlns="http://www.w3.org/2000/svg" viewBox="0 0 37 18" id="hamburger-menu-icon">
    <g id="Group_78" transform="translate(-294.5 -20.5)">
      <line id="Line_38" x2="37" transform="translate(294.5 21.5)"  stroke-width="2"></line>
      <line id="Line_39" x2="37" transform="translate(294.5 29.5)"  stroke-width="2"></line>
      <line id="Line_40" x2="37" transform="translate(294.5 37.5)"  stroke-width="2"></line>
    </g>
  </symbol>
   <symbol id="Logo" xmlns="http://www.w3.org/2000/svg" viewBox="0 0 43.426 31.255">
    <path id="Path_80" d="M579.4,7.534a7.2,7.2,0,0,0-1.16-3.909A8.69,8.69,0,0,0,572.867.074a1.08,1.08,0,0,0-1.307.4c-1.987,2.537-4.019,5.047-6.036,7.563-.133.165-.265.329-.4.495l4.619,5.721c.6-.745,1.219-1.5,1.88-2.317l.035-.041c.068-.085.137-.17.207-.256v8.126c-.081-.083-.151-.153-.211-.214a2.318,2.318,0,0,1-.212-.229q-.452-.582-.9-1.163c-.541-.7-1.08-1.4-1.607-2.112a.813.813,0,0,1-.068-.111L564,9.9l0,.006c-.407-.506-.816-1.009-1.221-1.511-1.685-2.086-3.346-4.143-5.039-6.238-1.714,2.113-3.388,4.175-5.075,6.253l4.583,5.723c.154-.187.307-.378.466-.576.208.243.368.42.517.6l5.841,7.258q3.763,4.678,7.516,9.364a1.067,1.067,0,0,0,1.3.4,8.758,8.758,0,0,0,5.291-3.449,7.252,7.252,0,0,0,1.226-4.021q.093-8.09,0-16.181Z" transform="translate(-536.017 -0.008)"></path>
    <path id="Path_81" d="M436.274,23.092c-1.574,2-3.184,3.97-4.852,6.033L427.9,24.718c-3.517-4.4-7.03-8.8-10.6-13.279h0v8.152h0c.729-.9,1.36-1.68,2.039-2.517.147.153.263.258.36.378,1.327,1.641,2.644,3.29,3.985,4.922a.515.515,0,0,1,.017.785q-3.14,3.877-6.23,7.781a1.121,1.121,0,0,1-.171.176,0,0,0,0,1,0,0l-.028.023a.993.993,0,0,1-.871.085,8.588,8.588,0,0,1-5.561-3.678,7.284,7.284,0,0,1-1.1-3.828q-.089-8.09,0-16.181a7.183,7.183,0,0,1,1.246-4.02,8.8,8.8,0,0,1,5.3-3.431A1,1,0,0,1,417.3.259a1.7,1.7,0,0,1,.219.233c2.382,3,4.794,5.979,7.2,8.965.106.132.214.26.4.482l5.256,6.561c.318.4.659.815,1.026,1.271.218-.249.374-.428.594-.679.57.717,1.106,1.395,1.648,2.068.867,1.078,1.754,2.142,2.593,3.236a.7.7,0,0,1,.035.7Z" transform="translate(-409.696 -0.029)" ></path>
    <line id="Line_49" x2="3.517" y2="4.406" transform="translate(18.208 24.688)" ></line>
    <line id="Line_50" x1="1.109" y1="1.394" transform="translate(34.527 18.146)" ></line>
  </symbol>
   <symbol version="1.1" id="Banner" xmlns="http://www.w3.org/2000/svg" xmlnsSvg="http://www.w3.org/2000/svg" viewBox="0 0 285.93594 151.03455">
    <defs id="defs1"></defs>
    <g id="Qode_Mike_Banner" transform="translate(-2.348,0.03254952)">
      <g id="Group_92" transform="translate(98.5)">
        <path id="Path_80" d="M 609.682,16.057 A 15.362,15.362 0 0 0 607.209,7.72 18.533,18.533 0 0 0 595.753,0.148 2.3,2.3 0 0 0 592.965,1 c -4.238,5.41 -8.571,10.763 -12.873,16.128 -0.283,0.353 -0.566,0.7 -0.854,1.055 l 9.852,12.2 c 1.274,-1.589 2.6,-3.205 4.01,-4.941 l 0.074,-0.087 c 0.144,-0.181 0.293,-0.362 0.442,-0.546 v 17.33 c -0.174,-0.176 -0.323,-0.325 -0.449,-0.457 a 4.924,4.924 0 0 1 -0.452,-0.489 q -0.964,-1.24 -1.917,-2.48 c -1.154,-1.495 -2.3,-2.992 -3.426,-4.5 a 1.753,1.753 0 0 1 -0.144,-0.236 L 576.842,21.112 a 0.066,0.066 0 0 0 -0.01,0.012 c -0.869,-1.08 -1.74,-2.153 -2.6,-3.223 -3.593,-4.449 -7.135,-8.836 -10.745,-13.3 -3.655,4.506 -7.225,8.9 -10.822,13.335 l 9.775,12.205 c 0.328,-0.4 0.655,-0.807 0.993,-1.229 0.444,0.519 0.785,0.9 1.1,1.289 q 6.227,7.739 12.456,15.478 8.025,9.977 16.029,19.969 a 2.276,2.276 0 0 0 2.768,0.852 18.676,18.676 0 0 0 11.284,-7.356 15.467,15.467 0 0 0 2.614,-8.575 q 0.2,-17.254 0,-34.508 z" transform="translate(-517.166,-0.008)" ></path>
        <path id="Path_81" d="m 466.376,49.21 c -3.357,4.258 -6.79,8.466 -10.348,12.866 l -7.5,-9.4 c -7.5,-9.39 -14.993,-18.777 -22.605,-28.318 v 0 17.386 0 c 1.554,-1.922 2.9,-3.583 4.347,-5.368 0.313,0.325 0.561,0.551 0.767,0.807 2.83,3.5 5.638,7.016 8.5,10.5 a 1.1,1.1 0 0 1 0.037,1.673 q -6.7,8.268 -13.285,16.595 a 2.393,2.393 0 0 1 -0.365,0.375 l -0.06,0.05 A 2.118,2.118 0 0 1 424,66.56 18.314,18.314 0 0 1 412.14,58.717 15.535,15.535 0 0 1 409.791,50.554 q -0.19,-17.254 0,-34.508 a 15.319,15.319 0 0 1 2.657,-8.573 18.776,18.776 0 0 1 11.317,-7.317 2.144,2.144 0 0 1 2.158,0.36 3.639,3.639 0 0 1 0.467,0.5 c 5.08,6.4 10.224,12.751 15.353,19.12 0.226,0.281 0.457,0.554 0.849,1.028 L 453.8,35.153 c 0.678,0.862 1.405,1.738 2.187,2.711 0.464,-0.531 0.8,-0.914 1.266,-1.447 1.217,1.529 2.359,2.974 3.516,4.409 1.85,2.3 3.742,4.568 5.529,6.9 a 1.488,1.488 0 0 1 0.074,1.49 z" transform="translate(-409.696,-0.026)"></path>
        <line id="Line_49" x2="7.5" y2="9.3970003" transform="translate(38.831,52.65)" fill="#1bfef4" x1="0" y1="0"></line>
        <line id="Line_50" x1="2.3659999" y1="2.9719999" transform="translate(73.632,38.699)" fill="#1bfef4" x2="0" y2="0"></line>
      </g>
      <path d="m 31.472,6.72 -5.04,-6.776 q -2.24,0.448 -4.368,0.448 -5.544,0 -10.192,-2.576 Q 7.28,-4.76 4.536,-9.352 1.848,-14 1.848,-19.768 q 0,-5.768 2.688,-10.36 2.744,-4.592 7.336,-7.168 4.648,-2.576 10.192,-2.576 5.544,0 10.136,2.576 4.648,2.576 7.28,7.168 2.688,4.592 2.688,10.36 0,5.04 -2.072,9.24 -2.016,4.144 -5.656,6.888 L 43.064,6.72 Z M 11.648,-19.768 q 0,5.208 2.8,8.344 2.856,3.08 7.616,3.08 4.704,0 7.504,-3.136 2.856,-3.136 2.856,-8.288 0,-5.208 -2.856,-8.288 -2.8,-3.136 -7.504,-3.136 -4.76,0 -7.616,3.08 -2.8,3.08 -2.8,8.344 z M 61.824006,0.448 q -4.592,0 -8.288,-1.96 -3.64,-1.96 -5.768,-5.6 -2.072,-3.64 -2.072,-8.512 0,-4.816 2.128,-8.456 2.128,-3.696 5.824,-5.656 3.696,-1.96 8.288,-1.96 4.592,0 8.288,1.96 3.696,1.96 5.824,5.656 2.128,3.64 2.128,8.456 0,4.816 -2.184,8.512 -2.128,3.64 -5.88,5.6 -3.696,1.96 -8.288,1.96 z m 0,-8.288 q 2.744,0 4.648,-2.016 1.96,-2.016 1.96,-5.768 0,-3.752 -1.904,-5.768 -1.848,-2.016 -4.592,-2.016 -2.8,0 -4.648,2.016 -1.848,1.96 -1.848,5.768 0,3.752 1.792,5.768 1.848,2.016 4.592,2.016 z m 19.543951,-7.84 q 0,-4.816 1.792,-8.456 1.848,-3.64 4.984,-5.6 3.136,-1.96 7,-1.96 3.08,0 5.600003,1.288 2.576,1.288 4.032,3.472 V -41.44 h 9.576 V 0 h -9.576 v -4.48 q -1.344,2.24 -3.864,3.584 -2.464003,1.344 -5.768003,1.344 -3.864,0 -7,-1.96 -3.136,-2.016 -4.984,-5.656 -1.792,-3.696 -1.792,-8.512 z m 23.408003,0.056 q 0,-3.584 -2.016,-5.656 -1.96,-2.072 -4.816003,-2.072 -2.856,0 -4.872,2.072 -1.96,2.016 -1.96,5.6 0,3.584 1.96,5.712 2.016,2.072 4.872,2.072 2.856003,0 4.816003,-2.072 2.016,-2.072 2.016,-5.656 z m 45.97605,-0.504 q 0,1.344 -0.168,2.8 h -21.672 q 0.224,2.912 1.848,4.48 1.68,1.512 4.088,1.512 3.584,0 4.984,-3.024 h 10.192 q -0.784,3.08 -2.856,5.544 -2.016,2.464 -5.096,3.864 -3.08,1.4 -6.888,1.4 -4.592,0 -8.176,-1.96 -3.584,-1.96 -5.6,-5.6 -2.016,-3.64 -2.016,-8.512 0,-4.872 1.96,-8.512 2.016,-3.64 5.6,-5.6 3.584,-1.96 8.232,-1.96 4.536,0 8.064,1.904 3.528,1.904 5.488,5.432 2.016,3.528 2.016,8.232 z m -9.8,-2.52 q 0,-2.464 -1.68,-3.92 -1.68,-1.456 -4.2,-1.456 -2.408,0 -4.088,1.4 -1.624,1.4 -2.016,3.976 z m 59.35995,-20.664 V 0 h -9.576 V -23.576 L 181.94396,0 h -7.728 l -8.848,-23.632 V 0 h -9.576 v -39.312 h 11.312 l 11.032,27.216 10.92,-27.216 z m 11.70396,4.816 q -2.52,0 -4.144,-1.456 -1.568,-1.512 -1.568,-3.696 0,-2.24 1.568,-3.696 1.624,-1.512 4.144,-1.512 2.464,0 4.032,1.512 1.624,1.456 1.624,3.696 0,2.184 -1.624,3.696 -1.568,1.456 -4.032,1.456 z m 4.76,3.248 V 0 h -9.576 v -31.248 z m 26.04,31.248 -9.52,-13.104 V 0 h -9.576 v -41.44 h 9.576 v 22.904 l 9.464,-12.712 h 11.816 l -12.992,15.68 13.104,15.568 z m 44.96801,-16.128 q 0,1.344 -0.168,2.8 h -21.672 q 0.224,2.912 1.848,4.48 1.68,1.512 4.088,1.512 3.584,0 4.984,-3.024 h 10.192 q -0.784,3.08 -2.856,5.544 -2.016,2.464 -5.096,3.864 -3.08,1.4 -6.888,1.4 -4.592,0 -8.176,-1.96 -3.584,-1.96 -5.6,-5.6 -2.016,-3.64 -2.016,-8.512 0,-4.872 1.96,-8.512 2.016,-3.64 5.6,-5.6 3.584,-1.96 8.232,-1.96 4.536,0 8.064,1.904 3.528,1.904 5.488,5.432 2.016,3.528 2.016,8.232 z m -9.8,-2.52 q 0,-2.464 -1.68,-3.92 -1.68,-1.456 -4.2,-1.456 -2.408,0 -4.088,1.4 -1.624,1.4 -2.016,3.976 z" id="QodeMike" transform="translate(0.5,144.282)" aria-label="QodeMike"></path>
    </g>
  </symbol>
</svg>